<?xml version="1.0" encoding="utf-8" standalone="no"?>
<!DOCTYPE svg PUBLIC "-//W3C//DTD SVG 1.1//EN"
  "http://www.w3.org/Graphics/SVG/1.1/DTD/svg11.dtd">
<svg xmlns:xlink="http://www.w3.org/1999/xlink" width="576pt" height="576pt" viewBox="0 0 576 576" xmlns="http://www.w3.org/2000/svg" version="1.1">
 <metadata>
  <rdf:RDF xmlns:dc="http://purl.org/dc/elements/1.1/" xmlns:cc="http://creativecommons.org/ns#" xmlns:rdf="http://www.w3.org/1999/02/22-rdf-syntax-ns#">
   <cc:Work>
    <dc:type rdf:resource="http://purl.org/dc/dcmitype/StillImage"/>
    <dc:date>2022-05-22T20:01:28.314823</dc:date>
    <dc:format>image/svg+xml</dc:format>
    <dc:creator>
     <cc:Agent>
      <dc:title>Matplotlib v3.5.1, https://matplotlib.org/</dc:title>
     </cc:Agent>
    </dc:creator>
   </cc:Work>
  </rdf:RDF>
 </metadata>
 <defs>
  <style type="text/css">*{stroke-linejoin: round; stroke-linecap: butt}</style>
 </defs>
 <g id="figure_1">
  <g id="patch_1">
   <path d="M 0 576 
L 576 576 
L 576 0 
L 0 0 
z
" style="fill: #ffffff"/>
  </g>
  <g id="axes_1">
   <g id="patch_2">
    <path d="M 72 266.792727 
L 518.4 266.792727 
L 518.4 69.12 
L 72 69.12 
z
" style="fill: #ffffff"/>
   </g>
   <g id="QuadMesh_1">
    <path d="M 72 69.12 
L 146.4 69.12 
L 146.4 118.538182 
L 72 118.538182 
L 72 69.12 
" clip-path="url(#pa42dad72ac)" style="fill: #f6ae87"/>
    <path d="M 146.4 69.12 
L 220.8 69.12 
L 220.8 118.538182 
L 146.4 118.538182 
L 146.4 69.12 
" clip-path="url(#pa42dad72ac)" style="fill: #f6bf9d"/>
    <path d="M 220.8 69.12 
L 295.2 69.12 
L 295.2 118.538182 
L 220.8 118.538182 
L 220.8 69.12 
" clip-path="url(#pa42dad72ac)" style="fill: #f7c7a8"/>
    <path d="M 295.2 69.12 
L 369.6 69.12 
L 369.6 118.538182 
L 295.2 118.538182 
L 295.2 69.12 
" clip-path="url(#pa42dad72ac)" style="fill: #f7cfb3"/>
    <path d="M 369.6 69.12 
L 444 69.12 
L 444 118.538182 
L 369.6 118.538182 
L 369.6 69.12 
" clip-path="url(#pa42dad72ac)" style="fill: #f7cdb1"/>
    <path d="M 444 69.12 
L 518.4 69.12 
L 518.4 118.538182 
L 444 118.538182 
L 444 69.12 
" clip-path="url(#pa42dad72ac)" style="fill: #f7d0b5"/>
    <path d="M 72 118.538182 
L 146.4 118.538182 
L 146.4 167.956364 
L 72 167.956364 
L 72 118.538182 
" clip-path="url(#pa42dad72ac)" style="fill: #f6ae87"/>
    <path d="M 146.4 118.538182 
L 220.8 118.538182 
L 220.8 167.956364 
L 146.4 167.956364 
L 146.4 118.538182 
" clip-path="url(#pa42dad72ac)" style="fill: #f6b893"/>
    <path d="M 220.8 118.538182 
L 295.2 118.538182 
L 295.2 167.956364 
L 220.8 167.956364 
L 220.8 118.538182 
" clip-path="url(#pa42dad72ac)" style="fill: #f6be9b"/>
    <path d="M 295.2 118.538182 
L 369.6 118.538182 
L 369.6 167.956364 
L 295.2 167.956364 
L 295.2 118.538182 
" clip-path="url(#pa42dad72ac)" style="fill: #f6bb97"/>
    <path d="M 369.6 118.538182 
L 444 118.538182 
L 444 167.956364 
L 369.6 167.956364 
L 369.6 118.538182 
" clip-path="url(#pa42dad72ac)" style="fill: #f6bb97"/>
    <path d="M 444 118.538182 
L 518.4 118.538182 
L 518.4 167.956364 
L 444 167.956364 
L 444 118.538182 
" clip-path="url(#pa42dad72ac)" style="fill: #f6b893"/>
    <path d="M 72 167.956364 
L 146.4 167.956364 
L 146.4 217.374545 
L 72 217.374545 
L 72 167.956364 
" clip-path="url(#pa42dad72ac)" style="fill: #f6a880"/>
    <path d="M 146.4 167.956364 
L 220.8 167.956364 
L 220.8 217.374545 
L 146.4 217.374545 
L 146.4 167.956364 
" clip-path="url(#pa42dad72ac)" style="fill: #f6b18b"/>
    <path d="M 220.8 167.956364 
L 295.2 167.956364 
L 295.2 217.374545 
L 220.8 217.374545 
L 220.8 167.956364 
" clip-path="url(#pa42dad72ac)" style="fill: #f6b48f"/>
    <path d="M 295.2 167.956364 
L 369.6 167.956364 
L 369.6 217.374545 
L 295.2 217.374545 
L 295.2 167.956364 
" clip-path="url(#pa42dad72ac)" style="fill: #f6b691"/>
    <path d="M 369.6 167.956364 
L 444 167.956364 
L 444 217.374545 
L 369.6 217.374545 
L 369.6 167.956364 
" clip-path="url(#pa42dad72ac)" style="fill: #f6b995"/>
    <path d="M 444 167.956364 
L 518.4 167.956364 
L 518.4 217.374545 
L 444 217.374545 
L 444 167.956364 
" clip-path="url(#pa42dad72ac)" style="fill: #f6bb97"/>
    <path d="M 72 217.374545 
L 146.4 217.374545 
L 146.4 266.792727 
L 72 266.792727 
L 72 217.374545 
" clip-path="url(#pa42dad72ac)" style="fill: #f16445"/>
    <path d="M 146.4 217.374545 
L 220.8 217.374545 
L 220.8 266.792727 
L 146.4 266.792727 
L 146.4 217.374545 
" clip-path="url(#pa42dad72ac)" style="fill: #f26f4c"/>
    <path d="M 220.8 217.374545 
L 295.2 217.374545 
L 295.2 266.792727 
L 220.8 266.792727 
L 220.8 217.374545 
" clip-path="url(#pa42dad72ac)" style="fill: #f59067"/>
    <path d="M 295.2 217.374545 
L 369.6 217.374545 
L 369.6 266.792727 
L 295.2 266.792727 
L 295.2 217.374545 
" clip-path="url(#pa42dad72ac)" style="fill: #f6a880"/>
    <path d="M 369.6 217.374545 
L 444 217.374545 
L 444 266.792727 
L 369.6 266.792727 
L 369.6 217.374545 
" clip-path="url(#pa42dad72ac)" style="fill: #f6b18b"/>
    <path d="M 444 217.374545 
L 518.4 217.374545 
L 518.4 266.792727 
L 444 266.792727 
L 444 217.374545 
" clip-path="url(#pa42dad72ac)" style="fill: #f6b18b"/>
   </g>
   <g id="matplotlib.axis_1">
    <g id="xtick_1">
     <g id="line2d_1">
      <defs>
       <path id="m42b79b50b4" d="M 0 0 
L 0 3.5 
" style="stroke: #000000; stroke-width: 0.8"/>
      </defs>
      <g>
       <use xlink:href="#m42b79b50b4" x="109.2" y="266.792727" style="stroke: #000000; stroke-width: 0.8"/>
      </g>
     </g>
     <g id="text_1">
      <!-- 50 -->
      <g transform="translate(102.8375 281.391165)scale(0.1 -0.1)">
       <defs>
        <path id="DejaVuSans-35" d="M 691 4666 
L 3169 4666 
L 3169 4134 
L 1269 4134 
L 1269 2991 
Q 1406 3038 1543 3061 
Q 1681 3084 1819 3084 
Q 2600 3084 3056 2656 
Q 3513 2228 3513 1497 
Q 3513 744 3044 326 
Q 2575 -91 1722 -91 
Q 1428 -91 1123 -41 
Q 819 9 494 109 
L 494 744 
Q 775 591 1075 516 
Q 1375 441 1709 441 
Q 2250 441 2565 725 
Q 2881 1009 2881 1497 
Q 2881 1984 2565 2268 
Q 2250 2553 1709 2553 
Q 1456 2553 1204 2497 
Q 953 2441 691 2322 
L 691 4666 
z
" transform="scale(0.015625)"/>
        <path id="DejaVuSans-30" d="M 2034 4250 
Q 1547 4250 1301 3770 
Q 1056 3291 1056 2328 
Q 1056 1369 1301 889 
Q 1547 409 2034 409 
Q 2525 409 2770 889 
Q 3016 1369 3016 2328 
Q 3016 3291 2770 3770 
Q 2525 4250 2034 4250 
z
M 2034 4750 
Q 2819 4750 3233 4129 
Q 3647 3509 3647 2328 
Q 3647 1150 3233 529 
Q 2819 -91 2034 -91 
Q 1250 -91 836 529 
Q 422 1150 422 2328 
Q 422 3509 836 4129 
Q 1250 4750 2034 4750 
z
" transform="scale(0.015625)"/>
       </defs>
       <use xlink:href="#DejaVuSans-35"/>
       <use xlink:href="#DejaVuSans-30" x="63.623047"/>
      </g>
     </g>
    </g>
    <g id="xtick_2">
     <g id="line2d_2">
      <g>
       <use xlink:href="#m42b79b50b4" x="183.6" y="266.792727" style="stroke: #000000; stroke-width: 0.8"/>
      </g>
     </g>
     <g id="text_2">
      <!-- 100 -->
      <g transform="translate(174.05625 281.391165)scale(0.1 -0.1)">
       <defs>
        <path id="DejaVuSans-31" d="M 794 531 
L 1825 531 
L 1825 4091 
L 703 3866 
L 703 4441 
L 1819 4666 
L 2450 4666 
L 2450 531 
L 3481 531 
L 3481 0 
L 794 0 
L 794 531 
z
" transform="scale(0.015625)"/>
       </defs>
       <use xlink:href="#DejaVuSans-31"/>
       <use xlink:href="#DejaVuSans-30" x="63.623047"/>
       <use xlink:href="#DejaVuSans-30" x="127.246094"/>
      </g>
     </g>
    </g>
    <g id="xtick_3">
     <g id="line2d_3">
      <g>
       <use xlink:href="#m42b79b50b4" x="258" y="266.792727" style="stroke: #000000; stroke-width: 0.8"/>
      </g>
     </g>
     <g id="text_3">
      <!-- 200 -->
      <g transform="translate(248.45625 281.391165)scale(0.1 -0.1)">
       <defs>
        <path id="DejaVuSans-32" d="M 1228 531 
L 3431 531 
L 3431 0 
L 469 0 
L 469 531 
Q 828 903 1448 1529 
Q 2069 2156 2228 2338 
Q 2531 2678 2651 2914 
Q 2772 3150 2772 3378 
Q 2772 3750 2511 3984 
Q 2250 4219 1831 4219 
Q 1534 4219 1204 4116 
Q 875 4013 500 3803 
L 500 4441 
Q 881 4594 1212 4672 
Q 1544 4750 1819 4750 
Q 2544 4750 2975 4387 
Q 3406 4025 3406 3419 
Q 3406 3131 3298 2873 
Q 3191 2616 2906 2266 
Q 2828 2175 2409 1742 
Q 1991 1309 1228 531 
z
" transform="scale(0.015625)"/>
       </defs>
       <use xlink:href="#DejaVuSans-32"/>
       <use xlink:href="#DejaVuSans-30" x="63.623047"/>
       <use xlink:href="#DejaVuSans-30" x="127.246094"/>
      </g>
     </g>
    </g>
    <g id="xtick_4">
     <g id="line2d_4">
      <g>
       <use xlink:href="#m42b79b50b4" x="332.4" y="266.792727" style="stroke: #000000; stroke-width: 0.8"/>
      </g>
     </g>
     <g id="text_4">
      <!-- 400 -->
      <g transform="translate(322.85625 281.391165)scale(0.1 -0.1)">
       <defs>
        <path id="DejaVuSans-34" d="M 2419 4116 
L 825 1625 
L 2419 1625 
L 2419 4116 
z
M 2253 4666 
L 3047 4666 
L 3047 1625 
L 3713 1625 
L 3713 1100 
L 3047 1100 
L 3047 0 
L 2419 0 
L 2419 1100 
L 313 1100 
L 313 1709 
L 2253 4666 
z
" transform="scale(0.015625)"/>
       </defs>
       <use xlink:href="#DejaVuSans-34"/>
       <use xlink:href="#DejaVuSans-30" x="63.623047"/>
       <use xlink:href="#DejaVuSans-30" x="127.246094"/>
      </g>
     </g>
    </g>
    <g id="xtick_5">
     <g id="line2d_5">
      <g>
       <use xlink:href="#m42b79b50b4" x="406.8" y="266.792727" style="stroke: #000000; stroke-width: 0.8"/>
      </g>
     </g>
     <g id="text_5">
      <!-- 800 -->
      <g transform="translate(397.25625 281.391165)scale(0.1 -0.1)">
       <defs>
        <path id="DejaVuSans-38" d="M 2034 2216 
Q 1584 2216 1326 1975 
Q 1069 1734 1069 1313 
Q 1069 891 1326 650 
Q 1584 409 2034 409 
Q 2484 409 2743 651 
Q 3003 894 3003 1313 
Q 3003 1734 2745 1975 
Q 2488 2216 2034 2216 
z
M 1403 2484 
Q 997 2584 770 2862 
Q 544 3141 544 3541 
Q 544 4100 942 4425 
Q 1341 4750 2034 4750 
Q 2731 4750 3128 4425 
Q 3525 4100 3525 3541 
Q 3525 3141 3298 2862 
Q 3072 2584 2669 2484 
Q 3125 2378 3379 2068 
Q 3634 1759 3634 1313 
Q 3634 634 3220 271 
Q 2806 -91 2034 -91 
Q 1263 -91 848 271 
Q 434 634 434 1313 
Q 434 1759 690 2068 
Q 947 2378 1403 2484 
z
M 1172 3481 
Q 1172 3119 1398 2916 
Q 1625 2713 2034 2713 
Q 2441 2713 2670 2916 
Q 2900 3119 2900 3481 
Q 2900 3844 2670 4047 
Q 2441 4250 2034 4250 
Q 1625 4250 1398 4047 
Q 1172 3844 1172 3481 
z
" transform="scale(0.015625)"/>
       </defs>
       <use xlink:href="#DejaVuSans-38"/>
       <use xlink:href="#DejaVuSans-30" x="63.623047"/>
       <use xlink:href="#DejaVuSans-30" x="127.246094"/>
      </g>
     </g>
    </g>
    <g id="xtick_6">
     <g id="line2d_6">
      <g>
       <use xlink:href="#m42b79b50b4" x="481.2" y="266.792727" style="stroke: #000000; stroke-width: 0.8"/>
      </g>
     </g>
     <g id="text_6">
      <!-- 1600 -->
      <g transform="translate(468.475 281.391165)scale(0.1 -0.1)">
       <defs>
        <path id="DejaVuSans-36" d="M 2113 2584 
Q 1688 2584 1439 2293 
Q 1191 2003 1191 1497 
Q 1191 994 1439 701 
Q 1688 409 2113 409 
Q 2538 409 2786 701 
Q 3034 994 3034 1497 
Q 3034 2003 2786 2293 
Q 2538 2584 2113 2584 
z
M 3366 4563 
L 3366 3988 
Q 3128 4100 2886 4159 
Q 2644 4219 2406 4219 
Q 1781 4219 1451 3797 
Q 1122 3375 1075 2522 
Q 1259 2794 1537 2939 
Q 1816 3084 2150 3084 
Q 2853 3084 3261 2657 
Q 3669 2231 3669 1497 
Q 3669 778 3244 343 
Q 2819 -91 2113 -91 
Q 1303 -91 875 529 
Q 447 1150 447 2328 
Q 447 3434 972 4092 
Q 1497 4750 2381 4750 
Q 2619 4750 2861 4703 
Q 3103 4656 3366 4563 
z
" transform="scale(0.015625)"/>
       </defs>
       <use xlink:href="#DejaVuSans-31"/>
       <use xlink:href="#DejaVuSans-36" x="63.623047"/>
       <use xlink:href="#DejaVuSans-30" x="127.246094"/>
       <use xlink:href="#DejaVuSans-30" x="190.869141"/>
      </g>
     </g>
    </g>
   </g>
   <g id="matplotlib.axis_2">
    <g id="ytick_1">
     <g id="line2d_7">
      <defs>
       <path id="mee37d14349" d="M 0 0 
L -3.5 0 
" style="stroke: #000000; stroke-width: 0.8"/>
      </defs>
      <g>
       <use xlink:href="#mee37d14349" x="72" y="93.829091" style="stroke: #000000; stroke-width: 0.8"/>
      </g>
     </g>
     <g id="text_7">
      <!-- 1.0 -->
      <g transform="translate(62.920312 101.780653)rotate(-90)scale(0.1 -0.1)">
       <defs>
        <path id="DejaVuSans-2e" d="M 684 794 
L 1344 794 
L 1344 0 
L 684 0 
L 684 794 
z
" transform="scale(0.015625)"/>
       </defs>
       <use xlink:href="#DejaVuSans-31"/>
       <use xlink:href="#DejaVuSans-2e" x="63.623047"/>
       <use xlink:href="#DejaVuSans-30" x="95.410156"/>
      </g>
     </g>
    </g>
    <g id="ytick_2">
     <g id="line2d_8">
      <g>
       <use xlink:href="#mee37d14349" x="72" y="143.247273" style="stroke: #000000; stroke-width: 0.8"/>
      </g>
     </g>
     <g id="text_8">
      <!-- 0.1 -->
      <g transform="translate(62.920312 151.198835)rotate(-90)scale(0.1 -0.1)">
       <use xlink:href="#DejaVuSans-30"/>
       <use xlink:href="#DejaVuSans-2e" x="63.623047"/>
       <use xlink:href="#DejaVuSans-31" x="95.410156"/>
      </g>
     </g>
    </g>
    <g id="ytick_3">
     <g id="line2d_9">
      <g>
       <use xlink:href="#mee37d14349" x="72" y="192.665455" style="stroke: #000000; stroke-width: 0.8"/>
      </g>
     </g>
     <g id="text_9">
      <!-- 0.01 -->
      <g transform="translate(62.920312 203.798267)rotate(-90)scale(0.1 -0.1)">
       <use xlink:href="#DejaVuSans-30"/>
       <use xlink:href="#DejaVuSans-2e" x="63.623047"/>
       <use xlink:href="#DejaVuSans-30" x="95.410156"/>
       <use xlink:href="#DejaVuSans-31" x="159.033203"/>
      </g>
     </g>
    </g>
    <g id="ytick_4">
     <g id="line2d_10">
      <g>
       <use xlink:href="#mee37d14349" x="72" y="242.083636" style="stroke: #000000; stroke-width: 0.8"/>
      </g>
     </g>
     <g id="text_10">
      <!-- 0.001 -->
      <g transform="translate(62.920312 256.397699)rotate(-90)scale(0.1 -0.1)">
       <use xlink:href="#DejaVuSans-30"/>
       <use xlink:href="#DejaVuSans-2e" x="63.623047"/>
       <use xlink:href="#DejaVuSans-30" x="95.410156"/>
       <use xlink:href="#DejaVuSans-30" x="159.033203"/>
       <use xlink:href="#DejaVuSans-31" x="222.65625"/>
      </g>
     </g>
    </g>
    <g id="text_11">
     <!-- Learning rate -->
     <g transform="translate(49.242188 201.409489)rotate(-90)scale(0.1 -0.1)">
      <defs>
       <path id="DejaVuSans-4c" d="M 628 4666 
L 1259 4666 
L 1259 531 
L 3531 531 
L 3531 0 
L 628 0 
L 628 4666 
z
" transform="scale(0.015625)"/>
       <path id="DejaVuSans-65" d="M 3597 1894 
L 3597 1613 
L 953 1613 
Q 991 1019 1311 708 
Q 1631 397 2203 397 
Q 2534 397 2845 478 
Q 3156 559 3463 722 
L 3463 178 
Q 3153 47 2828 -22 
Q 2503 -91 2169 -91 
Q 1331 -91 842 396 
Q 353 884 353 1716 
Q 353 2575 817 3079 
Q 1281 3584 2069 3584 
Q 2775 3584 3186 3129 
Q 3597 2675 3597 1894 
z
M 3022 2063 
Q 3016 2534 2758 2815 
Q 2500 3097 2075 3097 
Q 1594 3097 1305 2825 
Q 1016 2553 972 2059 
L 3022 2063 
z
" transform="scale(0.015625)"/>
       <path id="DejaVuSans-61" d="M 2194 1759 
Q 1497 1759 1228 1600 
Q 959 1441 959 1056 
Q 959 750 1161 570 
Q 1363 391 1709 391 
Q 2188 391 2477 730 
Q 2766 1069 2766 1631 
L 2766 1759 
L 2194 1759 
z
M 3341 1997 
L 3341 0 
L 2766 0 
L 2766 531 
Q 2569 213 2275 61 
Q 1981 -91 1556 -91 
Q 1019 -91 701 211 
Q 384 513 384 1019 
Q 384 1609 779 1909 
Q 1175 2209 1959 2209 
L 2766 2209 
L 2766 2266 
Q 2766 2663 2505 2880 
Q 2244 3097 1772 3097 
Q 1472 3097 1187 3025 
Q 903 2953 641 2809 
L 641 3341 
Q 956 3463 1253 3523 
Q 1550 3584 1831 3584 
Q 2591 3584 2966 3190 
Q 3341 2797 3341 1997 
z
" transform="scale(0.015625)"/>
       <path id="DejaVuSans-72" d="M 2631 2963 
Q 2534 3019 2420 3045 
Q 2306 3072 2169 3072 
Q 1681 3072 1420 2755 
Q 1159 2438 1159 1844 
L 1159 0 
L 581 0 
L 581 3500 
L 1159 3500 
L 1159 2956 
Q 1341 3275 1631 3429 
Q 1922 3584 2338 3584 
Q 2397 3584 2469 3576 
Q 2541 3569 2628 3553 
L 2631 2963 
z
" transform="scale(0.015625)"/>
       <path id="DejaVuSans-6e" d="M 3513 2113 
L 3513 0 
L 2938 0 
L 2938 2094 
Q 2938 2591 2744 2837 
Q 2550 3084 2163 3084 
Q 1697 3084 1428 2787 
Q 1159 2491 1159 1978 
L 1159 0 
L 581 0 
L 581 3500 
L 1159 3500 
L 1159 2956 
Q 1366 3272 1645 3428 
Q 1925 3584 2291 3584 
Q 2894 3584 3203 3211 
Q 3513 2838 3513 2113 
z
" transform="scale(0.015625)"/>
       <path id="DejaVuSans-69" d="M 603 3500 
L 1178 3500 
L 1178 0 
L 603 0 
L 603 3500 
z
M 603 4863 
L 1178 4863 
L 1178 4134 
L 603 4134 
L 603 4863 
z
" transform="scale(0.015625)"/>
       <path id="DejaVuSans-67" d="M 2906 1791 
Q 2906 2416 2648 2759 
Q 2391 3103 1925 3103 
Q 1463 3103 1205 2759 
Q 947 2416 947 1791 
Q 947 1169 1205 825 
Q 1463 481 1925 481 
Q 2391 481 2648 825 
Q 2906 1169 2906 1791 
z
M 3481 434 
Q 3481 -459 3084 -895 
Q 2688 -1331 1869 -1331 
Q 1566 -1331 1297 -1286 
Q 1028 -1241 775 -1147 
L 775 -588 
Q 1028 -725 1275 -790 
Q 1522 -856 1778 -856 
Q 2344 -856 2625 -561 
Q 2906 -266 2906 331 
L 2906 616 
Q 2728 306 2450 153 
Q 2172 0 1784 0 
Q 1141 0 747 490 
Q 353 981 353 1791 
Q 353 2603 747 3093 
Q 1141 3584 1784 3584 
Q 2172 3584 2450 3431 
Q 2728 3278 2906 2969 
L 2906 3500 
L 3481 3500 
L 3481 434 
z
" transform="scale(0.015625)"/>
       <path id="DejaVuSans-20" transform="scale(0.015625)"/>
       <path id="DejaVuSans-74" d="M 1172 4494 
L 1172 3500 
L 2356 3500 
L 2356 3053 
L 1172 3053 
L 1172 1153 
Q 1172 725 1289 603 
Q 1406 481 1766 481 
L 2356 481 
L 2356 0 
L 1766 0 
Q 1100 0 847 248 
Q 594 497 594 1153 
L 594 3053 
L 172 3053 
L 172 3500 
L 594 3500 
L 594 4494 
L 1172 4494 
z
" transform="scale(0.015625)"/>
      </defs>
      <use xlink:href="#DejaVuSans-4c"/>
      <use xlink:href="#DejaVuSans-65" x="53.962891"/>
      <use xlink:href="#DejaVuSans-61" x="115.486328"/>
      <use xlink:href="#DejaVuSans-72" x="176.765625"/>
      <use xlink:href="#DejaVuSans-6e" x="216.128906"/>
      <use xlink:href="#DejaVuSans-69" x="279.507812"/>
      <use xlink:href="#DejaVuSans-6e" x="307.291016"/>
      <use xlink:href="#DejaVuSans-67" x="370.669922"/>
      <use xlink:href="#DejaVuSans-20" x="434.146484"/>
      <use xlink:href="#DejaVuSans-72" x="465.933594"/>
      <use xlink:href="#DejaVuSans-61" x="507.046875"/>
      <use xlink:href="#DejaVuSans-74" x="568.326172"/>
      <use xlink:href="#DejaVuSans-65" x="607.535156"/>
     </g>
    </g>
   </g>
   <g id="text_12">
    <!-- 83.9 -->
    <g style="fill: #262626" transform="translate(98.067187 90.98956)scale(0.1 -0.1)">
     <defs>
      <path id="DejaVuSans-33" d="M 2597 2516 
Q 3050 2419 3304 2112 
Q 3559 1806 3559 1356 
Q 3559 666 3084 287 
Q 2609 -91 1734 -91 
Q 1441 -91 1130 -33 
Q 819 25 488 141 
L 488 750 
Q 750 597 1062 519 
Q 1375 441 1716 441 
Q 2309 441 2620 675 
Q 2931 909 2931 1356 
Q 2931 1769 2642 2001 
Q 2353 2234 1838 2234 
L 1294 2234 
L 1294 2753 
L 1863 2753 
Q 2328 2753 2575 2939 
Q 2822 3125 2822 3475 
Q 2822 3834 2567 4026 
Q 2313 4219 1838 4219 
Q 1578 4219 1281 4162 
Q 984 4106 628 3988 
L 628 4550 
Q 988 4650 1302 4700 
Q 1616 4750 1894 4750 
Q 2613 4750 3031 4423 
Q 3450 4097 3450 3541 
Q 3450 3153 3228 2886 
Q 3006 2619 2597 2516 
z
" transform="scale(0.015625)"/>
      <path id="DejaVuSans-39" d="M 703 97 
L 703 672 
Q 941 559 1184 500 
Q 1428 441 1663 441 
Q 2288 441 2617 861 
Q 2947 1281 2994 2138 
Q 2813 1869 2534 1725 
Q 2256 1581 1919 1581 
Q 1219 1581 811 2004 
Q 403 2428 403 3163 
Q 403 3881 828 4315 
Q 1253 4750 1959 4750 
Q 2769 4750 3195 4129 
Q 3622 3509 3622 2328 
Q 3622 1225 3098 567 
Q 2575 -91 1691 -91 
Q 1453 -91 1209 -44 
Q 966 3 703 97 
z
M 1959 2075 
Q 2384 2075 2632 2365 
Q 2881 2656 2881 3163 
Q 2881 3666 2632 3958 
Q 2384 4250 1959 4250 
Q 1534 4250 1286 3958 
Q 1038 3666 1038 3163 
Q 1038 2656 1286 2365 
Q 1534 2075 1959 2075 
z
" transform="scale(0.015625)"/>
     </defs>
     <use xlink:href="#DejaVuSans-38"/>
     <use xlink:href="#DejaVuSans-33" x="63.623047"/>
     <use xlink:href="#DejaVuSans-2e" x="127.246094"/>
     <use xlink:href="#DejaVuSans-39" x="159.033203"/>
    </g>
    <!-- $\pm$2.6 -->
    <g style="fill: #262626" transform="translate(97.05 102.187372)scale(0.1 -0.1)">
     <defs>
      <path id="DejaVuSans-b1" d="M 2944 4013 
L 2944 2803 
L 4684 2803 
L 4684 2272 
L 2944 2272 
L 2944 1063 
L 2419 1063 
L 2419 2272 
L 678 2272 
L 678 2803 
L 2419 2803 
L 2419 4013 
L 2944 4013 
z
M 678 531 
L 4684 531 
L 4684 0 
L 678 0 
L 678 531 
z
" transform="scale(0.015625)"/>
     </defs>
     <use xlink:href="#DejaVuSans-b1" transform="translate(0 0.78125)"/>
     <use xlink:href="#DejaVuSans-32" transform="translate(83.789062 0.78125)"/>
     <use xlink:href="#DejaVuSans-2e" transform="translate(147.412109 0.78125)"/>
     <use xlink:href="#DejaVuSans-36" transform="translate(179.199219 0.78125)"/>
    </g>
   </g>
   <g id="text_13">
    <!-- 86.4 -->
    <g style="fill: #262626" transform="translate(172.467187 90.98956)scale(0.1 -0.1)">
     <use xlink:href="#DejaVuSans-38"/>
     <use xlink:href="#DejaVuSans-36" x="63.623047"/>
     <use xlink:href="#DejaVuSans-2e" x="127.246094"/>
     <use xlink:href="#DejaVuSans-34" x="159.033203"/>
    </g>
    <!-- $\pm$2.1 -->
    <g style="fill: #262626" transform="translate(171.45 102.187372)scale(0.1 -0.1)">
     <use xlink:href="#DejaVuSans-b1" transform="translate(0 0.78125)"/>
     <use xlink:href="#DejaVuSans-32" transform="translate(83.789062 0.78125)"/>
     <use xlink:href="#DejaVuSans-2e" transform="translate(147.412109 0.78125)"/>
     <use xlink:href="#DejaVuSans-31" transform="translate(179.199219 0.78125)"/>
    </g>
   </g>
   <g id="text_14">
    <!-- 87.6 -->
    <g style="fill: #262626" transform="translate(246.867188 90.98956)scale(0.1 -0.1)">
     <defs>
      <path id="DejaVuSans-37" d="M 525 4666 
L 3525 4666 
L 3525 4397 
L 1831 0 
L 1172 0 
L 2766 4134 
L 525 4134 
L 525 4666 
z
" transform="scale(0.015625)"/>
     </defs>
     <use xlink:href="#DejaVuSans-38"/>
     <use xlink:href="#DejaVuSans-37" x="63.623047"/>
     <use xlink:href="#DejaVuSans-2e" x="127.246094"/>
     <use xlink:href="#DejaVuSans-36" x="159.033203"/>
    </g>
    <!-- $\pm$2.4 -->
    <g style="fill: #262626" transform="translate(245.85 102.187372)scale(0.1 -0.1)">
     <use xlink:href="#DejaVuSans-b1" transform="translate(0 0.78125)"/>
     <use xlink:href="#DejaVuSans-32" transform="translate(83.789062 0.78125)"/>
     <use xlink:href="#DejaVuSans-2e" transform="translate(147.412109 0.78125)"/>
     <use xlink:href="#DejaVuSans-34" transform="translate(179.199219 0.78125)"/>
    </g>
   </g>
   <g id="text_15">
    <!-- 88.7 -->
    <g style="fill: #262626" transform="translate(321.267187 90.98956)scale(0.1 -0.1)">
     <use xlink:href="#DejaVuSans-38"/>
     <use xlink:href="#DejaVuSans-38" x="63.623047"/>
     <use xlink:href="#DejaVuSans-2e" x="127.246094"/>
     <use xlink:href="#DejaVuSans-37" x="159.033203"/>
    </g>
    <!-- $\pm$2.6 -->
    <g style="fill: #262626" transform="translate(320.25 102.187372)scale(0.1 -0.1)">
     <use xlink:href="#DejaVuSans-b1" transform="translate(0 0.78125)"/>
     <use xlink:href="#DejaVuSans-32" transform="translate(83.789062 0.78125)"/>
     <use xlink:href="#DejaVuSans-2e" transform="translate(147.412109 0.78125)"/>
     <use xlink:href="#DejaVuSans-36" transform="translate(179.199219 0.78125)"/>
    </g>
   </g>
   <g id="text_16">
    <!-- 88.4 -->
    <g style="fill: #262626" transform="translate(395.667187 90.98956)scale(0.1 -0.1)">
     <use xlink:href="#DejaVuSans-38"/>
     <use xlink:href="#DejaVuSans-38" x="63.623047"/>
     <use xlink:href="#DejaVuSans-2e" x="127.246094"/>
     <use xlink:href="#DejaVuSans-34" x="159.033203"/>
    </g>
    <!-- $\pm$2.2 -->
    <g style="fill: #262626" transform="translate(394.9 102.187372)scale(0.1 -0.1)">
     <use xlink:href="#DejaVuSans-b1" transform="translate(0 0.78125)"/>
     <use xlink:href="#DejaVuSans-32" transform="translate(83.789062 0.78125)"/>
     <use xlink:href="#DejaVuSans-2e" transform="translate(147.412109 0.78125)"/>
     <use xlink:href="#DejaVuSans-32" transform="translate(173.699219 0.78125)"/>
    </g>
   </g>
   <g id="text_17">
    <!-- 88.8 -->
    <g style="fill: #262626" transform="translate(470.067187 90.98956)scale(0.1 -0.1)">
     <use xlink:href="#DejaVuSans-38"/>
     <use xlink:href="#DejaVuSans-38" x="63.623047"/>
     <use xlink:href="#DejaVuSans-2e" x="127.246094"/>
     <use xlink:href="#DejaVuSans-38" x="159.033203"/>
    </g>
    <!-- $\pm$2.4 -->
    <g style="fill: #262626" transform="translate(469.05 102.187372)scale(0.1 -0.1)">
     <use xlink:href="#DejaVuSans-b1" transform="translate(0 0.78125)"/>
     <use xlink:href="#DejaVuSans-32" transform="translate(83.789062 0.78125)"/>
     <use xlink:href="#DejaVuSans-2e" transform="translate(147.412109 0.78125)"/>
     <use xlink:href="#DejaVuSans-34" transform="translate(179.199219 0.78125)"/>
    </g>
   </g>
   <g id="text_18">
    <!-- 83.8 -->
    <g style="fill: #262626" transform="translate(98.067187 140.407741)scale(0.1 -0.1)">
     <use xlink:href="#DejaVuSans-38"/>
     <use xlink:href="#DejaVuSans-33" x="63.623047"/>
     <use xlink:href="#DejaVuSans-2e" x="127.246094"/>
     <use xlink:href="#DejaVuSans-38" x="159.033203"/>
    </g>
    <!-- $\pm$3.0 -->
    <g style="fill: #262626" transform="translate(97.05 151.605554)scale(0.1 -0.1)">
     <use xlink:href="#DejaVuSans-b1" transform="translate(0 0.78125)"/>
     <use xlink:href="#DejaVuSans-33" transform="translate(83.789062 0.78125)"/>
     <use xlink:href="#DejaVuSans-2e" transform="translate(147.412109 0.78125)"/>
     <use xlink:href="#DejaVuSans-30" transform="translate(179.199219 0.78125)"/>
    </g>
   </g>
   <g id="text_19">
    <!-- 85.3 -->
    <g style="fill: #262626" transform="translate(172.467187 140.407741)scale(0.1 -0.1)">
     <use xlink:href="#DejaVuSans-38"/>
     <use xlink:href="#DejaVuSans-35" x="63.623047"/>
     <use xlink:href="#DejaVuSans-2e" x="127.246094"/>
     <use xlink:href="#DejaVuSans-33" x="159.033203"/>
    </g>
    <!-- $\pm$2.9 -->
    <g style="fill: #262626" transform="translate(171.45 151.605554)scale(0.1 -0.1)">
     <use xlink:href="#DejaVuSans-b1" transform="translate(0 0.78125)"/>
     <use xlink:href="#DejaVuSans-32" transform="translate(83.789062 0.78125)"/>
     <use xlink:href="#DejaVuSans-2e" transform="translate(147.412109 0.78125)"/>
     <use xlink:href="#DejaVuSans-39" transform="translate(179.199219 0.78125)"/>
    </g>
   </g>
   <g id="text_20">
    <!-- 86.1 -->
    <g style="fill: #262626" transform="translate(246.867188 140.407741)scale(0.1 -0.1)">
     <use xlink:href="#DejaVuSans-38"/>
     <use xlink:href="#DejaVuSans-36" x="63.623047"/>
     <use xlink:href="#DejaVuSans-2e" x="127.246094"/>
     <use xlink:href="#DejaVuSans-31" x="159.033203"/>
    </g>
    <!-- $\pm$3.1 -->
    <g style="fill: #262626" transform="translate(245.85 151.605554)scale(0.1 -0.1)">
     <use xlink:href="#DejaVuSans-b1" transform="translate(0 0.78125)"/>
     <use xlink:href="#DejaVuSans-33" transform="translate(83.789062 0.78125)"/>
     <use xlink:href="#DejaVuSans-2e" transform="translate(147.412109 0.78125)"/>
     <use xlink:href="#DejaVuSans-31" transform="translate(179.199219 0.78125)"/>
    </g>
   </g>
   <g id="text_21">
    <!-- 85.7 -->
    <g style="fill: #262626" transform="translate(321.267187 140.407741)scale(0.1 -0.1)">
     <use xlink:href="#DejaVuSans-38"/>
     <use xlink:href="#DejaVuSans-35" x="63.623047"/>
     <use xlink:href="#DejaVuSans-2e" x="127.246094"/>
     <use xlink:href="#DejaVuSans-37" x="159.033203"/>
    </g>
    <!-- $\pm$3.1 -->
    <g style="fill: #262626" transform="translate(320.25 151.605554)scale(0.1 -0.1)">
     <use xlink:href="#DejaVuSans-b1" transform="translate(0 0.78125)"/>
     <use xlink:href="#DejaVuSans-33" transform="translate(83.789062 0.78125)"/>
     <use xlink:href="#DejaVuSans-2e" transform="translate(147.412109 0.78125)"/>
     <use xlink:href="#DejaVuSans-31" transform="translate(179.199219 0.78125)"/>
    </g>
   </g>
   <g id="text_22">
    <!-- 85.6 -->
    <g style="fill: #262626" transform="translate(395.667187 140.407741)scale(0.1 -0.1)">
     <use xlink:href="#DejaVuSans-38"/>
     <use xlink:href="#DejaVuSans-35" x="63.623047"/>
     <use xlink:href="#DejaVuSans-2e" x="127.246094"/>
     <use xlink:href="#DejaVuSans-36" x="159.033203"/>
    </g>
    <!-- $\pm$3.6 -->
    <g style="fill: #262626" transform="translate(394.65 151.605554)scale(0.1 -0.1)">
     <use xlink:href="#DejaVuSans-b1" transform="translate(0 0.78125)"/>
     <use xlink:href="#DejaVuSans-33" transform="translate(83.789062 0.78125)"/>
     <use xlink:href="#DejaVuSans-2e" transform="translate(147.412109 0.78125)"/>
     <use xlink:href="#DejaVuSans-36" transform="translate(179.199219 0.78125)"/>
    </g>
   </g>
   <g id="text_23">
    <!-- 85.1 -->
    <g style="fill: #262626" transform="translate(470.067187 140.407741)scale(0.1 -0.1)">
     <use xlink:href="#DejaVuSans-38"/>
     <use xlink:href="#DejaVuSans-35" x="63.623047"/>
     <use xlink:href="#DejaVuSans-2e" x="127.246094"/>
     <use xlink:href="#DejaVuSans-31" x="159.033203"/>
    </g>
    <!-- $\pm$3.0 -->
    <g style="fill: #262626" transform="translate(469.05 151.605554)scale(0.1 -0.1)">
     <use xlink:href="#DejaVuSans-b1" transform="translate(0 0.78125)"/>
     <use xlink:href="#DejaVuSans-33" transform="translate(83.789062 0.78125)"/>
     <use xlink:href="#DejaVuSans-2e" transform="translate(147.412109 0.78125)"/>
     <use xlink:href="#DejaVuSans-30" transform="translate(179.199219 0.78125)"/>
    </g>
   </g>
   <g id="text_24">
    <!-- 82.9 -->
    <g style="fill: #262626" transform="translate(98.067187 189.825923)scale(0.1 -0.1)">
     <use xlink:href="#DejaVuSans-38"/>
     <use xlink:href="#DejaVuSans-32" x="63.623047"/>
     <use xlink:href="#DejaVuSans-2e" x="127.246094"/>
     <use xlink:href="#DejaVuSans-39" x="159.033203"/>
    </g>
    <!-- $\pm$3.1 -->
    <g style="fill: #262626" transform="translate(97.05 201.023736)scale(0.1 -0.1)">
     <use xlink:href="#DejaVuSans-b1" transform="translate(0 0.78125)"/>
     <use xlink:href="#DejaVuSans-33" transform="translate(83.789062 0.78125)"/>
     <use xlink:href="#DejaVuSans-2e" transform="translate(147.412109 0.78125)"/>
     <use xlink:href="#DejaVuSans-31" transform="translate(179.199219 0.78125)"/>
    </g>
   </g>
   <g id="text_25">
    <!-- 84.4 -->
    <g style="fill: #262626" transform="translate(172.467187 189.825923)scale(0.1 -0.1)">
     <use xlink:href="#DejaVuSans-38"/>
     <use xlink:href="#DejaVuSans-34" x="63.623047"/>
     <use xlink:href="#DejaVuSans-2e" x="127.246094"/>
     <use xlink:href="#DejaVuSans-34" x="159.033203"/>
    </g>
    <!-- $\pm$2.6 -->
    <g style="fill: #262626" transform="translate(171.45 201.023736)scale(0.1 -0.1)">
     <use xlink:href="#DejaVuSans-b1" transform="translate(0 0.78125)"/>
     <use xlink:href="#DejaVuSans-32" transform="translate(83.789062 0.78125)"/>
     <use xlink:href="#DejaVuSans-2e" transform="translate(147.412109 0.78125)"/>
     <use xlink:href="#DejaVuSans-36" transform="translate(179.199219 0.78125)"/>
    </g>
   </g>
   <g id="text_26">
    <!-- 84.7 -->
    <g style="fill: #262626" transform="translate(246.867188 189.825923)scale(0.1 -0.1)">
     <use xlink:href="#DejaVuSans-38"/>
     <use xlink:href="#DejaVuSans-34" x="63.623047"/>
     <use xlink:href="#DejaVuSans-2e" x="127.246094"/>
     <use xlink:href="#DejaVuSans-37" x="159.033203"/>
    </g>
    <!-- $\pm$2.4 -->
    <g style="fill: #262626" transform="translate(245.85 201.023736)scale(0.1 -0.1)">
     <use xlink:href="#DejaVuSans-b1" transform="translate(0 0.78125)"/>
     <use xlink:href="#DejaVuSans-32" transform="translate(83.789062 0.78125)"/>
     <use xlink:href="#DejaVuSans-2e" transform="translate(147.412109 0.78125)"/>
     <use xlink:href="#DejaVuSans-34" transform="translate(179.199219 0.78125)"/>
    </g>
   </g>
   <g id="text_27">
    <!-- 85.0 -->
    <g style="fill: #262626" transform="translate(321.267187 189.825923)scale(0.1 -0.1)">
     <use xlink:href="#DejaVuSans-38"/>
     <use xlink:href="#DejaVuSans-35" x="63.623047"/>
     <use xlink:href="#DejaVuSans-2e" x="127.246094"/>
     <use xlink:href="#DejaVuSans-30" x="159.033203"/>
    </g>
    <!-- $\pm$2.3 -->
    <g style="fill: #262626" transform="translate(320.25 201.023736)scale(0.1 -0.1)">
     <use xlink:href="#DejaVuSans-b1" transform="translate(0 0.78125)"/>
     <use xlink:href="#DejaVuSans-32" transform="translate(83.789062 0.78125)"/>
     <use xlink:href="#DejaVuSans-2e" transform="translate(147.412109 0.78125)"/>
     <use xlink:href="#DejaVuSans-33" transform="translate(179.199219 0.78125)"/>
    </g>
   </g>
   <g id="text_28">
    <!-- 85.5 -->
    <g style="fill: #262626" transform="translate(395.667187 189.825923)scale(0.1 -0.1)">
     <use xlink:href="#DejaVuSans-38"/>
     <use xlink:href="#DejaVuSans-35" x="63.623047"/>
     <use xlink:href="#DejaVuSans-2e" x="127.246094"/>
     <use xlink:href="#DejaVuSans-35" x="159.033203"/>
    </g>
    <!-- $\pm$3.0 -->
    <g style="fill: #262626" transform="translate(394.65 201.023736)scale(0.1 -0.1)">
     <use xlink:href="#DejaVuSans-b1" transform="translate(0 0.78125)"/>
     <use xlink:href="#DejaVuSans-33" transform="translate(83.789062 0.78125)"/>
     <use xlink:href="#DejaVuSans-2e" transform="translate(147.412109 0.78125)"/>
     <use xlink:href="#DejaVuSans-30" transform="translate(179.199219 0.78125)"/>
    </g>
   </g>
   <g id="text_29">
    <!-- 85.7 -->
    <g style="fill: #262626" transform="translate(470.067187 189.825923)scale(0.1 -0.1)">
     <use xlink:href="#DejaVuSans-38"/>
     <use xlink:href="#DejaVuSans-35" x="63.623047"/>
     <use xlink:href="#DejaVuSans-2e" x="127.246094"/>
     <use xlink:href="#DejaVuSans-37" x="159.033203"/>
    </g>
    <!-- $\pm$3.0 -->
    <g style="fill: #262626" transform="translate(469.05 201.023736)scale(0.1 -0.1)">
     <use xlink:href="#DejaVuSans-b1" transform="translate(0 0.78125)"/>
     <use xlink:href="#DejaVuSans-33" transform="translate(83.789062 0.78125)"/>
     <use xlink:href="#DejaVuSans-2e" transform="translate(147.412109 0.78125)"/>
     <use xlink:href="#DejaVuSans-30" transform="translate(179.199219 0.78125)"/>
    </g>
   </g>
   <g id="text_30">
    <!-- 74.1 -->
    <g style="fill: #ffffff" transform="translate(98.067187 239.244105)scale(0.1 -0.1)">
     <use xlink:href="#DejaVuSans-37"/>
     <use xlink:href="#DejaVuSans-34" x="63.623047"/>
     <use xlink:href="#DejaVuSans-2e" x="127.246094"/>
     <use xlink:href="#DejaVuSans-31" x="159.033203"/>
    </g>
    <!-- $\pm$3.9 -->
    <g style="fill: #ffffff" transform="translate(97.05 250.441918)scale(0.1 -0.1)">
     <use xlink:href="#DejaVuSans-b1" transform="translate(0 0.78125)"/>
     <use xlink:href="#DejaVuSans-33" transform="translate(83.789062 0.78125)"/>
     <use xlink:href="#DejaVuSans-2e" transform="translate(147.412109 0.78125)"/>
     <use xlink:href="#DejaVuSans-39" transform="translate(179.199219 0.78125)"/>
    </g>
   </g>
   <g id="text_31">
    <!-- 75.5 -->
    <g style="fill: #ffffff" transform="translate(172.467187 239.244105)scale(0.1 -0.1)">
     <use xlink:href="#DejaVuSans-37"/>
     <use xlink:href="#DejaVuSans-35" x="63.623047"/>
     <use xlink:href="#DejaVuSans-2e" x="127.246094"/>
     <use xlink:href="#DejaVuSans-35" x="159.033203"/>
    </g>
    <!-- $\pm$3.7 -->
    <g style="fill: #ffffff" transform="translate(171.8 250.441918)scale(0.1 -0.1)">
     <use xlink:href="#DejaVuSans-b1" transform="translate(0 0.78125)"/>
     <use xlink:href="#DejaVuSans-33" transform="translate(83.789062 0.78125)"/>
     <use xlink:href="#DejaVuSans-2e" transform="translate(147.412109 0.78125)"/>
     <use xlink:href="#DejaVuSans-37" transform="translate(171.449219 0.78125)"/>
    </g>
   </g>
   <g id="text_32">
    <!-- 79.8 -->
    <g style="fill: #ffffff" transform="translate(246.867188 239.244105)scale(0.1 -0.1)">
     <use xlink:href="#DejaVuSans-37"/>
     <use xlink:href="#DejaVuSans-39" x="63.623047"/>
     <use xlink:href="#DejaVuSans-2e" x="127.246094"/>
     <use xlink:href="#DejaVuSans-38" x="159.033203"/>
    </g>
    <!-- $\pm$3.2 -->
    <g style="fill: #ffffff" transform="translate(246.1 250.441918)scale(0.1 -0.1)">
     <use xlink:href="#DejaVuSans-b1" transform="translate(0 0.78125)"/>
     <use xlink:href="#DejaVuSans-33" transform="translate(83.789062 0.78125)"/>
     <use xlink:href="#DejaVuSans-2e" transform="translate(147.412109 0.78125)"/>
     <use xlink:href="#DejaVuSans-32" transform="translate(173.699219 0.78125)"/>
    </g>
   </g>
   <g id="text_33">
    <!-- 82.9 -->
    <g style="fill: #262626" transform="translate(321.267187 239.244105)scale(0.1 -0.1)">
     <use xlink:href="#DejaVuSans-38"/>
     <use xlink:href="#DejaVuSans-32" x="63.623047"/>
     <use xlink:href="#DejaVuSans-2e" x="127.246094"/>
     <use xlink:href="#DejaVuSans-39" x="159.033203"/>
    </g>
    <!-- $\pm$2.9 -->
    <g style="fill: #262626" transform="translate(320.25 250.441918)scale(0.1 -0.1)">
     <use xlink:href="#DejaVuSans-b1" transform="translate(0 0.78125)"/>
     <use xlink:href="#DejaVuSans-32" transform="translate(83.789062 0.78125)"/>
     <use xlink:href="#DejaVuSans-2e" transform="translate(147.412109 0.78125)"/>
     <use xlink:href="#DejaVuSans-39" transform="translate(179.199219 0.78125)"/>
    </g>
   </g>
   <g id="text_34">
    <!-- 84.4 -->
    <g style="fill: #262626" transform="translate(395.667187 239.244105)scale(0.1 -0.1)">
     <use xlink:href="#DejaVuSans-38"/>
     <use xlink:href="#DejaVuSans-34" x="63.623047"/>
     <use xlink:href="#DejaVuSans-2e" x="127.246094"/>
     <use xlink:href="#DejaVuSans-34" x="159.033203"/>
    </g>
    <!-- $\pm$2.9 -->
    <g style="fill: #262626" transform="translate(394.65 250.441918)scale(0.1 -0.1)">
     <use xlink:href="#DejaVuSans-b1" transform="translate(0 0.78125)"/>
     <use xlink:href="#DejaVuSans-32" transform="translate(83.789062 0.78125)"/>
     <use xlink:href="#DejaVuSans-2e" transform="translate(147.412109 0.78125)"/>
     <use xlink:href="#DejaVuSans-39" transform="translate(179.199219 0.78125)"/>
    </g>
   </g>
   <g id="text_35">
    <!-- 84.4 -->
    <g style="fill: #262626" transform="translate(470.067187 239.244105)scale(0.1 -0.1)">
     <use xlink:href="#DejaVuSans-38"/>
     <use xlink:href="#DejaVuSans-34" x="63.623047"/>
     <use xlink:href="#DejaVuSans-2e" x="127.246094"/>
     <use xlink:href="#DejaVuSans-34" x="159.033203"/>
    </g>
    <!-- $\pm$3.0 -->
    <g style="fill: #262626" transform="translate(469.05 250.441918)scale(0.1 -0.1)">
     <use xlink:href="#DejaVuSans-b1" transform="translate(0 0.78125)"/>
     <use xlink:href="#DejaVuSans-33" transform="translate(83.789062 0.78125)"/>
     <use xlink:href="#DejaVuSans-2e" transform="translate(147.412109 0.78125)"/>
     <use xlink:href="#DejaVuSans-30" transform="translate(179.199219 0.78125)"/>
    </g>
   </g>
   <g id="text_36">
    <!-- Test accuracy: mean $\pm$ standard deviation -->
    <g transform="translate(167.04 63.12)scale(0.12 -0.12)">
     <defs>
      <path id="DejaVuSans-54" d="M -19 4666 
L 3928 4666 
L 3928 4134 
L 2272 4134 
L 2272 0 
L 1638 0 
L 1638 4134 
L -19 4134 
L -19 4666 
z
" transform="scale(0.015625)"/>
      <path id="DejaVuSans-73" d="M 2834 3397 
L 2834 2853 
Q 2591 2978 2328 3040 
Q 2066 3103 1784 3103 
Q 1356 3103 1142 2972 
Q 928 2841 928 2578 
Q 928 2378 1081 2264 
Q 1234 2150 1697 2047 
L 1894 2003 
Q 2506 1872 2764 1633 
Q 3022 1394 3022 966 
Q 3022 478 2636 193 
Q 2250 -91 1575 -91 
Q 1294 -91 989 -36 
Q 684 19 347 128 
L 347 722 
Q 666 556 975 473 
Q 1284 391 1588 391 
Q 1994 391 2212 530 
Q 2431 669 2431 922 
Q 2431 1156 2273 1281 
Q 2116 1406 1581 1522 
L 1381 1569 
Q 847 1681 609 1914 
Q 372 2147 372 2553 
Q 372 3047 722 3315 
Q 1072 3584 1716 3584 
Q 2034 3584 2315 3537 
Q 2597 3491 2834 3397 
z
" transform="scale(0.015625)"/>
      <path id="DejaVuSans-63" d="M 3122 3366 
L 3122 2828 
Q 2878 2963 2633 3030 
Q 2388 3097 2138 3097 
Q 1578 3097 1268 2742 
Q 959 2388 959 1747 
Q 959 1106 1268 751 
Q 1578 397 2138 397 
Q 2388 397 2633 464 
Q 2878 531 3122 666 
L 3122 134 
Q 2881 22 2623 -34 
Q 2366 -91 2075 -91 
Q 1284 -91 818 406 
Q 353 903 353 1747 
Q 353 2603 823 3093 
Q 1294 3584 2113 3584 
Q 2378 3584 2631 3529 
Q 2884 3475 3122 3366 
z
" transform="scale(0.015625)"/>
      <path id="DejaVuSans-75" d="M 544 1381 
L 544 3500 
L 1119 3500 
L 1119 1403 
Q 1119 906 1312 657 
Q 1506 409 1894 409 
Q 2359 409 2629 706 
Q 2900 1003 2900 1516 
L 2900 3500 
L 3475 3500 
L 3475 0 
L 2900 0 
L 2900 538 
Q 2691 219 2414 64 
Q 2138 -91 1772 -91 
Q 1169 -91 856 284 
Q 544 659 544 1381 
z
M 1991 3584 
L 1991 3584 
z
" transform="scale(0.015625)"/>
      <path id="DejaVuSans-79" d="M 2059 -325 
Q 1816 -950 1584 -1140 
Q 1353 -1331 966 -1331 
L 506 -1331 
L 506 -850 
L 844 -850 
Q 1081 -850 1212 -737 
Q 1344 -625 1503 -206 
L 1606 56 
L 191 3500 
L 800 3500 
L 1894 763 
L 2988 3500 
L 3597 3500 
L 2059 -325 
z
" transform="scale(0.015625)"/>
      <path id="DejaVuSans-3a" d="M 750 794 
L 1409 794 
L 1409 0 
L 750 0 
L 750 794 
z
M 750 3309 
L 1409 3309 
L 1409 2516 
L 750 2516 
L 750 3309 
z
" transform="scale(0.015625)"/>
      <path id="DejaVuSans-6d" d="M 3328 2828 
Q 3544 3216 3844 3400 
Q 4144 3584 4550 3584 
Q 5097 3584 5394 3201 
Q 5691 2819 5691 2113 
L 5691 0 
L 5113 0 
L 5113 2094 
Q 5113 2597 4934 2840 
Q 4756 3084 4391 3084 
Q 3944 3084 3684 2787 
Q 3425 2491 3425 1978 
L 3425 0 
L 2847 0 
L 2847 2094 
Q 2847 2600 2669 2842 
Q 2491 3084 2119 3084 
Q 1678 3084 1418 2786 
Q 1159 2488 1159 1978 
L 1159 0 
L 581 0 
L 581 3500 
L 1159 3500 
L 1159 2956 
Q 1356 3278 1631 3431 
Q 1906 3584 2284 3584 
Q 2666 3584 2933 3390 
Q 3200 3197 3328 2828 
z
" transform="scale(0.015625)"/>
      <path id="DejaVuSans-64" d="M 2906 2969 
L 2906 4863 
L 3481 4863 
L 3481 0 
L 2906 0 
L 2906 525 
Q 2725 213 2448 61 
Q 2172 -91 1784 -91 
Q 1150 -91 751 415 
Q 353 922 353 1747 
Q 353 2572 751 3078 
Q 1150 3584 1784 3584 
Q 2172 3584 2448 3432 
Q 2725 3281 2906 2969 
z
M 947 1747 
Q 947 1113 1208 752 
Q 1469 391 1925 391 
Q 2381 391 2643 752 
Q 2906 1113 2906 1747 
Q 2906 2381 2643 2742 
Q 2381 3103 1925 3103 
Q 1469 3103 1208 2742 
Q 947 2381 947 1747 
z
" transform="scale(0.015625)"/>
      <path id="DejaVuSans-76" d="M 191 3500 
L 800 3500 
L 1894 563 
L 2988 3500 
L 3597 3500 
L 2284 0 
L 1503 0 
L 191 3500 
z
" transform="scale(0.015625)"/>
      <path id="DejaVuSans-6f" d="M 1959 3097 
Q 1497 3097 1228 2736 
Q 959 2375 959 1747 
Q 959 1119 1226 758 
Q 1494 397 1959 397 
Q 2419 397 2687 759 
Q 2956 1122 2956 1747 
Q 2956 2369 2687 2733 
Q 2419 3097 1959 3097 
z
M 1959 3584 
Q 2709 3584 3137 3096 
Q 3566 2609 3566 1747 
Q 3566 888 3137 398 
Q 2709 -91 1959 -91 
Q 1206 -91 779 398 
Q 353 888 353 1747 
Q 353 2609 779 3096 
Q 1206 3584 1959 3584 
z
" transform="scale(0.015625)"/>
     </defs>
     <use xlink:href="#DejaVuSans-54" transform="translate(0 0.015625)"/>
     <use xlink:href="#DejaVuSans-65" transform="translate(61.083984 0.015625)"/>
     <use xlink:href="#DejaVuSans-73" transform="translate(122.607422 0.015625)"/>
     <use xlink:href="#DejaVuSans-74" transform="translate(174.707031 0.015625)"/>
     <use xlink:href="#DejaVuSans-20" transform="translate(213.916016 0.015625)"/>
     <use xlink:href="#DejaVuSans-61" transform="translate(245.703125 0.015625)"/>
     <use xlink:href="#DejaVuSans-63" transform="translate(306.982422 0.015625)"/>
     <use xlink:href="#DejaVuSans-63" transform="translate(361.962891 0.015625)"/>
     <use xlink:href="#DejaVuSans-75" transform="translate(416.943359 0.015625)"/>
     <use xlink:href="#DejaVuSans-72" transform="translate(480.322266 0.015625)"/>
     <use xlink:href="#DejaVuSans-61" transform="translate(521.435547 0.015625)"/>
     <use xlink:href="#DejaVuSans-63" transform="translate(582.714844 0.015625)"/>
     <use xlink:href="#DejaVuSans-79" transform="translate(637.695312 0.015625)"/>
     <use xlink:href="#DejaVuSans-3a" transform="translate(696.875 0.015625)"/>
     <use xlink:href="#DejaVuSans-20" transform="translate(730.566406 0.015625)"/>
     <use xlink:href="#DejaVuSans-6d" transform="translate(762.353516 0.015625)"/>
     <use xlink:href="#DejaVuSans-65" transform="translate(859.765625 0.015625)"/>
     <use xlink:href="#DejaVuSans-61" transform="translate(921.289062 0.015625)"/>
     <use xlink:href="#DejaVuSans-6e" transform="translate(982.568359 0.015625)"/>
     <use xlink:href="#DejaVuSans-20" transform="translate(1045.947266 0.015625)"/>
     <use xlink:href="#DejaVuSans-b1" transform="translate(1077.734375 0.015625)"/>
     <use xlink:href="#DejaVuSans-20" transform="translate(1161.523438 0.015625)"/>
     <use xlink:href="#DejaVuSans-73" transform="translate(1193.310547 0.015625)"/>
     <use xlink:href="#DejaVuSans-74" transform="translate(1245.410156 0.015625)"/>
     <use xlink:href="#DejaVuSans-61" transform="translate(1284.619141 0.015625)"/>
     <use xlink:href="#DejaVuSans-6e" transform="translate(1345.898438 0.015625)"/>
     <use xlink:href="#DejaVuSans-64" transform="translate(1409.277344 0.015625)"/>
     <use xlink:href="#DejaVuSans-61" transform="translate(1472.753906 0.015625)"/>
     <use xlink:href="#DejaVuSans-72" transform="translate(1534.033203 0.015625)"/>
     <use xlink:href="#DejaVuSans-64" transform="translate(1575.146484 0.015625)"/>
     <use xlink:href="#DejaVuSans-20" transform="translate(1638.623047 0.015625)"/>
     <use xlink:href="#DejaVuSans-64" transform="translate(1670.410156 0.015625)"/>
     <use xlink:href="#DejaVuSans-65" transform="translate(1733.886719 0.015625)"/>
     <use xlink:href="#DejaVuSans-76" transform="translate(1795.410156 0.015625)"/>
     <use xlink:href="#DejaVuSans-69" transform="translate(1854.589844 0.015625)"/>
     <use xlink:href="#DejaVuSans-61" transform="translate(1882.373047 0.015625)"/>
     <use xlink:href="#DejaVuSans-74" transform="translate(1943.652344 0.015625)"/>
     <use xlink:href="#DejaVuSans-69" transform="translate(1982.861328 0.015625)"/>
     <use xlink:href="#DejaVuSans-6f" transform="translate(2010.644531 0.015625)"/>
     <use xlink:href="#DejaVuSans-6e" transform="translate(2071.826172 0.015625)"/>
    </g>
   </g>
  </g>
  <g id="axes_2">
   <g id="patch_3">
    <path d="M 72 504 
L 518.4 504 
L 518.4 306.327273 
L 72 306.327273 
z
" style="fill: #ffffff"/>
   </g>
   <g id="QuadMesh_2">
    <path d="M 72 306.327273 
L 146.4 306.327273 
L 146.4 355.745455 
L 72 355.745455 
L 72 306.327273 
" clip-path="url(#p6b831ce2b3)" style="fill: #faebdd"/>
    <path d="M 146.4 306.327273 
L 220.8 306.327273 
L 220.8 355.745455 
L 146.4 355.745455 
L 146.4 306.327273 
" clip-path="url(#p6b831ce2b3)" style="fill: #faebdd"/>
    <path d="M 220.8 306.327273 
L 295.2 306.327273 
L 295.2 355.745455 
L 220.8 355.745455 
L 220.8 306.327273 
" clip-path="url(#p6b831ce2b3)" style="fill: #faebdd"/>
    <path d="M 295.2 306.327273 
L 369.6 306.327273 
L 369.6 355.745455 
L 295.2 355.745455 
L 295.2 306.327273 
" clip-path="url(#p6b831ce2b3)" style="fill: #faebdd"/>
    <path d="M 369.6 306.327273 
L 444 306.327273 
L 444 355.745455 
L 369.6 355.745455 
L 369.6 306.327273 
" clip-path="url(#p6b831ce2b3)" style="fill: #faebdd"/>
    <path d="M 444 306.327273 
L 518.4 306.327273 
L 518.4 355.745455 
L 444 355.745455 
L 444 306.327273 
" clip-path="url(#p6b831ce2b3)" style="fill: #faebdd"/>
    <path d="M 72 355.745455 
L 146.4 355.745455 
L 146.4 405.163636 
L 72 405.163636 
L 72 355.745455 
" clip-path="url(#p6b831ce2b3)" style="fill: #faebdd"/>
    <path d="M 146.4 355.745455 
L 220.8 355.745455 
L 220.8 405.163636 
L 146.4 405.163636 
L 146.4 355.745455 
" clip-path="url(#p6b831ce2b3)" style="fill: #faebdd"/>
    <path d="M 220.8 355.745455 
L 295.2 355.745455 
L 295.2 405.163636 
L 220.8 405.163636 
L 220.8 355.745455 
" clip-path="url(#p6b831ce2b3)" style="fill: #faebdd"/>
    <path d="M 295.2 355.745455 
L 369.6 355.745455 
L 369.6 405.163636 
L 295.2 405.163636 
L 295.2 355.745455 
" clip-path="url(#p6b831ce2b3)" style="fill: #faebdd"/>
    <path d="M 369.6 355.745455 
L 444 355.745455 
L 444 405.163636 
L 369.6 405.163636 
L 369.6 355.745455 
" clip-path="url(#p6b831ce2b3)" style="fill: #faebdd"/>
    <path d="M 444 355.745455 
L 518.4 355.745455 
L 518.4 405.163636 
L 444 405.163636 
L 444 355.745455 
" clip-path="url(#p6b831ce2b3)" style="fill: #faebdd"/>
    <path d="M 72 405.163636 
L 146.4 405.163636 
L 146.4 454.581818 
L 72 454.581818 
L 72 405.163636 
" clip-path="url(#p6b831ce2b3)" style="fill: #faebdd"/>
    <path d="M 146.4 405.163636 
L 220.8 405.163636 
L 220.8 454.581818 
L 146.4 454.581818 
L 146.4 405.163636 
" clip-path="url(#p6b831ce2b3)" style="fill: #faebdd"/>
    <path d="M 220.8 405.163636 
L 295.2 405.163636 
L 295.2 454.581818 
L 220.8 454.581818 
L 220.8 405.163636 
" clip-path="url(#p6b831ce2b3)" style="fill: #faebdd"/>
    <path d="M 295.2 405.163636 
L 369.6 405.163636 
L 369.6 454.581818 
L 295.2 454.581818 
L 295.2 405.163636 
" clip-path="url(#p6b831ce2b3)" style="fill: #faebdd"/>
    <path d="M 369.6 405.163636 
L 444 405.163636 
L 444 454.581818 
L 369.6 454.581818 
L 369.6 405.163636 
" clip-path="url(#p6b831ce2b3)" style="fill: #faebdd"/>
    <path d="M 444 405.163636 
L 518.4 405.163636 
L 518.4 454.581818 
L 444 454.581818 
L 444 405.163636 
" clip-path="url(#p6b831ce2b3)" style="fill: #faebdd"/>
    <path d="M 72 454.581818 
L 146.4 454.581818 
L 146.4 504 
L 72 504 
L 72 454.581818 
" clip-path="url(#p6b831ce2b3)" style="fill: #f6ab83"/>
    <path d="M 146.4 454.581818 
L 220.8 454.581818 
L 220.8 504 
L 146.4 504 
L 146.4 454.581818 
" clip-path="url(#p6b831ce2b3)" style="fill: #f6be9b"/>
    <path d="M 220.8 454.581818 
L 295.2 454.581818 
L 295.2 504 
L 220.8 504 
L 220.8 454.581818 
" clip-path="url(#p6b831ce2b3)" style="fill: #fae6d6"/>
    <path d="M 295.2 454.581818 
L 369.6 454.581818 
L 369.6 504 
L 295.2 504 
L 295.2 454.581818 
" clip-path="url(#p6b831ce2b3)" style="fill: #faebdd"/>
    <path d="M 369.6 454.581818 
L 444 454.581818 
L 444 504 
L 369.6 504 
L 369.6 454.581818 
" clip-path="url(#p6b831ce2b3)" style="fill: #faebdd"/>
    <path d="M 444 454.581818 
L 518.4 454.581818 
L 518.4 504 
L 444 504 
L 444 454.581818 
" clip-path="url(#p6b831ce2b3)" style="fill: #faebdd"/>
   </g>
   <g id="matplotlib.axis_3">
    <g id="xtick_7">
     <g id="line2d_11">
      <g>
       <use xlink:href="#m42b79b50b4" x="109.2" y="504" style="stroke: #000000; stroke-width: 0.8"/>
      </g>
     </g>
     <g id="text_37">
      <!-- 50 -->
      <g transform="translate(102.8375 518.598437)scale(0.1 -0.1)">
       <use xlink:href="#DejaVuSans-35"/>
       <use xlink:href="#DejaVuSans-30" x="63.623047"/>
      </g>
     </g>
    </g>
    <g id="xtick_8">
     <g id="line2d_12">
      <g>
       <use xlink:href="#m42b79b50b4" x="183.6" y="504" style="stroke: #000000; stroke-width: 0.8"/>
      </g>
     </g>
     <g id="text_38">
      <!-- 100 -->
      <g transform="translate(174.05625 518.598437)scale(0.1 -0.1)">
       <use xlink:href="#DejaVuSans-31"/>
       <use xlink:href="#DejaVuSans-30" x="63.623047"/>
       <use xlink:href="#DejaVuSans-30" x="127.246094"/>
      </g>
     </g>
    </g>
    <g id="xtick_9">
     <g id="line2d_13">
      <g>
       <use xlink:href="#m42b79b50b4" x="258" y="504" style="stroke: #000000; stroke-width: 0.8"/>
      </g>
     </g>
     <g id="text_39">
      <!-- 200 -->
      <g transform="translate(248.45625 518.598437)scale(0.1 -0.1)">
       <use xlink:href="#DejaVuSans-32"/>
       <use xlink:href="#DejaVuSans-30" x="63.623047"/>
       <use xlink:href="#DejaVuSans-30" x="127.246094"/>
      </g>
     </g>
    </g>
    <g id="xtick_10">
     <g id="line2d_14">
      <g>
       <use xlink:href="#m42b79b50b4" x="332.4" y="504" style="stroke: #000000; stroke-width: 0.8"/>
      </g>
     </g>
     <g id="text_40">
      <!-- 400 -->
      <g transform="translate(322.85625 518.598437)scale(0.1 -0.1)">
       <use xlink:href="#DejaVuSans-34"/>
       <use xlink:href="#DejaVuSans-30" x="63.623047"/>
       <use xlink:href="#DejaVuSans-30" x="127.246094"/>
      </g>
     </g>
    </g>
    <g id="xtick_11">
     <g id="line2d_15">
      <g>
       <use xlink:href="#m42b79b50b4" x="406.8" y="504" style="stroke: #000000; stroke-width: 0.8"/>
      </g>
     </g>
     <g id="text_41">
      <!-- 800 -->
      <g transform="translate(397.25625 518.598437)scale(0.1 -0.1)">
       <use xlink:href="#DejaVuSans-38"/>
       <use xlink:href="#DejaVuSans-30" x="63.623047"/>
       <use xlink:href="#DejaVuSans-30" x="127.246094"/>
      </g>
     </g>
    </g>
    <g id="xtick_12">
     <g id="line2d_16">
      <g>
       <use xlink:href="#m42b79b50b4" x="481.2" y="504" style="stroke: #000000; stroke-width: 0.8"/>
      </g>
     </g>
     <g id="text_42">
      <!-- 1600 -->
      <g transform="translate(468.475 518.598437)scale(0.1 -0.1)">
       <use xlink:href="#DejaVuSans-31"/>
       <use xlink:href="#DejaVuSans-36" x="63.623047"/>
       <use xlink:href="#DejaVuSans-30" x="127.246094"/>
       <use xlink:href="#DejaVuSans-30" x="190.869141"/>
      </g>
     </g>
    </g>
    <g id="text_43">
     <!-- Number of estimators -->
     <g transform="translate(240.471875 532.276562)scale(0.1 -0.1)">
      <defs>
       <path id="DejaVuSans-4e" d="M 628 4666 
L 1478 4666 
L 3547 763 
L 3547 4666 
L 4159 4666 
L 4159 0 
L 3309 0 
L 1241 3903 
L 1241 0 
L 628 0 
L 628 4666 
z
" transform="scale(0.015625)"/>
       <path id="DejaVuSans-62" d="M 3116 1747 
Q 3116 2381 2855 2742 
Q 2594 3103 2138 3103 
Q 1681 3103 1420 2742 
Q 1159 2381 1159 1747 
Q 1159 1113 1420 752 
Q 1681 391 2138 391 
Q 2594 391 2855 752 
Q 3116 1113 3116 1747 
z
M 1159 2969 
Q 1341 3281 1617 3432 
Q 1894 3584 2278 3584 
Q 2916 3584 3314 3078 
Q 3713 2572 3713 1747 
Q 3713 922 3314 415 
Q 2916 -91 2278 -91 
Q 1894 -91 1617 61 
Q 1341 213 1159 525 
L 1159 0 
L 581 0 
L 581 4863 
L 1159 4863 
L 1159 2969 
z
" transform="scale(0.015625)"/>
       <path id="DejaVuSans-66" d="M 2375 4863 
L 2375 4384 
L 1825 4384 
Q 1516 4384 1395 4259 
Q 1275 4134 1275 3809 
L 1275 3500 
L 2222 3500 
L 2222 3053 
L 1275 3053 
L 1275 0 
L 697 0 
L 697 3053 
L 147 3053 
L 147 3500 
L 697 3500 
L 697 3744 
Q 697 4328 969 4595 
Q 1241 4863 1831 4863 
L 2375 4863 
z
" transform="scale(0.015625)"/>
      </defs>
      <use xlink:href="#DejaVuSans-4e"/>
      <use xlink:href="#DejaVuSans-75" x="74.804688"/>
      <use xlink:href="#DejaVuSans-6d" x="138.183594"/>
      <use xlink:href="#DejaVuSans-62" x="235.595703"/>
      <use xlink:href="#DejaVuSans-65" x="299.072266"/>
      <use xlink:href="#DejaVuSans-72" x="360.595703"/>
      <use xlink:href="#DejaVuSans-20" x="401.708984"/>
      <use xlink:href="#DejaVuSans-6f" x="433.496094"/>
      <use xlink:href="#DejaVuSans-66" x="494.677734"/>
      <use xlink:href="#DejaVuSans-20" x="529.882812"/>
      <use xlink:href="#DejaVuSans-65" x="561.669922"/>
      <use xlink:href="#DejaVuSans-73" x="623.193359"/>
      <use xlink:href="#DejaVuSans-74" x="675.292969"/>
      <use xlink:href="#DejaVuSans-69" x="714.501953"/>
      <use xlink:href="#DejaVuSans-6d" x="742.285156"/>
      <use xlink:href="#DejaVuSans-61" x="839.697266"/>
      <use xlink:href="#DejaVuSans-74" x="900.976562"/>
      <use xlink:href="#DejaVuSans-6f" x="940.185547"/>
      <use xlink:href="#DejaVuSans-72" x="1001.367188"/>
      <use xlink:href="#DejaVuSans-73" x="1042.480469"/>
     </g>
    </g>
   </g>
   <g id="matplotlib.axis_4">
    <g id="ytick_5">
     <g id="line2d_17">
      <g>
       <use xlink:href="#mee37d14349" x="72" y="331.036364" style="stroke: #000000; stroke-width: 0.8"/>
      </g>
     </g>
     <g id="text_44">
      <!-- 1.0 -->
      <g transform="translate(62.920312 338.987926)rotate(-90)scale(0.1 -0.1)">
       <use xlink:href="#DejaVuSans-31"/>
       <use xlink:href="#DejaVuSans-2e" x="63.623047"/>
       <use xlink:href="#DejaVuSans-30" x="95.410156"/>
      </g>
     </g>
    </g>
    <g id="ytick_6">
     <g id="line2d_18">
      <g>
       <use xlink:href="#mee37d14349" x="72" y="380.454545" style="stroke: #000000; stroke-width: 0.8"/>
      </g>
     </g>
     <g id="text_45">
      <!-- 0.1 -->
      <g transform="translate(62.920312 388.406108)rotate(-90)scale(0.1 -0.1)">
       <use xlink:href="#DejaVuSans-30"/>
       <use xlink:href="#DejaVuSans-2e" x="63.623047"/>
       <use xlink:href="#DejaVuSans-31" x="95.410156"/>
      </g>
     </g>
    </g>
    <g id="ytick_7">
     <g id="line2d_19">
      <g>
       <use xlink:href="#mee37d14349" x="72" y="429.872727" style="stroke: #000000; stroke-width: 0.8"/>
      </g>
     </g>
     <g id="text_46">
      <!-- 0.01 -->
      <g transform="translate(62.920312 441.00554)rotate(-90)scale(0.1 -0.1)">
       <use xlink:href="#DejaVuSans-30"/>
       <use xlink:href="#DejaVuSans-2e" x="63.623047"/>
       <use xlink:href="#DejaVuSans-30" x="95.410156"/>
       <use xlink:href="#DejaVuSans-31" x="159.033203"/>
      </g>
     </g>
    </g>
    <g id="ytick_8">
     <g id="line2d_20">
      <g>
       <use xlink:href="#mee37d14349" x="72" y="479.290909" style="stroke: #000000; stroke-width: 0.8"/>
      </g>
     </g>
     <g id="text_47">
      <!-- 0.001 -->
      <g transform="translate(62.920312 493.604972)rotate(-90)scale(0.1 -0.1)">
       <use xlink:href="#DejaVuSans-30"/>
       <use xlink:href="#DejaVuSans-2e" x="63.623047"/>
       <use xlink:href="#DejaVuSans-30" x="95.410156"/>
       <use xlink:href="#DejaVuSans-30" x="159.033203"/>
       <use xlink:href="#DejaVuSans-31" x="222.65625"/>
      </g>
     </g>
    </g>
    <g id="text_48">
     <!-- Learning rate -->
     <g transform="translate(49.242188 438.616761)rotate(-90)scale(0.1 -0.1)">
      <use xlink:href="#DejaVuSans-4c"/>
      <use xlink:href="#DejaVuSans-65" x="53.962891"/>
      <use xlink:href="#DejaVuSans-61" x="115.486328"/>
      <use xlink:href="#DejaVuSans-72" x="176.765625"/>
      <use xlink:href="#DejaVuSans-6e" x="216.128906"/>
      <use xlink:href="#DejaVuSans-69" x="279.507812"/>
      <use xlink:href="#DejaVuSans-6e" x="307.291016"/>
      <use xlink:href="#DejaVuSans-67" x="370.669922"/>
      <use xlink:href="#DejaVuSans-20" x="434.146484"/>
      <use xlink:href="#DejaVuSans-72" x="465.933594"/>
      <use xlink:href="#DejaVuSans-61" x="507.046875"/>
      <use xlink:href="#DejaVuSans-74" x="568.326172"/>
      <use xlink:href="#DejaVuSans-65" x="607.535156"/>
     </g>
    </g>
   </g>
   <g id="text_49">
    <!-- 99.6 -->
    <g style="fill: #262626" transform="translate(98.067187 328.196832)scale(0.1 -0.1)">
     <use xlink:href="#DejaVuSans-39"/>
     <use xlink:href="#DejaVuSans-39" x="63.623047"/>
     <use xlink:href="#DejaVuSans-2e" x="127.246094"/>
     <use xlink:href="#DejaVuSans-36" x="159.033203"/>
    </g>
    <!-- $\pm$0.2 -->
    <g style="fill: #262626" transform="translate(97.3 339.394645)scale(0.1 -0.1)">
     <use xlink:href="#DejaVuSans-b1" transform="translate(0 0.78125)"/>
     <use xlink:href="#DejaVuSans-30" transform="translate(83.789062 0.78125)"/>
     <use xlink:href="#DejaVuSans-2e" transform="translate(147.412109 0.78125)"/>
     <use xlink:href="#DejaVuSans-32" transform="translate(173.699219 0.78125)"/>
    </g>
   </g>
   <g id="text_50">
    <!-- 99.9 -->
    <g style="fill: #262626" transform="translate(172.467187 328.196832)scale(0.1 -0.1)">
     <use xlink:href="#DejaVuSans-39"/>
     <use xlink:href="#DejaVuSans-39" x="63.623047"/>
     <use xlink:href="#DejaVuSans-2e" x="127.246094"/>
     <use xlink:href="#DejaVuSans-39" x="159.033203"/>
    </g>
    <!-- $\pm$0.1 -->
    <g style="fill: #262626" transform="translate(171.45 339.394645)scale(0.1 -0.1)">
     <use xlink:href="#DejaVuSans-b1" transform="translate(0 0.78125)"/>
     <use xlink:href="#DejaVuSans-30" transform="translate(83.789062 0.78125)"/>
     <use xlink:href="#DejaVuSans-2e" transform="translate(147.412109 0.78125)"/>
     <use xlink:href="#DejaVuSans-31" transform="translate(179.199219 0.78125)"/>
    </g>
   </g>
   <g id="text_51">
    <!-- 99.9 -->
    <g style="fill: #262626" transform="translate(246.867188 328.196832)scale(0.1 -0.1)">
     <use xlink:href="#DejaVuSans-39"/>
     <use xlink:href="#DejaVuSans-39" x="63.623047"/>
     <use xlink:href="#DejaVuSans-2e" x="127.246094"/>
     <use xlink:href="#DejaVuSans-39" x="159.033203"/>
    </g>
    <!-- $\pm$0.1 -->
    <g style="fill: #262626" transform="translate(245.85 339.394645)scale(0.1 -0.1)">
     <use xlink:href="#DejaVuSans-b1" transform="translate(0 0.78125)"/>
     <use xlink:href="#DejaVuSans-30" transform="translate(83.789062 0.78125)"/>
     <use xlink:href="#DejaVuSans-2e" transform="translate(147.412109 0.78125)"/>
     <use xlink:href="#DejaVuSans-31" transform="translate(179.199219 0.78125)"/>
    </g>
   </g>
   <g id="text_52">
    <!-- 100.0 -->
    <g style="fill: #262626" transform="translate(318.085938 328.196832)scale(0.1 -0.1)">
     <use xlink:href="#DejaVuSans-31"/>
     <use xlink:href="#DejaVuSans-30" x="63.623047"/>
     <use xlink:href="#DejaVuSans-30" x="127.246094"/>
     <use xlink:href="#DejaVuSans-2e" x="190.869141"/>
     <use xlink:href="#DejaVuSans-30" x="222.65625"/>
    </g>
    <!-- $\pm$0.0 -->
    <g style="fill: #262626" transform="translate(320.25 339.394645)scale(0.1 -0.1)">
     <use xlink:href="#DejaVuSans-b1" transform="translate(0 0.78125)"/>
     <use xlink:href="#DejaVuSans-30" transform="translate(83.789062 0.78125)"/>
     <use xlink:href="#DejaVuSans-2e" transform="translate(147.412109 0.78125)"/>
     <use xlink:href="#DejaVuSans-30" transform="translate(179.199219 0.78125)"/>
    </g>
   </g>
   <g id="text_53">
    <!-- 100.0 -->
    <g style="fill: #262626" transform="translate(392.485937 328.196832)scale(0.1 -0.1)">
     <use xlink:href="#DejaVuSans-31"/>
     <use xlink:href="#DejaVuSans-30" x="63.623047"/>
     <use xlink:href="#DejaVuSans-30" x="127.246094"/>
     <use xlink:href="#DejaVuSans-2e" x="190.869141"/>
     <use xlink:href="#DejaVuSans-30" x="222.65625"/>
    </g>
    <!-- $\pm$0.0 -->
    <g style="fill: #262626" transform="translate(394.65 339.394645)scale(0.1 -0.1)">
     <use xlink:href="#DejaVuSans-b1" transform="translate(0 0.78125)"/>
     <use xlink:href="#DejaVuSans-30" transform="translate(83.789062 0.78125)"/>
     <use xlink:href="#DejaVuSans-2e" transform="translate(147.412109 0.78125)"/>
     <use xlink:href="#DejaVuSans-30" transform="translate(179.199219 0.78125)"/>
    </g>
   </g>
   <g id="text_54">
    <!-- 100.0 -->
    <g style="fill: #262626" transform="translate(466.885937 328.196832)scale(0.1 -0.1)">
     <use xlink:href="#DejaVuSans-31"/>
     <use xlink:href="#DejaVuSans-30" x="63.623047"/>
     <use xlink:href="#DejaVuSans-30" x="127.246094"/>
     <use xlink:href="#DejaVuSans-2e" x="190.869141"/>
     <use xlink:href="#DejaVuSans-30" x="222.65625"/>
    </g>
    <!-- $\pm$0.0 -->
    <g style="fill: #262626" transform="translate(469.05 339.394645)scale(0.1 -0.1)">
     <use xlink:href="#DejaVuSans-b1" transform="translate(0 0.78125)"/>
     <use xlink:href="#DejaVuSans-30" transform="translate(83.789062 0.78125)"/>
     <use xlink:href="#DejaVuSans-2e" transform="translate(147.412109 0.78125)"/>
     <use xlink:href="#DejaVuSans-30" transform="translate(179.199219 0.78125)"/>
    </g>
   </g>
   <g id="text_55">
    <!-- 99.8 -->
    <g style="fill: #262626" transform="translate(98.067187 377.615014)scale(0.1 -0.1)">
     <use xlink:href="#DejaVuSans-39"/>
     <use xlink:href="#DejaVuSans-39" x="63.623047"/>
     <use xlink:href="#DejaVuSans-2e" x="127.246094"/>
     <use xlink:href="#DejaVuSans-38" x="159.033203"/>
    </g>
    <!-- $\pm$0.1 -->
    <g style="fill: #262626" transform="translate(97.05 388.812827)scale(0.1 -0.1)">
     <use xlink:href="#DejaVuSans-b1" transform="translate(0 0.78125)"/>
     <use xlink:href="#DejaVuSans-30" transform="translate(83.789062 0.78125)"/>
     <use xlink:href="#DejaVuSans-2e" transform="translate(147.412109 0.78125)"/>
     <use xlink:href="#DejaVuSans-31" transform="translate(179.199219 0.78125)"/>
    </g>
   </g>
   <g id="text_56">
    <!-- 99.9 -->
    <g style="fill: #262626" transform="translate(172.467187 377.615014)scale(0.1 -0.1)">
     <use xlink:href="#DejaVuSans-39"/>
     <use xlink:href="#DejaVuSans-39" x="63.623047"/>
     <use xlink:href="#DejaVuSans-2e" x="127.246094"/>
     <use xlink:href="#DejaVuSans-39" x="159.033203"/>
    </g>
    <!-- $\pm$0.1 -->
    <g style="fill: #262626" transform="translate(171.45 388.812827)scale(0.1 -0.1)">
     <use xlink:href="#DejaVuSans-b1" transform="translate(0 0.78125)"/>
     <use xlink:href="#DejaVuSans-30" transform="translate(83.789062 0.78125)"/>
     <use xlink:href="#DejaVuSans-2e" transform="translate(147.412109 0.78125)"/>
     <use xlink:href="#DejaVuSans-31" transform="translate(179.199219 0.78125)"/>
    </g>
   </g>
   <g id="text_57">
    <!-- 100.0 -->
    <g style="fill: #262626" transform="translate(243.685937 377.615014)scale(0.1 -0.1)">
     <use xlink:href="#DejaVuSans-31"/>
     <use xlink:href="#DejaVuSans-30" x="63.623047"/>
     <use xlink:href="#DejaVuSans-30" x="127.246094"/>
     <use xlink:href="#DejaVuSans-2e" x="190.869141"/>
     <use xlink:href="#DejaVuSans-30" x="222.65625"/>
    </g>
    <!-- $\pm$0.1 -->
    <g style="fill: #262626" transform="translate(245.85 388.812827)scale(0.1 -0.1)">
     <use xlink:href="#DejaVuSans-b1" transform="translate(0 0.78125)"/>
     <use xlink:href="#DejaVuSans-30" transform="translate(83.789062 0.78125)"/>
     <use xlink:href="#DejaVuSans-2e" transform="translate(147.412109 0.78125)"/>
     <use xlink:href="#DejaVuSans-31" transform="translate(179.199219 0.78125)"/>
    </g>
   </g>
   <g id="text_58">
    <!-- 100.0 -->
    <g style="fill: #262626" transform="translate(318.085938 377.615014)scale(0.1 -0.1)">
     <use xlink:href="#DejaVuSans-31"/>
     <use xlink:href="#DejaVuSans-30" x="63.623047"/>
     <use xlink:href="#DejaVuSans-30" x="127.246094"/>
     <use xlink:href="#DejaVuSans-2e" x="190.869141"/>
     <use xlink:href="#DejaVuSans-30" x="222.65625"/>
    </g>
    <!-- $\pm$0.0 -->
    <g style="fill: #262626" transform="translate(320.25 388.812827)scale(0.1 -0.1)">
     <use xlink:href="#DejaVuSans-b1" transform="translate(0 0.78125)"/>
     <use xlink:href="#DejaVuSans-30" transform="translate(83.789062 0.78125)"/>
     <use xlink:href="#DejaVuSans-2e" transform="translate(147.412109 0.78125)"/>
     <use xlink:href="#DejaVuSans-30" transform="translate(179.199219 0.78125)"/>
    </g>
   </g>
   <g id="text_59">
    <!-- 100.0 -->
    <g style="fill: #262626" transform="translate(392.485937 377.615014)scale(0.1 -0.1)">
     <use xlink:href="#DejaVuSans-31"/>
     <use xlink:href="#DejaVuSans-30" x="63.623047"/>
     <use xlink:href="#DejaVuSans-30" x="127.246094"/>
     <use xlink:href="#DejaVuSans-2e" x="190.869141"/>
     <use xlink:href="#DejaVuSans-30" x="222.65625"/>
    </g>
    <!-- $\pm$0.1 -->
    <g style="fill: #262626" transform="translate(394.65 388.812827)scale(0.1 -0.1)">
     <use xlink:href="#DejaVuSans-b1" transform="translate(0 0.78125)"/>
     <use xlink:href="#DejaVuSans-30" transform="translate(83.789062 0.78125)"/>
     <use xlink:href="#DejaVuSans-2e" transform="translate(147.412109 0.78125)"/>
     <use xlink:href="#DejaVuSans-31" transform="translate(179.199219 0.78125)"/>
    </g>
   </g>
   <g id="text_60">
    <!-- 99.9 -->
    <g style="fill: #262626" transform="translate(470.067187 377.615014)scale(0.1 -0.1)">
     <use xlink:href="#DejaVuSans-39"/>
     <use xlink:href="#DejaVuSans-39" x="63.623047"/>
     <use xlink:href="#DejaVuSans-2e" x="127.246094"/>
     <use xlink:href="#DejaVuSans-39" x="159.033203"/>
    </g>
    <!-- $\pm$0.1 -->
    <g style="fill: #262626" transform="translate(469.05 388.812827)scale(0.1 -0.1)">
     <use xlink:href="#DejaVuSans-b1" transform="translate(0 0.78125)"/>
     <use xlink:href="#DejaVuSans-30" transform="translate(83.789062 0.78125)"/>
     <use xlink:href="#DejaVuSans-2e" transform="translate(147.412109 0.78125)"/>
     <use xlink:href="#DejaVuSans-31" transform="translate(179.199219 0.78125)"/>
    </g>
   </g>
   <g id="text_61">
    <!-- 97.8 -->
    <g style="fill: #262626" transform="translate(98.067187 427.033196)scale(0.1 -0.1)">
     <use xlink:href="#DejaVuSans-39"/>
     <use xlink:href="#DejaVuSans-37" x="63.623047"/>
     <use xlink:href="#DejaVuSans-2e" x="127.246094"/>
     <use xlink:href="#DejaVuSans-38" x="159.033203"/>
    </g>
    <!-- $\pm$0.4 -->
    <g style="fill: #262626" transform="translate(97.05 438.231009)scale(0.1 -0.1)">
     <use xlink:href="#DejaVuSans-b1" transform="translate(0 0.78125)"/>
     <use xlink:href="#DejaVuSans-30" transform="translate(83.789062 0.78125)"/>
     <use xlink:href="#DejaVuSans-2e" transform="translate(147.412109 0.78125)"/>
     <use xlink:href="#DejaVuSans-34" transform="translate(179.199219 0.78125)"/>
    </g>
   </g>
   <g id="text_62">
    <!-- 99.9 -->
    <g style="fill: #262626" transform="translate(172.467187 427.033196)scale(0.1 -0.1)">
     <use xlink:href="#DejaVuSans-39"/>
     <use xlink:href="#DejaVuSans-39" x="63.623047"/>
     <use xlink:href="#DejaVuSans-2e" x="127.246094"/>
     <use xlink:href="#DejaVuSans-39" x="159.033203"/>
    </g>
    <!-- $\pm$0.1 -->
    <g style="fill: #262626" transform="translate(171.45 438.231009)scale(0.1 -0.1)">
     <use xlink:href="#DejaVuSans-b1" transform="translate(0 0.78125)"/>
     <use xlink:href="#DejaVuSans-30" transform="translate(83.789062 0.78125)"/>
     <use xlink:href="#DejaVuSans-2e" transform="translate(147.412109 0.78125)"/>
     <use xlink:href="#DejaVuSans-31" transform="translate(179.199219 0.78125)"/>
    </g>
   </g>
   <g id="text_63">
    <!-- 100.0 -->
    <g style="fill: #262626" transform="translate(243.685937 427.033196)scale(0.1 -0.1)">
     <use xlink:href="#DejaVuSans-31"/>
     <use xlink:href="#DejaVuSans-30" x="63.623047"/>
     <use xlink:href="#DejaVuSans-30" x="127.246094"/>
     <use xlink:href="#DejaVuSans-2e" x="190.869141"/>
     <use xlink:href="#DejaVuSans-30" x="222.65625"/>
    </g>
    <!-- $\pm$0.1 -->
    <g style="fill: #262626" transform="translate(245.85 438.231009)scale(0.1 -0.1)">
     <use xlink:href="#DejaVuSans-b1" transform="translate(0 0.78125)"/>
     <use xlink:href="#DejaVuSans-30" transform="translate(83.789062 0.78125)"/>
     <use xlink:href="#DejaVuSans-2e" transform="translate(147.412109 0.78125)"/>
     <use xlink:href="#DejaVuSans-31" transform="translate(179.199219 0.78125)"/>
    </g>
   </g>
   <g id="text_64">
    <!-- 100.0 -->
    <g style="fill: #262626" transform="translate(318.085938 427.033196)scale(0.1 -0.1)">
     <use xlink:href="#DejaVuSans-31"/>
     <use xlink:href="#DejaVuSans-30" x="63.623047"/>
     <use xlink:href="#DejaVuSans-30" x="127.246094"/>
     <use xlink:href="#DejaVuSans-2e" x="190.869141"/>
     <use xlink:href="#DejaVuSans-30" x="222.65625"/>
    </g>
    <!-- $\pm$0.1 -->
    <g style="fill: #262626" transform="translate(320.25 438.231009)scale(0.1 -0.1)">
     <use xlink:href="#DejaVuSans-b1" transform="translate(0 0.78125)"/>
     <use xlink:href="#DejaVuSans-30" transform="translate(83.789062 0.78125)"/>
     <use xlink:href="#DejaVuSans-2e" transform="translate(147.412109 0.78125)"/>
     <use xlink:href="#DejaVuSans-31" transform="translate(179.199219 0.78125)"/>
    </g>
   </g>
   <g id="text_65">
    <!-- 99.9 -->
    <g style="fill: #262626" transform="translate(395.667187 427.033196)scale(0.1 -0.1)">
     <use xlink:href="#DejaVuSans-39"/>
     <use xlink:href="#DejaVuSans-39" x="63.623047"/>
     <use xlink:href="#DejaVuSans-2e" x="127.246094"/>
     <use xlink:href="#DejaVuSans-39" x="159.033203"/>
    </g>
    <!-- $\pm$0.1 -->
    <g style="fill: #262626" transform="translate(394.65 438.231009)scale(0.1 -0.1)">
     <use xlink:href="#DejaVuSans-b1" transform="translate(0 0.78125)"/>
     <use xlink:href="#DejaVuSans-30" transform="translate(83.789062 0.78125)"/>
     <use xlink:href="#DejaVuSans-2e" transform="translate(147.412109 0.78125)"/>
     <use xlink:href="#DejaVuSans-31" transform="translate(179.199219 0.78125)"/>
    </g>
   </g>
   <g id="text_66">
    <!-- 100.0 -->
    <g style="fill: #262626" transform="translate(466.885937 427.033196)scale(0.1 -0.1)">
     <use xlink:href="#DejaVuSans-31"/>
     <use xlink:href="#DejaVuSans-30" x="63.623047"/>
     <use xlink:href="#DejaVuSans-30" x="127.246094"/>
     <use xlink:href="#DejaVuSans-2e" x="190.869141"/>
     <use xlink:href="#DejaVuSans-30" x="222.65625"/>
    </g>
    <!-- $\pm$0.1 -->
    <g style="fill: #262626" transform="translate(469.05 438.231009)scale(0.1 -0.1)">
     <use xlink:href="#DejaVuSans-b1" transform="translate(0 0.78125)"/>
     <use xlink:href="#DejaVuSans-30" transform="translate(83.789062 0.78125)"/>
     <use xlink:href="#DejaVuSans-2e" transform="translate(147.412109 0.78125)"/>
     <use xlink:href="#DejaVuSans-31" transform="translate(179.199219 0.78125)"/>
    </g>
   </g>
   <g id="text_67">
    <!-- 83.3 -->
    <g style="fill: #262626" transform="translate(98.067187 476.451378)scale(0.1 -0.1)">
     <use xlink:href="#DejaVuSans-38"/>
     <use xlink:href="#DejaVuSans-33" x="63.623047"/>
     <use xlink:href="#DejaVuSans-2e" x="127.246094"/>
     <use xlink:href="#DejaVuSans-33" x="159.033203"/>
    </g>
    <!-- $\pm$1.0 -->
    <g style="fill: #262626" transform="translate(97.05 487.64919)scale(0.1 -0.1)">
     <use xlink:href="#DejaVuSans-b1" transform="translate(0 0.78125)"/>
     <use xlink:href="#DejaVuSans-31" transform="translate(83.789062 0.78125)"/>
     <use xlink:href="#DejaVuSans-2e" transform="translate(147.412109 0.78125)"/>
     <use xlink:href="#DejaVuSans-30" transform="translate(179.199219 0.78125)"/>
    </g>
   </g>
   <g id="text_68">
    <!-- 86.2 -->
    <g style="fill: #262626" transform="translate(172.467187 476.451378)scale(0.1 -0.1)">
     <use xlink:href="#DejaVuSans-38"/>
     <use xlink:href="#DejaVuSans-36" x="63.623047"/>
     <use xlink:href="#DejaVuSans-2e" x="127.246094"/>
     <use xlink:href="#DejaVuSans-32" x="159.033203"/>
    </g>
    <!-- $\pm$1.0 -->
    <g style="fill: #262626" transform="translate(171.45 487.64919)scale(0.1 -0.1)">
     <use xlink:href="#DejaVuSans-b1" transform="translate(0 0.78125)"/>
     <use xlink:href="#DejaVuSans-31" transform="translate(83.789062 0.78125)"/>
     <use xlink:href="#DejaVuSans-2e" transform="translate(147.412109 0.78125)"/>
     <use xlink:href="#DejaVuSans-30" transform="translate(179.199219 0.78125)"/>
    </g>
   </g>
   <g id="text_69">
    <!-- 92.1 -->
    <g style="fill: #262626" transform="translate(246.867188 476.451378)scale(0.1 -0.1)">
     <use xlink:href="#DejaVuSans-39"/>
     <use xlink:href="#DejaVuSans-32" x="63.623047"/>
     <use xlink:href="#DejaVuSans-2e" x="127.246094"/>
     <use xlink:href="#DejaVuSans-31" x="159.033203"/>
    </g>
    <!-- $\pm$0.8 -->
    <g style="fill: #262626" transform="translate(245.95 487.64919)scale(0.1 -0.1)">
     <use xlink:href="#DejaVuSans-b1" transform="translate(0 0.78125)"/>
     <use xlink:href="#DejaVuSans-30" transform="translate(83.789062 0.78125)"/>
     <use xlink:href="#DejaVuSans-2e" transform="translate(147.412109 0.78125)"/>
     <use xlink:href="#DejaVuSans-38" transform="translate(176.574219 0.78125)"/>
    </g>
   </g>
   <g id="text_70">
    <!-- 96.7 -->
    <g style="fill: #262626" transform="translate(321.267187 476.451378)scale(0.1 -0.1)">
     <use xlink:href="#DejaVuSans-39"/>
     <use xlink:href="#DejaVuSans-36" x="63.623047"/>
     <use xlink:href="#DejaVuSans-2e" x="127.246094"/>
     <use xlink:href="#DejaVuSans-37" x="159.033203"/>
    </g>
    <!-- $\pm$0.3 -->
    <g style="fill: #262626" transform="translate(320.25 487.64919)scale(0.1 -0.1)">
     <use xlink:href="#DejaVuSans-b1" transform="translate(0 0.78125)"/>
     <use xlink:href="#DejaVuSans-30" transform="translate(83.789062 0.78125)"/>
     <use xlink:href="#DejaVuSans-2e" transform="translate(147.412109 0.78125)"/>
     <use xlink:href="#DejaVuSans-33" transform="translate(179.199219 0.78125)"/>
    </g>
   </g>
   <g id="text_71">
    <!-- 99.8 -->
    <g style="fill: #262626" transform="translate(395.667187 476.451378)scale(0.1 -0.1)">
     <use xlink:href="#DejaVuSans-39"/>
     <use xlink:href="#DejaVuSans-39" x="63.623047"/>
     <use xlink:href="#DejaVuSans-2e" x="127.246094"/>
     <use xlink:href="#DejaVuSans-38" x="159.033203"/>
    </g>
    <!-- $\pm$0.2 -->
    <g style="fill: #262626" transform="translate(394.9 487.64919)scale(0.1 -0.1)">
     <use xlink:href="#DejaVuSans-b1" transform="translate(0 0.78125)"/>
     <use xlink:href="#DejaVuSans-30" transform="translate(83.789062 0.78125)"/>
     <use xlink:href="#DejaVuSans-2e" transform="translate(147.412109 0.78125)"/>
     <use xlink:href="#DejaVuSans-32" transform="translate(173.699219 0.78125)"/>
    </g>
   </g>
   <g id="text_72">
    <!-- 99.9 -->
    <g style="fill: #262626" transform="translate(470.067187 476.451378)scale(0.1 -0.1)">
     <use xlink:href="#DejaVuSans-39"/>
     <use xlink:href="#DejaVuSans-39" x="63.623047"/>
     <use xlink:href="#DejaVuSans-2e" x="127.246094"/>
     <use xlink:href="#DejaVuSans-39" x="159.033203"/>
    </g>
    <!-- $\pm$0.1 -->
    <g style="fill: #262626" transform="translate(469.05 487.64919)scale(0.1 -0.1)">
     <use xlink:href="#DejaVuSans-b1" transform="translate(0 0.78125)"/>
     <use xlink:href="#DejaVuSans-30" transform="translate(83.789062 0.78125)"/>
     <use xlink:href="#DejaVuSans-2e" transform="translate(147.412109 0.78125)"/>
     <use xlink:href="#DejaVuSans-31" transform="translate(179.199219 0.78125)"/>
    </g>
   </g>
   <g id="text_73">
    <!-- Train accuracy: mean $\pm$ standard deviation -->
    <g transform="translate(164.64 300.327273)scale(0.12 -0.12)">
     <use xlink:href="#DejaVuSans-54" transform="translate(0 0.015625)"/>
     <use xlink:href="#DejaVuSans-72" transform="translate(61.083984 0.015625)"/>
     <use xlink:href="#DejaVuSans-61" transform="translate(102.197266 0.015625)"/>
     <use xlink:href="#DejaVuSans-69" transform="translate(163.476562 0.015625)"/>
     <use xlink:href="#DejaVuSans-6e" transform="translate(191.259766 0.015625)"/>
     <use xlink:href="#DejaVuSans-20" transform="translate(254.638672 0.015625)"/>
     <use xlink:href="#DejaVuSans-61" transform="translate(286.425781 0.015625)"/>
     <use xlink:href="#DejaVuSans-63" transform="translate(347.705078 0.015625)"/>
     <use xlink:href="#DejaVuSans-63" transform="translate(402.685547 0.015625)"/>
     <use xlink:href="#DejaVuSans-75" transform="translate(457.666016 0.015625)"/>
     <use xlink:href="#DejaVuSans-72" transform="translate(521.044922 0.015625)"/>
     <use xlink:href="#DejaVuSans-61" transform="translate(562.158203 0.015625)"/>
     <use xlink:href="#DejaVuSans-63" transform="translate(623.4375 0.015625)"/>
     <use xlink:href="#DejaVuSans-79" transform="translate(678.417969 0.015625)"/>
     <use xlink:href="#DejaVuSans-3a" transform="translate(737.597656 0.015625)"/>
     <use xlink:href="#DejaVuSans-20" transform="translate(771.289062 0.015625)"/>
     <use xlink:href="#DejaVuSans-6d" transform="translate(803.076172 0.015625)"/>
     <use xlink:href="#DejaVuSans-65" transform="translate(900.488281 0.015625)"/>
     <use xlink:href="#DejaVuSans-61" transform="translate(962.011719 0.015625)"/>
     <use xlink:href="#DejaVuSans-6e" transform="translate(1023.291016 0.015625)"/>
     <use xlink:href="#DejaVuSans-20" transform="translate(1086.669922 0.015625)"/>
     <use xlink:href="#DejaVuSans-b1" transform="translate(1118.457031 0.015625)"/>
     <use xlink:href="#DejaVuSans-20" transform="translate(1202.246094 0.015625)"/>
     <use xlink:href="#DejaVuSans-73" transform="translate(1234.033203 0.015625)"/>
     <use xlink:href="#DejaVuSans-74" transform="translate(1286.132812 0.015625)"/>
     <use xlink:href="#DejaVuSans-61" transform="translate(1325.341797 0.015625)"/>
     <use xlink:href="#DejaVuSans-6e" transform="translate(1386.621094 0.015625)"/>
     <use xlink:href="#DejaVuSans-64" transform="translate(1450 0.015625)"/>
     <use xlink:href="#DejaVuSans-61" transform="translate(1513.476562 0.015625)"/>
     <use xlink:href="#DejaVuSans-72" transform="translate(1574.755859 0.015625)"/>
     <use xlink:href="#DejaVuSans-64" transform="translate(1615.869141 0.015625)"/>
     <use xlink:href="#DejaVuSans-20" transform="translate(1679.345703 0.015625)"/>
     <use xlink:href="#DejaVuSans-64" transform="translate(1711.132812 0.015625)"/>
     <use xlink:href="#DejaVuSans-65" transform="translate(1774.609375 0.015625)"/>
     <use xlink:href="#DejaVuSans-76" transform="translate(1836.132812 0.015625)"/>
     <use xlink:href="#DejaVuSans-69" transform="translate(1895.3125 0.015625)"/>
     <use xlink:href="#DejaVuSans-61" transform="translate(1923.095703 0.015625)"/>
     <use xlink:href="#DejaVuSans-74" transform="translate(1984.375 0.015625)"/>
     <use xlink:href="#DejaVuSans-69" transform="translate(2023.583984 0.015625)"/>
     <use xlink:href="#DejaVuSans-6f" transform="translate(2051.367188 0.015625)"/>
     <use xlink:href="#DejaVuSans-6e" transform="translate(2112.548828 0.015625)"/>
    </g>
   </g>
  </g>
  <g id="text_74">
   <!-- Grid Search: Real Adaboost with decision trees (depth = 5) -->
   <g transform="translate(75.502125 22.46175)scale(0.144 -0.144)">
    <defs>
     <path id="DejaVuSans-47" d="M 3809 666 
L 3809 1919 
L 2778 1919 
L 2778 2438 
L 4434 2438 
L 4434 434 
Q 4069 175 3628 42 
Q 3188 -91 2688 -91 
Q 1594 -91 976 548 
Q 359 1188 359 2328 
Q 359 3472 976 4111 
Q 1594 4750 2688 4750 
Q 3144 4750 3555 4637 
Q 3966 4525 4313 4306 
L 4313 3634 
Q 3963 3931 3569 4081 
Q 3175 4231 2741 4231 
Q 1884 4231 1454 3753 
Q 1025 3275 1025 2328 
Q 1025 1384 1454 906 
Q 1884 428 2741 428 
Q 3075 428 3337 486 
Q 3600 544 3809 666 
z
" transform="scale(0.015625)"/>
     <path id="DejaVuSans-53" d="M 3425 4513 
L 3425 3897 
Q 3066 4069 2747 4153 
Q 2428 4238 2131 4238 
Q 1616 4238 1336 4038 
Q 1056 3838 1056 3469 
Q 1056 3159 1242 3001 
Q 1428 2844 1947 2747 
L 2328 2669 
Q 3034 2534 3370 2195 
Q 3706 1856 3706 1288 
Q 3706 609 3251 259 
Q 2797 -91 1919 -91 
Q 1588 -91 1214 -16 
Q 841 59 441 206 
L 441 856 
Q 825 641 1194 531 
Q 1563 422 1919 422 
Q 2459 422 2753 634 
Q 3047 847 3047 1241 
Q 3047 1584 2836 1778 
Q 2625 1972 2144 2069 
L 1759 2144 
Q 1053 2284 737 2584 
Q 422 2884 422 3419 
Q 422 4038 858 4394 
Q 1294 4750 2059 4750 
Q 2388 4750 2728 4690 
Q 3069 4631 3425 4513 
z
" transform="scale(0.015625)"/>
     <path id="DejaVuSans-68" d="M 3513 2113 
L 3513 0 
L 2938 0 
L 2938 2094 
Q 2938 2591 2744 2837 
Q 2550 3084 2163 3084 
Q 1697 3084 1428 2787 
Q 1159 2491 1159 1978 
L 1159 0 
L 581 0 
L 581 4863 
L 1159 4863 
L 1159 2956 
Q 1366 3272 1645 3428 
Q 1925 3584 2291 3584 
Q 2894 3584 3203 3211 
Q 3513 2838 3513 2113 
z
" transform="scale(0.015625)"/>
     <path id="DejaVuSans-52" d="M 2841 2188 
Q 3044 2119 3236 1894 
Q 3428 1669 3622 1275 
L 4263 0 
L 3584 0 
L 2988 1197 
Q 2756 1666 2539 1819 
Q 2322 1972 1947 1972 
L 1259 1972 
L 1259 0 
L 628 0 
L 628 4666 
L 2053 4666 
Q 2853 4666 3247 4331 
Q 3641 3997 3641 3322 
Q 3641 2881 3436 2590 
Q 3231 2300 2841 2188 
z
M 1259 4147 
L 1259 2491 
L 2053 2491 
Q 2509 2491 2742 2702 
Q 2975 2913 2975 3322 
Q 2975 3731 2742 3939 
Q 2509 4147 2053 4147 
L 1259 4147 
z
" transform="scale(0.015625)"/>
     <path id="DejaVuSans-6c" d="M 603 4863 
L 1178 4863 
L 1178 0 
L 603 0 
L 603 4863 
z
" transform="scale(0.015625)"/>
     <path id="DejaVuSans-41" d="M 2188 4044 
L 1331 1722 
L 3047 1722 
L 2188 4044 
z
M 1831 4666 
L 2547 4666 
L 4325 0 
L 3669 0 
L 3244 1197 
L 1141 1197 
L 716 0 
L 50 0 
L 1831 4666 
z
" transform="scale(0.015625)"/>
     <path id="DejaVuSans-77" d="M 269 3500 
L 844 3500 
L 1563 769 
L 2278 3500 
L 2956 3500 
L 3675 769 
L 4391 3500 
L 4966 3500 
L 4050 0 
L 3372 0 
L 2619 2869 
L 1863 0 
L 1184 0 
L 269 3500 
z
" transform="scale(0.015625)"/>
     <path id="DejaVuSans-28" d="M 1984 4856 
Q 1566 4138 1362 3434 
Q 1159 2731 1159 2009 
Q 1159 1288 1364 580 
Q 1569 -128 1984 -844 
L 1484 -844 
Q 1016 -109 783 600 
Q 550 1309 550 2009 
Q 550 2706 781 3412 
Q 1013 4119 1484 4856 
L 1984 4856 
z
" transform="scale(0.015625)"/>
     <path id="DejaVuSans-70" d="M 1159 525 
L 1159 -1331 
L 581 -1331 
L 581 3500 
L 1159 3500 
L 1159 2969 
Q 1341 3281 1617 3432 
Q 1894 3584 2278 3584 
Q 2916 3584 3314 3078 
Q 3713 2572 3713 1747 
Q 3713 922 3314 415 
Q 2916 -91 2278 -91 
Q 1894 -91 1617 61 
Q 1341 213 1159 525 
z
M 3116 1747 
Q 3116 2381 2855 2742 
Q 2594 3103 2138 3103 
Q 1681 3103 1420 2742 
Q 1159 2381 1159 1747 
Q 1159 1113 1420 752 
Q 1681 391 2138 391 
Q 2594 391 2855 752 
Q 3116 1113 3116 1747 
z
" transform="scale(0.015625)"/>
     <path id="DejaVuSans-3d" d="M 678 2906 
L 4684 2906 
L 4684 2381 
L 678 2381 
L 678 2906 
z
M 678 1631 
L 4684 1631 
L 4684 1100 
L 678 1100 
L 678 1631 
z
" transform="scale(0.015625)"/>
     <path id="DejaVuSans-29" d="M 513 4856 
L 1013 4856 
Q 1481 4119 1714 3412 
Q 1947 2706 1947 2009 
Q 1947 1309 1714 600 
Q 1481 -109 1013 -844 
L 513 -844 
Q 928 -128 1133 580 
Q 1338 1288 1338 2009 
Q 1338 2731 1133 3434 
Q 928 4138 513 4856 
z
" transform="scale(0.015625)"/>
    </defs>
    <use xlink:href="#DejaVuSans-47"/>
    <use xlink:href="#DejaVuSans-72" x="77.490234"/>
    <use xlink:href="#DejaVuSans-69" x="118.603516"/>
    <use xlink:href="#DejaVuSans-64" x="146.386719"/>
    <use xlink:href="#DejaVuSans-20" x="209.863281"/>
    <use xlink:href="#DejaVuSans-53" x="241.650391"/>
    <use xlink:href="#DejaVuSans-65" x="305.126953"/>
    <use xlink:href="#DejaVuSans-61" x="366.650391"/>
    <use xlink:href="#DejaVuSans-72" x="427.929688"/>
    <use xlink:href="#DejaVuSans-63" x="466.792969"/>
    <use xlink:href="#DejaVuSans-68" x="521.773438"/>
    <use xlink:href="#DejaVuSans-3a" x="585.152344"/>
    <use xlink:href="#DejaVuSans-20" x="618.84375"/>
    <use xlink:href="#DejaVuSans-52" x="650.630859"/>
    <use xlink:href="#DejaVuSans-65" x="715.613281"/>
    <use xlink:href="#DejaVuSans-61" x="777.136719"/>
    <use xlink:href="#DejaVuSans-6c" x="838.416016"/>
    <use xlink:href="#DejaVuSans-20" x="866.199219"/>
    <use xlink:href="#DejaVuSans-41" x="897.986328"/>
    <use xlink:href="#DejaVuSans-64" x="964.644531"/>
    <use xlink:href="#DejaVuSans-61" x="1028.121094"/>
    <use xlink:href="#DejaVuSans-62" x="1089.400391"/>
    <use xlink:href="#DejaVuSans-6f" x="1152.876953"/>
    <use xlink:href="#DejaVuSans-6f" x="1214.058594"/>
    <use xlink:href="#DejaVuSans-73" x="1275.240234"/>
    <use xlink:href="#DejaVuSans-74" x="1327.339844"/>
    <use xlink:href="#DejaVuSans-20" x="1366.548828"/>
    <use xlink:href="#DejaVuSans-77" x="1398.335938"/>
    <use xlink:href="#DejaVuSans-69" x="1480.123047"/>
    <use xlink:href="#DejaVuSans-74" x="1507.90625"/>
    <use xlink:href="#DejaVuSans-68" x="1547.115234"/>
    <use xlink:href="#DejaVuSans-20" x="1610.494141"/>
    <use xlink:href="#DejaVuSans-64" x="1642.28125"/>
    <use xlink:href="#DejaVuSans-65" x="1705.757812"/>
    <use xlink:href="#DejaVuSans-63" x="1767.28125"/>
    <use xlink:href="#DejaVuSans-69" x="1822.261719"/>
    <use xlink:href="#DejaVuSans-73" x="1850.044922"/>
    <use xlink:href="#DejaVuSans-69" x="1902.144531"/>
    <use xlink:href="#DejaVuSans-6f" x="1929.927734"/>
    <use xlink:href="#DejaVuSans-6e" x="1991.109375"/>
    <use xlink:href="#DejaVuSans-20" x="2054.488281"/>
    <use xlink:href="#DejaVuSans-74" x="2086.275391"/>
    <use xlink:href="#DejaVuSans-72" x="2125.484375"/>
    <use xlink:href="#DejaVuSans-65" x="2164.347656"/>
    <use xlink:href="#DejaVuSans-65" x="2225.871094"/>
    <use xlink:href="#DejaVuSans-73" x="2287.394531"/>
    <use xlink:href="#DejaVuSans-20" x="2339.494141"/>
    <use xlink:href="#DejaVuSans-28" x="2371.28125"/>
    <use xlink:href="#DejaVuSans-64" x="2410.294922"/>
    <use xlink:href="#DejaVuSans-65" x="2473.771484"/>
    <use xlink:href="#DejaVuSans-70" x="2535.294922"/>
    <use xlink:href="#DejaVuSans-74" x="2598.771484"/>
    <use xlink:href="#DejaVuSans-68" x="2637.980469"/>
    <use xlink:href="#DejaVuSans-20" x="2701.359375"/>
    <use xlink:href="#DejaVuSans-3d" x="2733.146484"/>
    <use xlink:href="#DejaVuSans-20" x="2816.935547"/>
    <use xlink:href="#DejaVuSans-35" x="2848.722656"/>
    <use xlink:href="#DejaVuSans-29" x="2912.345703"/>
   </g>
  </g>
 </g>
 <defs>
  <clipPath id="pa42dad72ac">
   <rect x="72" y="69.12" width="446.4" height="197.672727"/>
  </clipPath>
  <clipPath id="p6b831ce2b3">
   <rect x="72" y="306.327273" width="446.4" height="197.672727"/>
  </clipPath>
 </defs>
</svg>
