<?xml version="1.0" encoding="utf-8" standalone="no"?>
<!DOCTYPE svg PUBLIC "-//W3C//DTD SVG 1.1//EN"
  "http://www.w3.org/Graphics/SVG/1.1/DTD/svg11.dtd">
<svg xmlns:xlink="http://www.w3.org/1999/xlink" width="443.168281pt" height="497.66025pt" viewBox="0 0 443.168281 497.66025" xmlns="http://www.w3.org/2000/svg" version="1.1">
 <metadata>
  <rdf:RDF xmlns:dc="http://purl.org/dc/elements/1.1/" xmlns:cc="http://creativecommons.org/ns#" xmlns:rdf="http://www.w3.org/1999/02/22-rdf-syntax-ns#">
   <cc:Work>
    <dc:type rdf:resource="http://purl.org/dc/dcmitype/StillImage"/>
    <dc:date>2022-05-31T09:14:27.566358</dc:date>
    <dc:format>image/svg+xml</dc:format>
    <dc:creator>
     <cc:Agent>
      <dc:title>Matplotlib v3.5.1, https://matplotlib.org/</dc:title>
     </cc:Agent>
    </dc:creator>
   </cc:Work>
  </rdf:RDF>
 </metadata>
 <defs>
  <style type="text/css">*{stroke-linejoin: round; stroke-linecap: butt}</style>
 </defs>
 <g id="figure_1">
  <g id="patch_1">
   <path d="M 0 497.66025 
L 443.168281 497.66025 
L 443.168281 0 
L 0 0 
z
" style="fill: #ffffff"/>
  </g>
  <g id="axes_1">
   <g id="patch_2">
    <path d="M 45.368281 220.851102 
L 435.968281 220.851102 
L 435.968281 23.178375 
L 45.368281 23.178375 
z
" style="fill: #ffffff"/>
   </g>
   <g id="matplotlib.axis_1">
    <g id="xtick_1">
     <g id="line2d_1">
      <defs>
       <path id="m779654e060" d="M 0 0 
L 0 3.5 
" style="stroke: #000000; stroke-width: 0.8"/>
      </defs>
      <g>
       <use xlink:href="#m779654e060" x="60.326835" y="220.851102" style="stroke: #000000; stroke-width: 0.8"/>
      </g>
     </g>
     <g id="text_1">
      <!-- 0 -->
      <g transform="translate(56.95121 236.166415)scale(0.11 -0.11)">
       <defs>
        <path id="Georgia-30" d="M 3209 2919 
Q 3409 2678 3507 2354 
Q 3606 2031 3606 1678 
Q 3606 1253 3484 917 
Q 3363 581 3150 359 
Q 2931 131 2631 15 
Q 2331 -100 1963 -100 
Q 1559 -100 1243 34 
Q 928 169 731 403 
Q 525 647 423 973 
Q 322 1300 322 1678 
Q 322 2050 420 2362 
Q 519 2675 728 2928 
Q 928 3172 1243 3312 
Q 1559 3453 1966 3453 
Q 2394 3453 2700 3309 
Q 3006 3166 3209 2919 
z
M 2916 1678 
Q 2916 2422 2661 2831 
Q 2406 3241 1969 3241 
Q 1525 3241 1269 2831 
Q 1013 2422 1013 1678 
Q 1013 972 1258 542 
Q 1503 113 1963 113 
Q 2422 113 2669 542 
Q 2916 972 2916 1678 
z
" transform="scale(0.015625)"/>
       </defs>
       <use xlink:href="#Georgia-30"/>
      </g>
     </g>
    </g>
    <g id="xtick_2">
     <g id="line2d_2">
      <g>
       <use xlink:href="#m779654e060" x="116.246663" y="220.851102" style="stroke: #000000; stroke-width: 0.8"/>
      </g>
     </g>
     <g id="text_2">
      <!-- 1000 -->
      <g transform="translate(103.756507 236.166415)scale(0.11 -0.11)">
       <defs>
        <path id="Georgia-31" d="M 2528 0 
L 422 0 
L 422 222 
Q 516 228 714 248 
Q 913 269 988 291 
Q 1084 322 1136 392 
Q 1188 463 1188 603 
L 1188 2797 
L 409 2797 
L 409 3059 
L 581 3059 
Q 919 3059 1186 3184 
Q 1453 3309 1569 3453 
L 1828 3453 
Q 1819 3250 1809 2978 
Q 1800 2706 1800 2491 
L 1800 638 
Q 1800 528 1848 442 
Q 1897 356 1988 316 
Q 2069 281 2253 253 
Q 2438 225 2528 222 
L 2528 0 
z
" transform="scale(0.015625)"/>
       </defs>
       <use xlink:href="#Georgia-31"/>
       <use xlink:href="#Georgia-30" x="42.96875"/>
       <use xlink:href="#Georgia-30" x="104.345703"/>
       <use xlink:href="#Georgia-30" x="165.722656"/>
      </g>
     </g>
    </g>
    <g id="xtick_3">
     <g id="line2d_3">
      <g>
       <use xlink:href="#m779654e060" x="172.166492" y="220.851102" style="stroke: #000000; stroke-width: 0.8"/>
      </g>
     </g>
     <g id="text_3">
      <!-- 2000 -->
      <g transform="translate(158.967351 236.166415)scale(0.11 -0.11)">
       <defs>
        <path id="Georgia-32" d="M 3272 0 
L 344 0 
L 344 425 
Q 428 522 578 642 
Q 728 763 934 903 
Q 1059 988 1234 1088 
Q 1409 1188 1631 1306 
Q 1878 1438 2011 1538 
Q 2144 1638 2253 1784 
Q 2325 1881 2369 2026 
Q 2413 2172 2413 2441 
Q 2413 2831 2203 3014 
Q 1994 3197 1666 3197 
Q 1463 3197 1281 3117 
Q 1100 3038 1009 2897 
Q 1031 2797 1064 2659 
Q 1097 2522 1097 2391 
Q 1097 2272 998 2180 
Q 900 2088 706 2088 
Q 550 2088 465 2195 
Q 381 2303 381 2484 
Q 381 2653 475 2823 
Q 569 2994 744 3138 
Q 916 3278 1169 3365 
Q 1422 3453 1716 3453 
Q 2356 3453 2732 3167 
Q 3109 2881 3109 2403 
Q 3109 2175 3042 1987 
Q 2975 1800 2825 1656 
Q 2659 1497 2437 1383 
Q 2216 1269 1759 1066 
Q 1488 944 1253 811 
Q 1019 678 869 553 
L 3272 553 
L 3272 0 
z
" transform="scale(0.015625)"/>
       </defs>
       <use xlink:href="#Georgia-32"/>
       <use xlink:href="#Georgia-30" x="55.859375"/>
       <use xlink:href="#Georgia-30" x="117.236328"/>
       <use xlink:href="#Georgia-30" x="178.613281"/>
      </g>
     </g>
    </g>
    <g id="xtick_4">
     <g id="line2d_4">
      <g>
       <use xlink:href="#m779654e060" x="228.08632" y="220.851102" style="stroke: #000000; stroke-width: 0.8"/>
      </g>
     </g>
     <g id="text_4">
      <!-- 3000 -->
      <g transform="translate(214.924992 236.166415)scale(0.11 -0.11)">
       <defs>
        <path id="Georgia-33" d="M 1522 -1141 
Q 1228 -1141 984 -1067 
Q 741 -994 566 -869 
Q 391 -744 295 -581 
Q 200 -419 200 -247 
Q 200 -94 275 29 
Q 350 153 516 153 
Q 703 153 801 61 
Q 900 -31 900 -150 
Q 900 -250 867 -403 
Q 834 -556 816 -622 
Q 838 -650 895 -697 
Q 953 -744 1038 -781 
Q 1138 -828 1247 -856 
Q 1356 -884 1556 -884 
Q 1744 -884 1917 -821 
Q 2091 -759 2222 -622 
Q 2359 -478 2436 -286 
Q 2513 -94 2513 219 
Q 2513 388 2477 553 
Q 2441 719 2344 841 
Q 2247 963 2080 1030 
Q 1913 1097 1656 1097 
L 1247 1097 
L 1247 1456 
L 1519 1456 
Q 1950 1456 2140 1693 
Q 2331 1931 2331 2409 
Q 2331 2800 2147 2998 
Q 1963 3197 1625 3197 
Q 1463 3197 1358 3158 
Q 1253 3119 1188 3081 
Q 1109 3038 1059 2984 
Q 1009 2931 984 2906 
Q 1006 2806 1037 2661 
Q 1069 2516 1069 2384 
Q 1069 2269 970 2176 
Q 872 2084 681 2084 
Q 516 2084 439 2203 
Q 363 2322 363 2478 
Q 363 2641 453 2809 
Q 544 2978 722 3125 
Q 900 3272 1156 3362 
Q 1413 3453 1747 3453 
Q 2131 3453 2382 3339 
Q 2634 3225 2778 3063 
Q 2919 2903 2972 2728 
Q 3025 2553 3025 2428 
Q 3025 2272 2981 2114 
Q 2938 1956 2838 1822 
Q 2728 1675 2548 1554 
Q 2369 1434 2097 1359 
L 2097 1309 
Q 2272 1294 2470 1231 
Q 2669 1169 2828 1047 
Q 2994 919 3100 717 
Q 3206 516 3206 206 
Q 3206 -394 2725 -767 
Q 2244 -1141 1522 -1141 
z
" transform="scale(0.015625)"/>
       </defs>
       <use xlink:href="#Georgia-33"/>
       <use xlink:href="#Georgia-30" x="55.175781"/>
       <use xlink:href="#Georgia-30" x="116.552734"/>
       <use xlink:href="#Georgia-30" x="177.929688"/>
      </g>
     </g>
    </g>
    <g id="xtick_5">
     <g id="line2d_5">
      <g>
       <use xlink:href="#m779654e060" x="284.006148" y="220.851102" style="stroke: #000000; stroke-width: 0.8"/>
      </g>
     </g>
     <g id="text_5">
      <!-- 4000 -->
      <g transform="translate(270.771773 236.166415)scale(0.11 -0.11)">
       <defs>
        <path id="Georgia-34" d="M 3388 281 
L 2753 281 
L 2753 -1141 
L 2153 -1141 
L 2153 281 
L 153 281 
L 153 763 
L 2344 3434 
L 2753 3434 
L 2753 691 
L 3388 691 
L 3388 281 
z
M 2153 691 
L 2153 2738 
L 466 691 
L 2153 691 
z
" transform="scale(0.015625)"/>
       </defs>
       <use xlink:href="#Georgia-34"/>
       <use xlink:href="#Georgia-30" x="56.494141"/>
       <use xlink:href="#Georgia-30" x="117.871094"/>
       <use xlink:href="#Georgia-30" x="179.248047"/>
      </g>
     </g>
    </g>
    <g id="xtick_6">
     <g id="line2d_6">
      <g>
       <use xlink:href="#m779654e060" x="339.925976" y="220.851102" style="stroke: #000000; stroke-width: 0.8"/>
      </g>
     </g>
     <g id="text_6">
      <!-- 5000 -->
      <g transform="translate(326.893554 236.166415)scale(0.11 -0.11)">
       <defs>
        <path id="Georgia-35" d="M 2634 1466 
Q 2841 1303 2977 1047 
Q 3113 791 3113 406 
Q 3113 -266 2653 -703 
Q 2194 -1141 1488 -1141 
Q 941 -1141 562 -881 
Q 184 -622 184 -278 
Q 184 -119 262 0 
Q 341 119 503 119 
Q 691 119 789 20 
Q 888 -78 888 -194 
Q 888 -294 853 -444 
Q 819 -594 800 -666 
Q 825 -688 881 -725 
Q 938 -763 1016 -797 
Q 1097 -831 1214 -857 
Q 1331 -884 1488 -884 
Q 1688 -884 1866 -803 
Q 2044 -722 2166 -563 
Q 2300 -388 2367 -164 
Q 2434 59 2434 403 
Q 2434 844 2189 1133 
Q 1944 1422 1544 1422 
Q 1294 1422 1076 1328 
Q 859 1234 688 1016 
L 478 1097 
L 744 3353 
L 2981 3353 
L 2981 2797 
L 997 2797 
L 834 1472 
Q 975 1572 1204 1670 
Q 1434 1769 1709 1769 
Q 1938 1769 2183 1698 
Q 2428 1628 2634 1466 
z
" transform="scale(0.015625)"/>
       </defs>
       <use xlink:href="#Georgia-35"/>
       <use xlink:href="#Georgia-30" x="52.832031"/>
       <use xlink:href="#Georgia-30" x="114.208984"/>
       <use xlink:href="#Georgia-30" x="175.585938"/>
      </g>
     </g>
    </g>
    <g id="xtick_7">
     <g id="line2d_7">
      <g>
       <use xlink:href="#m779654e060" x="395.845805" y="220.851102" style="stroke: #000000; stroke-width: 0.8"/>
      </g>
     </g>
     <g id="text_7">
      <!-- 6000 -->
      <g transform="translate(382.606273 236.166415)scale(0.11 -0.11)">
       <defs>
        <path id="Georgia-36" d="M 3359 1441 
Q 3359 1116 3242 831 
Q 3125 547 2928 347 
Q 2700 119 2423 9 
Q 2147 -100 1847 -100 
Q 1500 -100 1219 28 
Q 938 156 741 391 
Q 541 628 431 972 
Q 322 1316 322 1744 
Q 322 2859 986 3625 
Q 1650 4391 2766 4544 
L 2822 4263 
L 2541 4213 
Q 1863 3994 1492 3531 
Q 1122 3069 1013 2409 
Q 1281 2644 1543 2741 
Q 1806 2838 2097 2838 
Q 2619 2838 2989 2438 
Q 3359 2038 3359 1441 
z
M 2681 1356 
Q 2681 1863 2448 2169 
Q 2216 2475 1825 2475 
Q 1591 2475 1389 2387 
Q 1188 2300 1000 2094 
Q 997 2056 990 1920 
Q 984 1784 984 1706 
Q 984 975 1223 561 
Q 1463 147 1853 147 
Q 2225 147 2453 470 
Q 2681 794 2681 1356 
z
" transform="scale(0.015625)"/>
       </defs>
       <use xlink:href="#Georgia-36"/>
       <use xlink:href="#Georgia-30" x="56.591797"/>
       <use xlink:href="#Georgia-30" x="117.96875"/>
       <use xlink:href="#Georgia-30" x="179.345703"/>
      </g>
     </g>
    </g>
   </g>
   <g id="matplotlib.axis_2">
    <g id="ytick_1">
     <g id="line2d_8">
      <defs>
       <path id="m9663d216b3" d="M 0 0 
L -3.5 0 
" style="stroke: #000000; stroke-width: 0.8"/>
      </defs>
      <g>
       <use xlink:href="#m9663d216b3" x="45.368281" y="212.941309" style="stroke: #000000; stroke-width: 0.8"/>
      </g>
     </g>
     <g id="text_8">
      <!-- 0 -->
      <g transform="translate(31.617031 217.098966)scale(0.11 -0.11)">
       <use xlink:href="#Georgia-30"/>
      </g>
     </g>
    </g>
    <g id="ytick_2">
     <g id="line2d_9">
      <g>
       <use xlink:href="#m9663d216b3" x="45.368281" y="182.69429" style="stroke: #000000; stroke-width: 0.8"/>
      </g>
     </g>
     <g id="text_9">
      <!-- 5 -->
      <g transform="translate(32.557187 186.851947)scale(0.11 -0.11)">
       <use xlink:href="#Georgia-35"/>
      </g>
     </g>
    </g>
    <g id="ytick_3">
     <g id="line2d_10">
      <g>
       <use xlink:href="#m9663d216b3" x="45.368281" y="152.447271" style="stroke: #000000; stroke-width: 0.8"/>
      </g>
     </g>
     <g id="text_10">
      <!-- 10 -->
      <g transform="translate(26.890469 156.604927)scale(0.11 -0.11)">
       <use xlink:href="#Georgia-31"/>
       <use xlink:href="#Georgia-30" x="42.96875"/>
      </g>
     </g>
    </g>
    <g id="ytick_4">
     <g id="line2d_11">
      <g>
       <use xlink:href="#m9663d216b3" x="45.368281" y="122.200252" style="stroke: #000000; stroke-width: 0.8"/>
      </g>
     </g>
     <g id="text_11">
      <!-- 15 -->
      <g transform="translate(27.830625 126.357908)scale(0.11 -0.11)">
       <use xlink:href="#Georgia-31"/>
       <use xlink:href="#Georgia-35" x="42.96875"/>
      </g>
     </g>
    </g>
    <g id="ytick_5">
     <g id="line2d_12">
      <g>
       <use xlink:href="#m9663d216b3" x="45.368281" y="91.953233" style="stroke: #000000; stroke-width: 0.8"/>
      </g>
     </g>
     <g id="text_12">
      <!-- 20 -->
      <g transform="translate(25.4725 96.110889)scale(0.11 -0.11)">
       <use xlink:href="#Georgia-32"/>
       <use xlink:href="#Georgia-30" x="55.859375"/>
      </g>
     </g>
    </g>
    <g id="ytick_6">
     <g id="line2d_13">
      <g>
       <use xlink:href="#m9663d216b3" x="45.368281" y="61.706214" style="stroke: #000000; stroke-width: 0.8"/>
      </g>
     </g>
     <g id="text_13">
      <!-- 25 -->
      <g transform="translate(26.412656 65.86387)scale(0.11 -0.11)">
       <use xlink:href="#Georgia-32"/>
       <use xlink:href="#Georgia-35" x="55.859375"/>
      </g>
     </g>
    </g>
    <g id="ytick_7">
     <g id="line2d_14">
      <g>
       <use xlink:href="#m9663d216b3" x="45.368281" y="31.459195" style="stroke: #000000; stroke-width: 0.8"/>
      </g>
     </g>
     <g id="text_14">
      <!-- 30 -->
      <g transform="translate(25.548125 35.616851)scale(0.11 -0.11)">
       <use xlink:href="#Georgia-33"/>
       <use xlink:href="#Georgia-30" x="55.175781"/>
      </g>
     </g>
    </g>
    <g id="text_15">
     <!-- Time [s] -->
     <g transform="translate(19.086875 142.361301)rotate(-90)scale(0.11 -0.11)">
      <defs>
       <path id="Georgia-54" d="M 3909 3231 
L 3694 3231 
Q 3666 3344 3592 3498 
Q 3519 3653 3428 3791 
Q 3334 3934 3223 4042 
Q 3113 4150 3009 4166 
Q 2913 4178 2766 4184 
Q 2619 4191 2494 4191 
L 2313 4191 
L 2313 644 
Q 2313 541 2356 455 
Q 2400 369 2509 322 
Q 2566 300 2745 262 
Q 2925 225 3025 222 
L 3025 0 
L 931 0 
L 931 222 
Q 1019 228 1198 247 
Q 1378 266 1447 294 
Q 1550 334 1598 411 
Q 1647 488 1647 616 
L 1647 4191 
L 1466 4191 
Q 1369 4191 1225 4186 
Q 1081 4181 950 4166 
Q 847 4153 736 4042 
Q 625 3931 531 3791 
Q 438 3650 366 3492 
Q 294 3334 266 3231 
L 47 3231 
L 47 4434 
L 3909 4434 
L 3909 3231 
z
" transform="scale(0.015625)"/>
       <path id="Georgia-69" d="M 1722 0 
L 231 0 
L 231 206 
Q 303 213 379 219 
Q 456 225 513 244 
Q 600 272 642 342 
Q 684 413 684 525 
L 684 2428 
Q 684 2528 639 2611 
Q 594 2694 513 2750 
Q 453 2788 340 2814 
Q 228 2841 134 2847 
L 134 3050 
L 1222 3119 
L 1266 3075 
L 1266 563 
Q 1266 453 1308 381 
Q 1350 309 1441 275 
Q 1509 247 1575 230 
Q 1641 213 1722 206 
L 1722 0 
z
M 1328 4334 
Q 1328 4156 1211 4023 
Q 1094 3891 922 3891 
Q 763 3891 645 4017 
Q 528 4144 528 4306 
Q 528 4478 645 4606 
Q 763 4734 922 4734 
Q 1100 4734 1214 4614 
Q 1328 4494 1328 4334 
z
" transform="scale(0.015625)"/>
       <path id="Georgia-6d" d="M 5503 0 
L 4000 0 
L 4000 206 
Q 4072 213 4145 219 
Q 4219 225 4275 244 
Q 4363 272 4405 342 
Q 4447 413 4447 525 
L 4447 2116 
Q 4447 2441 4298 2617 
Q 4150 2794 3928 2794 
Q 3775 2794 3640 2747 
Q 3506 2700 3394 2616 
Q 3303 2547 3242 2467 
Q 3181 2388 3150 2334 
L 3150 556 
Q 3150 447 3187 376 
Q 3225 306 3316 269 
Q 3388 241 3445 227 
Q 3503 213 3597 206 
L 3597 0 
L 2125 0 
L 2125 206 
Q 2197 213 2264 219 
Q 2331 225 2388 244 
Q 2475 272 2517 342 
Q 2559 413 2559 525 
L 2559 2116 
Q 2559 2441 2411 2617 
Q 2263 2794 2041 2794 
Q 1888 2794 1753 2745 
Q 1619 2697 1506 2613 
Q 1416 2544 1353 2458 
Q 1291 2372 1259 2328 
L 1259 563 
Q 1259 456 1303 384 
Q 1347 313 1434 275 
Q 1500 244 1569 228 
Q 1638 213 1722 206 
L 1722 0 
L 225 0 
L 225 206 
Q 297 213 373 219 
Q 450 225 506 244 
Q 594 272 636 342 
Q 678 413 678 525 
L 678 2441 
Q 678 2541 633 2620 
Q 588 2700 506 2756 
Q 447 2794 359 2817 
Q 272 2841 178 2847 
L 178 3050 
L 1209 3119 
L 1253 3075 
L 1253 2634 
L 1275 2634 
Q 1353 2713 1465 2819 
Q 1578 2925 1675 2991 
Q 1784 3066 1948 3116 
Q 2113 3166 2303 3166 
Q 2603 3166 2818 3005 
Q 3034 2844 3128 2616 
Q 3241 2725 3327 2808 
Q 3413 2891 3553 2984 
Q 3672 3066 3833 3116 
Q 3994 3166 4191 3166 
Q 4581 3166 4809 2909 
Q 5038 2653 5038 2122 
L 5038 556 
Q 5038 447 5075 376 
Q 5113 306 5203 269 
Q 5275 241 5345 227 
Q 5416 213 5503 206 
L 5503 0 
z
" transform="scale(0.015625)"/>
       <path id="Georgia-65" d="M 2963 725 
Q 2769 356 2444 137 
Q 2119 -81 1697 -81 
Q 1325 -81 1045 50 
Q 766 181 584 406 
Q 403 631 314 931 
Q 225 1231 225 1566 
Q 225 1866 320 2155 
Q 416 2444 600 2675 
Q 778 2897 1042 3033 
Q 1306 3169 1634 3169 
Q 1972 3169 2212 3062 
Q 2453 2956 2603 2772 
Q 2747 2597 2817 2359 
Q 2888 2122 2888 1844 
L 2888 1638 
L 847 1638 
Q 847 1334 905 1087 
Q 963 841 1088 653 
Q 1209 472 1406 367 
Q 1603 263 1875 263 
Q 2153 263 2354 392 
Q 2556 522 2744 859 
L 2963 725 
z
M 2272 1900 
Q 2272 2075 2242 2275 
Q 2213 2475 2147 2609 
Q 2075 2753 1950 2843 
Q 1825 2934 1628 2934 
Q 1300 2934 1083 2661 
Q 866 2388 847 1900 
L 2272 1900 
z
" transform="scale(0.015625)"/>
       <path id="Georgia-20" transform="scale(0.015625)"/>
       <path id="Georgia-5b" d="M 2191 -969 
L 525 -969 
L 525 4747 
L 2191 4747 
L 2191 4463 
L 1081 4463 
L 1081 -681 
L 2191 -681 
L 2191 -969 
z
" transform="scale(0.015625)"/>
       <path id="Georgia-73" d="M 2259 1509 
Q 2388 1397 2456 1250 
Q 2525 1103 2525 891 
Q 2525 463 2204 191 
Q 1884 -81 1375 -81 
Q 1106 -81 879 16 
Q 653 113 556 194 
L 494 -9 
L 259 -9 
L 228 1063 
L 444 1063 
Q 469 941 550 778 
Q 631 616 747 484 
Q 869 347 1039 253 
Q 1209 159 1422 159 
Q 1722 159 1884 295 
Q 2047 431 2047 684 
Q 2047 816 1995 911 
Q 1944 1006 1844 1078 
Q 1741 1150 1591 1208 
Q 1441 1266 1256 1322 
Q 1109 1366 929 1442 
Q 750 1519 622 1622 
Q 484 1731 396 1890 
Q 309 2050 309 2266 
Q 309 2644 590 2906 
Q 872 3169 1344 3169 
Q 1525 3169 1714 3122 
Q 1903 3075 2022 3009 
L 2094 3172 
L 2319 3172 
L 2366 2181 
L 2150 2181 
Q 2084 2513 1867 2720 
Q 1650 2928 1338 2928 
Q 1081 2928 934 2800 
Q 788 2672 788 2491 
Q 788 2350 836 2256 
Q 884 2163 981 2097 
Q 1075 2034 1217 1979 
Q 1359 1925 1569 1856 
Q 1775 1791 1958 1703 
Q 2141 1616 2259 1509 
z
" transform="scale(0.015625)"/>
       <path id="Georgia-5d" d="M 1875 -969 
L 209 -969 
L 209 -681 
L 1319 -681 
L 1319 4463 
L 209 4463 
L 209 4747 
L 1875 4747 
L 1875 -969 
z
" transform="scale(0.015625)"/>
      </defs>
      <use xlink:href="#Georgia-54"/>
      <use xlink:href="#Georgia-69" x="61.865234"/>
      <use xlink:href="#Georgia-6d" x="91.162109"/>
      <use xlink:href="#Georgia-65" x="179.248047"/>
      <use xlink:href="#Georgia-20" x="227.587891"/>
      <use xlink:href="#Georgia-5b" x="251.708984"/>
      <use xlink:href="#Georgia-73" x="289.208984"/>
      <use xlink:href="#Georgia-5d" x="332.421875"/>
     </g>
    </g>
   </g>
   <g id="LineCollection_1">
    <path d="M 63.122827 211.865978 
L 63.122827 211.826546 
" clip-path="url(#pcdaaca78d6)" style="fill: none; stroke: #1f77b4; stroke-width: 1.5"/>
    <path d="M 65.918818 210.735119 
L 65.918818 210.597458 
" clip-path="url(#pcdaaca78d6)" style="fill: none; stroke: #1f77b4; stroke-width: 1.5"/>
    <path d="M 71.510801 208.302348 
L 71.510801 208.220701 
" clip-path="url(#pcdaaca78d6)" style="fill: none; stroke: #1f77b4; stroke-width: 1.5"/>
    <path d="M 82.694767 203.029926 
L 82.694767 202.375998 
" clip-path="url(#pcdaaca78d6)" style="fill: none; stroke: #1f77b4; stroke-width: 1.5"/>
    <path d="M 105.062698 192.404022 
L 105.062698 192.013796 
" clip-path="url(#pcdaaca78d6)" style="fill: none; stroke: #1f77b4; stroke-width: 1.5"/>
    <path d="M 149.79856 171.198472 
L 149.79856 170.680867 
" clip-path="url(#pcdaaca78d6)" style="fill: none; stroke: #1f77b4; stroke-width: 1.5"/>
    <path d="M 239.270286 132.403485 
L 239.270286 130.968455 
" clip-path="url(#pcdaaca78d6)" style="fill: none; stroke: #1f77b4; stroke-width: 1.5"/>
    <path d="M 418.213736 77.103737 
L 418.213736 60.310647 
" clip-path="url(#pcdaaca78d6)" style="fill: none; stroke: #1f77b4; stroke-width: 1.5"/>
   </g>
   <g id="LineCollection_2">
    <path d="M 63.122827 211.620529 
L 63.122827 211.595716 
" clip-path="url(#pcdaaca78d6)" style="fill: none; stroke: #ff7f0e; stroke-width: 1.5"/>
    <path d="M 65.918818 210.297712 
L 65.918818 210.235071 
" clip-path="url(#pcdaaca78d6)" style="fill: none; stroke: #ff7f0e; stroke-width: 1.5"/>
    <path d="M 71.510801 208.092659 
L 71.510801 207.672499 
" clip-path="url(#pcdaaca78d6)" style="fill: none; stroke: #ff7f0e; stroke-width: 1.5"/>
    <path d="M 82.694767 203.153038 
L 82.694767 202.897789 
" clip-path="url(#pcdaaca78d6)" style="fill: none; stroke: #ff7f0e; stroke-width: 1.5"/>
    <path d="M 105.062698 192.854769 
L 105.062698 191.504095 
" clip-path="url(#pcdaaca78d6)" style="fill: none; stroke: #ff7f0e; stroke-width: 1.5"/>
    <path d="M 149.79856 171.337002 
L 149.79856 166.99041 
" clip-path="url(#pcdaaca78d6)" style="fill: none; stroke: #ff7f0e; stroke-width: 1.5"/>
    <path d="M 239.270286 131.077362 
L 239.270286 122.084345 
" clip-path="url(#pcdaaca78d6)" style="fill: none; stroke: #ff7f0e; stroke-width: 1.5"/>
    <path d="M 418.213736 51.419548 
L 418.213736 32.163499 
" clip-path="url(#pcdaaca78d6)" style="fill: none; stroke: #ff7f0e; stroke-width: 1.5"/>
   </g>
   <g id="LineCollection_3">
    <path d="M 63.122827 211.64099 
L 63.122827 211.47416 
" clip-path="url(#pcdaaca78d6)" style="fill: none; stroke: #2ca02c; stroke-width: 1.5"/>
    <path d="M 65.918818 210.211834 
L 65.918818 210.109297 
" clip-path="url(#pcdaaca78d6)" style="fill: none; stroke: #2ca02c; stroke-width: 1.5"/>
    <path d="M 71.510801 207.541927 
L 71.510801 207.342771 
" clip-path="url(#pcdaaca78d6)" style="fill: none; stroke: #2ca02c; stroke-width: 1.5"/>
    <path d="M 82.694767 202.568938 
L 82.694767 201.974848 
" clip-path="url(#pcdaaca78d6)" style="fill: none; stroke: #2ca02c; stroke-width: 1.5"/>
    <path d="M 105.062698 193.880631 
L 105.062698 191.610479 
" clip-path="url(#pcdaaca78d6)" style="fill: none; stroke: #2ca02c; stroke-width: 1.5"/>
    <path d="M 149.79856 173.993161 
L 149.79856 172.303397 
" clip-path="url(#pcdaaca78d6)" style="fill: none; stroke: #2ca02c; stroke-width: 1.5"/>
    <path d="M 239.270286 134.29363 
L 239.270286 127.133731 
" clip-path="url(#pcdaaca78d6)" style="fill: none; stroke: #2ca02c; stroke-width: 1.5"/>
    <path d="M 418.213736 47.510919 
L 418.213736 36.055939 
" clip-path="url(#pcdaaca78d6)" style="fill: none; stroke: #2ca02c; stroke-width: 1.5"/>
   </g>
   <g id="LineCollection_4">
    <path d="M 63.122827 211.620748 
L 63.122827 211.529634 
" clip-path="url(#pcdaaca78d6)" style="fill: none; stroke: #d62728; stroke-width: 1.5"/>
    <path d="M 65.918818 210.264856 
L 65.918818 209.90448 
" clip-path="url(#pcdaaca78d6)" style="fill: none; stroke: #d62728; stroke-width: 1.5"/>
    <path d="M 71.510801 207.491283 
L 71.510801 207.139555 
" clip-path="url(#pcdaaca78d6)" style="fill: none; stroke: #d62728; stroke-width: 1.5"/>
    <path d="M 82.694767 202.311462 
L 82.694767 201.312482 
" clip-path="url(#pcdaaca78d6)" style="fill: none; stroke: #d62728; stroke-width: 1.5"/>
    <path d="M 105.062698 191.866855 
L 105.062698 189.274635 
" clip-path="url(#pcdaaca78d6)" style="fill: none; stroke: #d62728; stroke-width: 1.5"/>
    <path d="M 149.79856 172.066525 
L 149.79856 168.173058 
" clip-path="url(#pcdaaca78d6)" style="fill: none; stroke: #d62728; stroke-width: 1.5"/>
    <path d="M 239.270286 131.620214 
L 239.270286 119.753219 
" clip-path="url(#pcdaaca78d6)" style="fill: none; stroke: #d62728; stroke-width: 1.5"/>
    <path d="M 418.213736 55.276947 
L 418.213736 39.021406 
" clip-path="url(#pcdaaca78d6)" style="fill: none; stroke: #d62728; stroke-width: 1.5"/>
   </g>
   <g id="line2d_15">
    <path d="M 63.122827 211.846262 
L 65.918818 210.666288 
L 71.510801 208.261525 
L 82.694767 202.702962 
L 105.062698 192.208909 
L 149.79856 170.93967 
L 239.270286 131.68597 
L 418.213736 68.707192 
" clip-path="url(#pcdaaca78d6)" style="fill: none; stroke: #1f77b4; stroke-width: 1.5; stroke-linecap: square"/>
    <defs>
     <path id="m1e2d48aeb9" d="M 0 2 
C 0.530406 2 1.03916 1.789267 1.414214 1.414214 
C 1.789267 1.03916 2 0.530406 2 0 
C 2 -0.530406 1.789267 -1.03916 1.414214 -1.414214 
C 1.03916 -1.789267 0.530406 -2 0 -2 
C -0.530406 -2 -1.03916 -1.789267 -1.414214 -1.414214 
C -1.789267 -1.03916 -2 -0.530406 -2 0 
C -2 0.530406 -1.789267 1.03916 -1.414214 1.414214 
C -1.03916 1.789267 -0.530406 2 0 2 
z
" style="stroke: #1f77b4"/>
    </defs>
    <g clip-path="url(#pcdaaca78d6)">
     <use xlink:href="#m1e2d48aeb9" x="63.122827" y="211.846262" style="fill: #1f77b4; stroke: #1f77b4"/>
     <use xlink:href="#m1e2d48aeb9" x="65.918818" y="210.666288" style="fill: #1f77b4; stroke: #1f77b4"/>
     <use xlink:href="#m1e2d48aeb9" x="71.510801" y="208.261525" style="fill: #1f77b4; stroke: #1f77b4"/>
     <use xlink:href="#m1e2d48aeb9" x="82.694767" y="202.702962" style="fill: #1f77b4; stroke: #1f77b4"/>
     <use xlink:href="#m1e2d48aeb9" x="105.062698" y="192.208909" style="fill: #1f77b4; stroke: #1f77b4"/>
     <use xlink:href="#m1e2d48aeb9" x="149.79856" y="170.93967" style="fill: #1f77b4; stroke: #1f77b4"/>
     <use xlink:href="#m1e2d48aeb9" x="239.270286" y="131.68597" style="fill: #1f77b4; stroke: #1f77b4"/>
     <use xlink:href="#m1e2d48aeb9" x="418.213736" y="68.707192" style="fill: #1f77b4; stroke: #1f77b4"/>
    </g>
   </g>
   <g id="line2d_16">
    <path d="M 63.122827 211.608122 
L 65.918818 210.266391 
L 71.510801 207.882579 
L 82.694767 203.025413 
L 105.062698 192.179432 
L 149.79856 169.163706 
L 239.270286 126.580854 
L 418.213736 41.791523 
" clip-path="url(#pcdaaca78d6)" style="fill: none; stroke: #ff7f0e; stroke-width: 1.5; stroke-linecap: square"/>
    <defs>
     <path id="mf8090d0730" d="M 0 2 
C 0.530406 2 1.03916 1.789267 1.414214 1.414214 
C 1.789267 1.03916 2 0.530406 2 0 
C 2 -0.530406 1.789267 -1.03916 1.414214 -1.414214 
C 1.03916 -1.789267 0.530406 -2 0 -2 
C -0.530406 -2 -1.03916 -1.789267 -1.414214 -1.414214 
C -1.789267 -1.03916 -2 -0.530406 -2 0 
C -2 0.530406 -1.789267 1.03916 -1.414214 1.414214 
C -1.03916 1.789267 -0.530406 2 0 2 
z
" style="stroke: #ff7f0e"/>
    </defs>
    <g clip-path="url(#pcdaaca78d6)">
     <use xlink:href="#mf8090d0730" x="63.122827" y="211.608122" style="fill: #ff7f0e; stroke: #ff7f0e"/>
     <use xlink:href="#mf8090d0730" x="65.918818" y="210.266391" style="fill: #ff7f0e; stroke: #ff7f0e"/>
     <use xlink:href="#mf8090d0730" x="71.510801" y="207.882579" style="fill: #ff7f0e; stroke: #ff7f0e"/>
     <use xlink:href="#mf8090d0730" x="82.694767" y="203.025413" style="fill: #ff7f0e; stroke: #ff7f0e"/>
     <use xlink:href="#mf8090d0730" x="105.062698" y="192.179432" style="fill: #ff7f0e; stroke: #ff7f0e"/>
     <use xlink:href="#mf8090d0730" x="149.79856" y="169.163706" style="fill: #ff7f0e; stroke: #ff7f0e"/>
     <use xlink:href="#mf8090d0730" x="239.270286" y="126.580854" style="fill: #ff7f0e; stroke: #ff7f0e"/>
     <use xlink:href="#mf8090d0730" x="418.213736" y="41.791523" style="fill: #ff7f0e; stroke: #ff7f0e"/>
    </g>
   </g>
   <g id="line2d_17">
    <path d="M 63.122827 211.557575 
L 65.918818 210.160566 
L 71.510801 207.442349 
L 82.694767 202.271893 
L 105.062698 192.745555 
L 149.79856 173.148279 
L 239.270286 130.713681 
L 418.213736 41.783429 
" clip-path="url(#pcdaaca78d6)" style="fill: none; stroke: #2ca02c; stroke-width: 1.5; stroke-linecap: square"/>
    <defs>
     <path id="ma980b40e7d" d="M 0 2 
C 0.530406 2 1.03916 1.789267 1.414214 1.414214 
C 1.789267 1.03916 2 0.530406 2 0 
C 2 -0.530406 1.789267 -1.03916 1.414214 -1.414214 
C 1.03916 -1.789267 0.530406 -2 0 -2 
C -0.530406 -2 -1.03916 -1.789267 -1.414214 -1.414214 
C -1.789267 -1.03916 -2 -0.530406 -2 0 
C -2 0.530406 -1.789267 1.03916 -1.414214 1.414214 
C -1.03916 1.789267 -0.530406 2 0 2 
z
" style="stroke: #2ca02c"/>
    </defs>
    <g clip-path="url(#pcdaaca78d6)">
     <use xlink:href="#ma980b40e7d" x="63.122827" y="211.557575" style="fill: #2ca02c; stroke: #2ca02c"/>
     <use xlink:href="#ma980b40e7d" x="65.918818" y="210.160566" style="fill: #2ca02c; stroke: #2ca02c"/>
     <use xlink:href="#ma980b40e7d" x="71.510801" y="207.442349" style="fill: #2ca02c; stroke: #2ca02c"/>
     <use xlink:href="#ma980b40e7d" x="82.694767" y="202.271893" style="fill: #2ca02c; stroke: #2ca02c"/>
     <use xlink:href="#ma980b40e7d" x="105.062698" y="192.745555" style="fill: #2ca02c; stroke: #2ca02c"/>
     <use xlink:href="#ma980b40e7d" x="149.79856" y="173.148279" style="fill: #2ca02c; stroke: #2ca02c"/>
     <use xlink:href="#ma980b40e7d" x="239.270286" y="130.713681" style="fill: #2ca02c; stroke: #2ca02c"/>
     <use xlink:href="#ma980b40e7d" x="418.213736" y="41.783429" style="fill: #2ca02c; stroke: #2ca02c"/>
    </g>
   </g>
   <g id="line2d_18">
    <path d="M 63.122827 211.575191 
L 65.918818 210.084668 
L 71.510801 207.315419 
L 82.694767 201.811972 
L 105.062698 190.570745 
L 149.79856 170.119792 
L 239.270286 125.686716 
L 418.213736 47.149177 
" clip-path="url(#pcdaaca78d6)" style="fill: none; stroke: #d62728; stroke-width: 1.5; stroke-linecap: square"/>
    <defs>
     <path id="m1b781a7f90" d="M 0 2 
C 0.530406 2 1.03916 1.789267 1.414214 1.414214 
C 1.789267 1.03916 2 0.530406 2 0 
C 2 -0.530406 1.789267 -1.03916 1.414214 -1.414214 
C 1.03916 -1.789267 0.530406 -2 0 -2 
C -0.530406 -2 -1.03916 -1.789267 -1.414214 -1.414214 
C -1.789267 -1.03916 -2 -0.530406 -2 0 
C -2 0.530406 -1.789267 1.03916 -1.414214 1.414214 
C -1.03916 1.789267 -0.530406 2 0 2 
z
" style="stroke: #d62728"/>
    </defs>
    <g clip-path="url(#pcdaaca78d6)">
     <use xlink:href="#m1b781a7f90" x="63.122827" y="211.575191" style="fill: #d62728; stroke: #d62728"/>
     <use xlink:href="#m1b781a7f90" x="65.918818" y="210.084668" style="fill: #d62728; stroke: #d62728"/>
     <use xlink:href="#m1b781a7f90" x="71.510801" y="207.315419" style="fill: #d62728; stroke: #d62728"/>
     <use xlink:href="#m1b781a7f90" x="82.694767" y="201.811972" style="fill: #d62728; stroke: #d62728"/>
     <use xlink:href="#m1b781a7f90" x="105.062698" y="190.570745" style="fill: #d62728; stroke: #d62728"/>
     <use xlink:href="#m1b781a7f90" x="149.79856" y="170.119792" style="fill: #d62728; stroke: #d62728"/>
     <use xlink:href="#m1b781a7f90" x="239.270286" y="125.686716" style="fill: #d62728; stroke: #d62728"/>
     <use xlink:href="#m1b781a7f90" x="418.213736" y="47.149177" style="fill: #d62728; stroke: #d62728"/>
    </g>
   </g>
   <g id="patch_3">
    <path d="M 45.368281 220.851102 
L 45.368281 23.178375 
" style="fill: none; stroke: #000000; stroke-width: 0.8; stroke-linejoin: miter; stroke-linecap: square"/>
   </g>
   <g id="patch_4">
    <path d="M 435.968281 220.851102 
L 435.968281 23.178375 
" style="fill: none; stroke: #000000; stroke-width: 0.8; stroke-linejoin: miter; stroke-linecap: square"/>
   </g>
   <g id="patch_5">
    <path d="M 45.368281 220.851102 
L 435.968281 220.851102 
" style="fill: none; stroke: #000000; stroke-width: 0.8; stroke-linejoin: miter; stroke-linecap: square"/>
   </g>
   <g id="patch_6">
    <path d="M 45.368281 23.178375 
L 435.968281 23.178375 
" style="fill: none; stroke: #000000; stroke-width: 0.8; stroke-linejoin: miter; stroke-linecap: square"/>
   </g>
   <g id="text_16">
    <!-- Training -->
    <g transform="translate(215.5295 17.178375)scale(0.132 -0.132)">
     <defs>
      <path id="Georgia-72" d="M 2584 2684 
Q 2584 2525 2506 2401 
Q 2428 2278 2266 2278 
Q 2091 2278 1998 2368 
Q 1906 2459 1906 2569 
Q 1906 2638 1917 2694 
Q 1928 2750 1938 2806 
Q 1791 2806 1594 2687 
Q 1397 2569 1259 2350 
L 1259 556 
Q 1259 447 1301 378 
Q 1344 309 1434 275 
Q 1513 244 1636 228 
Q 1759 213 1850 206 
L 1850 0 
L 225 0 
L 225 206 
Q 297 213 373 219 
Q 450 225 506 244 
Q 594 272 636 342 
Q 678 413 678 525 
L 678 2428 
Q 678 2525 633 2619 
Q 588 2713 506 2769 
Q 447 2806 365 2823 
Q 284 2841 191 2847 
L 191 3050 
L 1216 3119 
L 1259 3075 
L 1259 2641 
L 1275 2641 
Q 1469 2894 1706 3025 
Q 1944 3156 2141 3156 
Q 2338 3156 2461 3028 
Q 2584 2900 2584 2684 
z
" transform="scale(0.015625)"/>
      <path id="Georgia-61" d="M 3144 56 
Q 2997 3 2886 -30 
Q 2775 -63 2634 -63 
Q 2391 -63 2245 51 
Q 2100 166 2059 384 
L 2041 384 
Q 1838 159 1605 40 
Q 1372 -78 1044 -78 
Q 697 -78 473 134 
Q 250 347 250 691 
Q 250 869 300 1009 
Q 350 1150 450 1263 
Q 528 1356 656 1429 
Q 784 1503 897 1547 
Q 1038 1600 1467 1744 
Q 1897 1888 2047 1969 
L 2047 2278 
Q 2047 2319 2030 2434 
Q 2013 2550 1956 2653 
Q 1894 2769 1780 2855 
Q 1666 2941 1456 2941 
Q 1313 2941 1189 2892 
Q 1066 2844 1016 2791 
Q 1016 2728 1045 2606 
Q 1075 2484 1075 2381 
Q 1075 2272 976 2181 
Q 878 2091 703 2091 
Q 547 2091 473 2202 
Q 400 2313 400 2450 
Q 400 2594 501 2725 
Q 603 2856 766 2959 
Q 906 3047 1106 3108 
Q 1306 3169 1497 3169 
Q 1759 3169 1954 3133 
Q 2150 3097 2309 2978 
Q 2469 2863 2551 2664 
Q 2634 2466 2634 2153 
Q 2634 1706 2625 1361 
Q 2616 1016 2616 606 
Q 2616 484 2658 412 
Q 2700 341 2788 291 
Q 2834 263 2936 259 
Q 3038 256 3144 256 
L 3144 56 
z
M 2053 1706 
Q 1788 1628 1588 1553 
Q 1388 1478 1216 1366 
Q 1059 1259 968 1114 
Q 878 969 878 769 
Q 878 509 1014 387 
Q 1150 266 1359 266 
Q 1581 266 1750 373 
Q 1919 481 2034 628 
L 2053 1706 
z
" transform="scale(0.015625)"/>
      <path id="Georgia-6e" d="M 3628 0 
L 2119 0 
L 2119 206 
Q 2191 213 2277 219 
Q 2363 225 2419 244 
Q 2506 272 2548 342 
Q 2591 413 2591 525 
L 2591 2109 
Q 2591 2438 2436 2616 
Q 2281 2794 2059 2794 
Q 1894 2794 1756 2742 
Q 1619 2691 1513 2616 
Q 1409 2544 1348 2461 
Q 1288 2378 1259 2328 
L 1259 556 
Q 1259 450 1303 381 
Q 1347 313 1434 275 
Q 1500 244 1576 228 
Q 1653 213 1734 206 
L 1734 0 
L 225 0 
L 225 206 
Q 297 213 373 219 
Q 450 225 506 244 
Q 594 272 636 342 
Q 678 413 678 525 
L 678 2428 
Q 678 2534 633 2623 
Q 588 2713 506 2769 
Q 447 2806 365 2823 
Q 284 2841 191 2847 
L 191 3050 
L 1216 3119 
L 1259 3075 
L 1259 2641 
L 1275 2641 
Q 1350 2716 1462 2820 
Q 1575 2925 1675 2991 
Q 1791 3066 1950 3116 
Q 2109 3166 2309 3166 
Q 2753 3166 2967 2889 
Q 3181 2613 3181 2153 
L 3181 550 
Q 3181 441 3218 373 
Q 3256 306 3347 269 
Q 3422 238 3476 225 
Q 3531 213 3628 206 
L 3628 0 
z
" transform="scale(0.015625)"/>
      <path id="Georgia-67" d="M 2866 319 
Q 2991 200 3062 50 
Q 3134 -100 3134 -322 
Q 3134 -544 3037 -739 
Q 2941 -934 2744 -1078 
Q 2534 -1225 2243 -1306 
Q 1953 -1388 1525 -1388 
Q 825 -1388 478 -1183 
Q 131 -978 131 -584 
Q 131 -266 381 -81 
Q 631 103 1019 119 
L 1019 163 
Q 925 191 825 233 
Q 725 275 653 331 
Q 572 397 522 486 
Q 472 575 472 706 
Q 472 872 589 1011 
Q 706 1150 944 1250 
L 944 1297 
Q 644 1438 478 1658 
Q 313 1878 313 2169 
Q 313 2606 639 2887 
Q 966 3169 1475 3169 
Q 1616 3169 1755 3141 
Q 1894 3113 2038 3069 
L 3113 3069 
L 3113 2769 
L 2388 2769 
L 2388 2750 
Q 2503 2616 2559 2453 
Q 2616 2291 2616 2134 
Q 2616 1728 2286 1447 
Q 1956 1166 1519 1166 
L 1141 1166 
Q 1069 1141 991 1075 
Q 913 1009 913 897 
Q 913 781 978 720 
Q 1044 659 1138 638 
Q 1228 613 1348 606 
Q 1469 600 1597 597 
Q 1734 594 1973 578 
Q 2213 563 2313 559 
Q 2456 553 2601 490 
Q 2747 428 2866 319 
z
M 2022 2147 
Q 2022 2513 1873 2730 
Q 1725 2947 1456 2947 
Q 1309 2947 1204 2886 
Q 1100 2825 1034 2713 
Q 972 2609 945 2464 
Q 919 2319 919 2166 
Q 919 1819 1070 1600 
Q 1222 1381 1463 1381 
Q 1731 1381 1876 1598 
Q 2022 1816 2022 2147 
z
M 2622 -438 
Q 2622 -263 2540 -150 
Q 2459 -38 2294 3 
Q 2206 16 1934 31 
Q 1663 47 1303 47 
Q 966 -19 823 -173 
Q 681 -328 681 -572 
Q 681 -681 728 -781 
Q 775 -881 891 -966 
Q 1000 -1047 1184 -1098 
Q 1369 -1150 1634 -1150 
Q 2094 -1150 2358 -973 
Q 2622 -797 2622 -438 
z
" transform="scale(0.015625)"/>
     </defs>
     <use xlink:href="#Georgia-54"/>
     <use xlink:href="#Georgia-72" x="61.865234"/>
     <use xlink:href="#Georgia-61" x="102.832031"/>
     <use xlink:href="#Georgia-69" x="153.222656"/>
     <use xlink:href="#Georgia-6e" x="182.519531"/>
     <use xlink:href="#Georgia-69" x="241.601562"/>
     <use xlink:href="#Georgia-6e" x="270.898438"/>
     <use xlink:href="#Georgia-67" x="329.980469"/>
    </g>
   </g>
   <g id="legend_1">
    <g id="patch_7">
     <path d="M 53.068281 112.983062 
L 123.114219 112.983062 
Q 125.314219 112.983062 125.314219 110.783062 
L 125.314219 30.878375 
Q 125.314219 28.678375 123.114219 28.678375 
L 53.068281 28.678375 
Q 50.868281 28.678375 50.868281 30.878375 
L 50.868281 110.783062 
Q 50.868281 112.983062 53.068281 112.983062 
z
" style="fill: #ffffff; opacity: 0.8; stroke: #cccccc; stroke-linejoin: miter"/>
    </g>
    <g id="text_17">
     <!-- Learning rate -->
     <g transform="translate(55.268281 41.393687)scale(0.11 -0.11)">
      <defs>
       <path id="Georgia-4c" d="M 3866 1319 
L 3772 0 
L 306 0 
L 306 222 
Q 381 228 523 243 
Q 666 259 722 284 
Q 816 325 858 403 
Q 900 481 900 603 
L 900 3778 
Q 900 3884 864 3965 
Q 828 4047 722 4097 
Q 650 4134 520 4170 
Q 391 4206 306 4213 
L 306 4434 
L 2178 4434 
L 2178 4213 
Q 2091 4209 1952 4181 
Q 1813 4153 1750 4131 
Q 1644 4094 1605 4003 
Q 1566 3913 1566 3809 
L 1566 831 
Q 1566 625 1586 511 
Q 1606 397 1681 334 
Q 1753 278 1895 261 
Q 2038 244 2294 244 
Q 2409 244 2534 250 
Q 2659 256 2772 275 
Q 2881 294 2973 326 
Q 3066 359 3109 409 
Q 3238 553 3408 845 
Q 3578 1138 3644 1319 
L 3866 1319 
z
" transform="scale(0.015625)"/>
       <path id="Georgia-74" d="M 2128 134 
Q 1925 50 1744 -8 
Q 1563 -66 1300 -66 
Q 913 -66 755 129 
Q 597 325 597 681 
L 597 2769 
L 41 2769 
L 41 3069 
L 609 3069 
L 609 4028 
L 1178 4028 
L 1178 3069 
L 2063 3069 
L 2063 2769 
L 1184 2769 
L 1184 1047 
Q 1184 853 1198 723 
Q 1213 594 1266 497 
Q 1316 406 1416 359 
Q 1516 313 1684 313 
Q 1763 313 1914 327 
Q 2066 341 2128 363 
L 2128 134 
z
" transform="scale(0.015625)"/>
      </defs>
      <use xlink:href="#Georgia-4c"/>
      <use xlink:href="#Georgia-65" x="60.351562"/>
      <use xlink:href="#Georgia-61" x="108.691406"/>
      <use xlink:href="#Georgia-72" x="159.082031"/>
      <use xlink:href="#Georgia-6e" x="200.048828"/>
      <use xlink:href="#Georgia-69" x="259.130859"/>
      <use xlink:href="#Georgia-6e" x="288.427734"/>
      <use xlink:href="#Georgia-67" x="347.509766"/>
      <use xlink:href="#Georgia-20" x="398.4375"/>
      <use xlink:href="#Georgia-72" x="422.558594"/>
      <use xlink:href="#Georgia-61" x="463.525391"/>
      <use xlink:href="#Georgia-74" x="513.916016"/>
      <use xlink:href="#Georgia-65" x="548.4375"/>
     </g>
    </g>
    <g id="LineCollection_5">
     <path d="M 69.718672 59.244625 
L 69.718672 48.244625 
" style="fill: none; stroke: #1f77b4; stroke-width: 1.5"/>
    </g>
    <g id="line2d_19">
     <path d="M 58.718672 53.744625 
L 80.718672 53.744625 
" style="fill: none; stroke: #1f77b4; stroke-width: 1.5; stroke-linecap: square"/>
    </g>
    <g id="line2d_20">
     <g>
      <use xlink:href="#m1e2d48aeb9" x="69.718672" y="53.744625" style="fill: #1f77b4; stroke: #1f77b4"/>
     </g>
    </g>
    <g id="text_18">
     <!-- 1.0 -->
     <g transform="translate(89.518672 57.594625)scale(0.11 -0.11)">
      <defs>
       <path id="Georgia-2e" d="M 1297 359 
Q 1297 184 1170 60 
Q 1044 -63 869 -63 
Q 694 -63 567 60 
Q 441 184 441 359 
Q 441 534 567 661 
Q 694 788 869 788 
Q 1044 788 1170 661 
Q 1297 534 1297 359 
z
" transform="scale(0.015625)"/>
      </defs>
      <use xlink:href="#Georgia-31"/>
      <use xlink:href="#Georgia-2e" x="42.96875"/>
      <use xlink:href="#Georgia-30" x="69.921875"/>
     </g>
    </g>
    <g id="LineCollection_6">
     <path d="M 69.718672 75.445562 
L 69.718672 64.445562 
" style="fill: none; stroke: #ff7f0e; stroke-width: 1.5"/>
    </g>
    <g id="line2d_21">
     <path d="M 58.718672 69.945562 
L 80.718672 69.945562 
" style="fill: none; stroke: #ff7f0e; stroke-width: 1.5; stroke-linecap: square"/>
    </g>
    <g id="line2d_22">
     <g>
      <use xlink:href="#mf8090d0730" x="69.718672" y="69.945562" style="fill: #ff7f0e; stroke: #ff7f0e"/>
     </g>
    </g>
    <g id="text_19">
     <!-- 0.1 -->
     <g transform="translate(89.518672 73.795562)scale(0.11 -0.11)">
      <use xlink:href="#Georgia-30"/>
      <use xlink:href="#Georgia-2e" x="61.376953"/>
      <use xlink:href="#Georgia-31" x="88.330078"/>
     </g>
    </g>
    <g id="LineCollection_7">
     <path d="M 69.718672 91.6465 
L 69.718672 80.6465 
" style="fill: none; stroke: #2ca02c; stroke-width: 1.5"/>
    </g>
    <g id="line2d_23">
     <path d="M 58.718672 86.1465 
L 80.718672 86.1465 
" style="fill: none; stroke: #2ca02c; stroke-width: 1.5; stroke-linecap: square"/>
    </g>
    <g id="line2d_24">
     <g>
      <use xlink:href="#ma980b40e7d" x="69.718672" y="86.1465" style="fill: #2ca02c; stroke: #2ca02c"/>
     </g>
    </g>
    <g id="text_20">
     <!-- 0.01 -->
     <g transform="translate(89.518672 89.9965)scale(0.11 -0.11)">
      <use xlink:href="#Georgia-30"/>
      <use xlink:href="#Georgia-2e" x="61.376953"/>
      <use xlink:href="#Georgia-30" x="88.330078"/>
      <use xlink:href="#Georgia-31" x="149.707031"/>
     </g>
    </g>
    <g id="LineCollection_8">
     <path d="M 69.718672 107.847437 
L 69.718672 96.847437 
" style="fill: none; stroke: #d62728; stroke-width: 1.5"/>
    </g>
    <g id="line2d_25">
     <path d="M 58.718672 102.347437 
L 80.718672 102.347437 
" style="fill: none; stroke: #d62728; stroke-width: 1.5; stroke-linecap: square"/>
    </g>
    <g id="line2d_26">
     <g>
      <use xlink:href="#m1b781a7f90" x="69.718672" y="102.347437" style="fill: #d62728; stroke: #d62728"/>
     </g>
    </g>
    <g id="text_21">
     <!-- 0.001 -->
     <g transform="translate(89.518672 106.197437)scale(0.11 -0.11)">
      <use xlink:href="#Georgia-30"/>
      <use xlink:href="#Georgia-2e" x="61.376953"/>
      <use xlink:href="#Georgia-30" x="88.330078"/>
      <use xlink:href="#Georgia-30" x="149.707031"/>
      <use xlink:href="#Georgia-31" x="211.083984"/>
     </g>
    </g>
   </g>
  </g>
  <g id="axes_2">
   <g id="patch_8">
    <path d="M 45.368281 458.058375 
L 435.968281 458.058375 
L 435.968281 260.385648 
L 45.368281 260.385648 
z
" style="fill: #ffffff"/>
   </g>
   <g id="matplotlib.axis_3">
    <g id="xtick_8">
     <g id="line2d_27">
      <g>
       <use xlink:href="#m779654e060" x="60.326835" y="458.058375" style="stroke: #000000; stroke-width: 0.8"/>
      </g>
     </g>
     <g id="text_22">
      <!-- 0 -->
      <g transform="translate(56.95121 473.373687)scale(0.11 -0.11)">
       <use xlink:href="#Georgia-30"/>
      </g>
     </g>
    </g>
    <g id="xtick_9">
     <g id="line2d_28">
      <g>
       <use xlink:href="#m779654e060" x="116.246663" y="458.058375" style="stroke: #000000; stroke-width: 0.8"/>
      </g>
     </g>
     <g id="text_23">
      <!-- 1000 -->
      <g transform="translate(103.756507 473.373687)scale(0.11 -0.11)">
       <use xlink:href="#Georgia-31"/>
       <use xlink:href="#Georgia-30" x="42.96875"/>
       <use xlink:href="#Georgia-30" x="104.345703"/>
       <use xlink:href="#Georgia-30" x="165.722656"/>
      </g>
     </g>
    </g>
    <g id="xtick_10">
     <g id="line2d_29">
      <g>
       <use xlink:href="#m779654e060" x="172.166492" y="458.058375" style="stroke: #000000; stroke-width: 0.8"/>
      </g>
     </g>
     <g id="text_24">
      <!-- 2000 -->
      <g transform="translate(158.967351 473.373687)scale(0.11 -0.11)">
       <use xlink:href="#Georgia-32"/>
       <use xlink:href="#Georgia-30" x="55.859375"/>
       <use xlink:href="#Georgia-30" x="117.236328"/>
       <use xlink:href="#Georgia-30" x="178.613281"/>
      </g>
     </g>
    </g>
    <g id="xtick_11">
     <g id="line2d_30">
      <g>
       <use xlink:href="#m779654e060" x="228.08632" y="458.058375" style="stroke: #000000; stroke-width: 0.8"/>
      </g>
     </g>
     <g id="text_25">
      <!-- 3000 -->
      <g transform="translate(214.924992 473.373687)scale(0.11 -0.11)">
       <use xlink:href="#Georgia-33"/>
       <use xlink:href="#Georgia-30" x="55.175781"/>
       <use xlink:href="#Georgia-30" x="116.552734"/>
       <use xlink:href="#Georgia-30" x="177.929688"/>
      </g>
     </g>
    </g>
    <g id="xtick_12">
     <g id="line2d_31">
      <g>
       <use xlink:href="#m779654e060" x="284.006148" y="458.058375" style="stroke: #000000; stroke-width: 0.8"/>
      </g>
     </g>
     <g id="text_26">
      <!-- 4000 -->
      <g transform="translate(270.771773 473.373687)scale(0.11 -0.11)">
       <use xlink:href="#Georgia-34"/>
       <use xlink:href="#Georgia-30" x="56.494141"/>
       <use xlink:href="#Georgia-30" x="117.871094"/>
       <use xlink:href="#Georgia-30" x="179.248047"/>
      </g>
     </g>
    </g>
    <g id="xtick_13">
     <g id="line2d_32">
      <g>
       <use xlink:href="#m779654e060" x="339.925976" y="458.058375" style="stroke: #000000; stroke-width: 0.8"/>
      </g>
     </g>
     <g id="text_27">
      <!-- 5000 -->
      <g transform="translate(326.893554 473.373687)scale(0.11 -0.11)">
       <use xlink:href="#Georgia-35"/>
       <use xlink:href="#Georgia-30" x="52.832031"/>
       <use xlink:href="#Georgia-30" x="114.208984"/>
       <use xlink:href="#Georgia-30" x="175.585938"/>
      </g>
     </g>
    </g>
    <g id="xtick_14">
     <g id="line2d_33">
      <g>
       <use xlink:href="#m779654e060" x="395.845805" y="458.058375" style="stroke: #000000; stroke-width: 0.8"/>
      </g>
     </g>
     <g id="text_28">
      <!-- 6000 -->
      <g transform="translate(382.606273 473.373687)scale(0.11 -0.11)">
       <use xlink:href="#Georgia-36"/>
       <use xlink:href="#Georgia-30" x="56.591797"/>
       <use xlink:href="#Georgia-30" x="117.96875"/>
       <use xlink:href="#Georgia-30" x="179.345703"/>
      </g>
     </g>
    </g>
    <g id="text_29">
     <!-- Number of estimators -->
     <g transform="translate(187.386172 488.074625)scale(0.11 -0.11)">
      <defs>
       <path id="Georgia-4e" d="M 4856 4213 
Q 4769 4209 4587 4162 
Q 4406 4116 4328 4066 
Q 4216 3988 4177 3766 
Q 4138 3544 4138 3203 
L 4138 -44 
L 3866 -44 
L 1178 3584 
L 1178 1297 
Q 1178 913 1226 706 
Q 1275 500 1375 413 
Q 1447 344 1672 284 
Q 1897 225 1969 222 
L 1969 0 
L 150 0 
L 150 222 
Q 234 228 434 283 
Q 634 338 684 381 
Q 794 469 834 648 
Q 875 828 875 1263 
L 875 3447 
Q 875 3591 825 3734 
Q 775 3878 691 3956 
Q 578 4059 386 4132 
Q 194 4206 75 4213 
L 75 4434 
L 1341 4434 
L 3834 1053 
L 3834 3163 
Q 3834 3550 3784 3758 
Q 3734 3966 3641 4034 
Q 3553 4094 3354 4150 
Q 3156 4206 3053 4213 
L 3053 4434 
L 4856 4434 
L 4856 4213 
z
" transform="scale(0.015625)"/>
       <path id="Georgia-75" d="M 3528 56 
L 2525 -13 
L 2478 31 
L 2478 422 
L 2459 422 
Q 2384 344 2290 255 
Q 2197 166 2075 94 
Q 1934 9 1803 -34 
Q 1672 -78 1431 -78 
Q 1022 -78 808 189 
Q 594 456 594 966 
L 594 2441 
Q 594 2553 551 2629 
Q 509 2706 428 2763 
Q 372 2800 287 2817 
Q 203 2834 109 2841 
L 109 3044 
L 1138 3119 
L 1184 3075 
L 1184 934 
Q 1184 600 1334 431 
Q 1484 263 1694 263 
Q 1866 263 2000 316 
Q 2134 369 2225 441 
Q 2309 506 2373 579 
Q 2438 653 2472 716 
L 2472 2463 
Q 2472 2566 2428 2645 
Q 2384 2725 2306 2781 
Q 2250 2819 2139 2826 
Q 2028 2834 1891 2841 
L 1891 3044 
L 3009 3119 
L 3056 3075 
L 3056 628 
Q 3056 522 3100 447 
Q 3144 372 3222 319 
Q 3278 284 3356 273 
Q 3434 263 3528 259 
L 3528 56 
z
" transform="scale(0.015625)"/>
       <path id="Georgia-62" d="M 3353 1544 
Q 3353 850 2915 378 
Q 2478 -94 1900 -94 
Q 1647 -94 1401 -15 
Q 1156 63 941 194 
L 709 -166 
L 516 -122 
Q 531 109 537 434 
Q 544 759 544 1063 
L 544 4113 
Q 544 4219 495 4325 
Q 447 4431 372 4478 
Q 313 4519 173 4539 
Q 34 4559 -50 4566 
L -50 4766 
L 1081 4838 
L 1125 4791 
L 1125 2759 
L 1147 2753 
Q 1341 2959 1570 3062 
Q 1800 3166 2022 3166 
Q 2591 3166 2972 2716 
Q 3353 2266 3353 1544 
z
M 2700 1522 
Q 2700 1753 2650 1993 
Q 2600 2234 2494 2413 
Q 2388 2594 2216 2706 
Q 2044 2819 1803 2819 
Q 1584 2819 1420 2733 
Q 1256 2647 1125 2500 
L 1125 706 
Q 1144 631 1198 531 
Q 1253 431 1347 341 
Q 1441 253 1559 198 
Q 1678 144 1850 144 
Q 2231 144 2465 512 
Q 2700 881 2700 1522 
z
" transform="scale(0.015625)"/>
       <path id="Georgia-6f" d="M 3228 1572 
Q 3228 1247 3125 933 
Q 3022 619 2831 400 
Q 2616 150 2331 28 
Q 2047 -94 1694 -94 
Q 1400 -94 1134 17 
Q 869 128 663 341 
Q 459 550 339 851 
Q 219 1153 219 1528 
Q 219 2250 639 2709 
Q 1059 3169 1741 3169 
Q 2388 3169 2808 2733 
Q 3228 2297 3228 1572 
z
M 2581 1566 
Q 2581 1800 2534 2061 
Q 2488 2322 2394 2503 
Q 2294 2697 2131 2814 
Q 1969 2931 1734 2931 
Q 1494 2931 1323 2812 
Q 1153 2694 1047 2488 
Q 947 2297 906 2053 
Q 866 1809 866 1581 
Q 866 1281 914 1026 
Q 963 772 1069 572 
Q 1175 372 1336 258 
Q 1497 144 1734 144 
Q 2125 144 2353 522 
Q 2581 900 2581 1566 
z
" transform="scale(0.015625)"/>
       <path id="Georgia-66" d="M 2519 4466 
Q 2519 4325 2444 4228 
Q 2369 4131 2216 4131 
Q 2119 4131 2045 4172 
Q 1972 4213 1909 4281 
Q 1847 4350 1794 4437 
Q 1741 4525 1703 4578 
Q 1494 4569 1380 4286 
Q 1266 4003 1266 3384 
L 1266 3069 
L 2059 3069 
L 2059 2769 
L 1266 2769 
L 1266 556 
Q 1266 447 1308 378 
Q 1350 309 1441 275 
Q 1516 247 1641 230 
Q 1766 213 1856 206 
L 1856 0 
L 231 0 
L 231 206 
Q 303 213 379 219 
Q 456 225 513 244 
Q 600 272 642 342 
Q 684 413 684 525 
L 684 2769 
L 75 2769 
L 75 3069 
L 684 3069 
L 684 3266 
Q 684 3969 1048 4405 
Q 1413 4841 1959 4841 
Q 2238 4841 2378 4731 
Q 2519 4622 2519 4466 
z
" transform="scale(0.015625)"/>
      </defs>
      <use xlink:href="#Georgia-4e"/>
      <use xlink:href="#Georgia-75" x="76.708984"/>
      <use xlink:href="#Georgia-6d" x="134.228516"/>
      <use xlink:href="#Georgia-62" x="222.314453"/>
      <use xlink:href="#Georgia-65" x="278.320312"/>
      <use xlink:href="#Georgia-72" x="326.660156"/>
      <use xlink:href="#Georgia-20" x="367.626953"/>
      <use xlink:href="#Georgia-6f" x="391.748047"/>
      <use xlink:href="#Georgia-66" x="445.654297"/>
      <use xlink:href="#Georgia-20" x="478.173828"/>
      <use xlink:href="#Georgia-65" x="502.294922"/>
      <use xlink:href="#Georgia-73" x="550.634766"/>
      <use xlink:href="#Georgia-74" x="593.847656"/>
      <use xlink:href="#Georgia-69" x="628.369141"/>
      <use xlink:href="#Georgia-6d" x="657.666016"/>
      <use xlink:href="#Georgia-61" x="745.751953"/>
      <use xlink:href="#Georgia-74" x="796.142578"/>
      <use xlink:href="#Georgia-6f" x="830.664062"/>
      <use xlink:href="#Georgia-72" x="884.570312"/>
      <use xlink:href="#Georgia-73" x="925.537109"/>
     </g>
    </g>
   </g>
   <g id="matplotlib.axis_4">
    <g id="ytick_8">
     <g id="line2d_34">
      <g>
       <use xlink:href="#m9663d216b3" x="45.368281" y="450.249347" style="stroke: #000000; stroke-width: 0.8"/>
      </g>
     </g>
     <g id="text_30">
      <!-- 0.0 -->
      <g transform="translate(21.900937 454.407003)scale(0.11 -0.11)">
       <use xlink:href="#Georgia-30"/>
       <use xlink:href="#Georgia-2e" x="61.376953"/>
       <use xlink:href="#Georgia-30" x="88.330078"/>
      </g>
     </g>
    </g>
    <g id="ytick_9">
     <g id="line2d_35">
      <g>
       <use xlink:href="#m9663d216b3" x="45.368281" y="420.398589" style="stroke: #000000; stroke-width: 0.8"/>
      </g>
     </g>
     <g id="text_31">
      <!-- 0.2 -->
      <g transform="translate(22.507656 424.556245)scale(0.11 -0.11)">
       <use xlink:href="#Georgia-30"/>
       <use xlink:href="#Georgia-2e" x="61.376953"/>
       <use xlink:href="#Georgia-32" x="88.330078"/>
      </g>
     </g>
    </g>
    <g id="ytick_10">
     <g id="line2d_36">
      <g>
       <use xlink:href="#m9663d216b3" x="45.368281" y="390.547831" style="stroke: #000000; stroke-width: 0.8"/>
      </g>
     </g>
     <g id="text_32">
      <!-- 0.4 -->
      <g transform="translate(22.437187 394.705488)scale(0.11 -0.11)">
       <use xlink:href="#Georgia-30"/>
       <use xlink:href="#Georgia-2e" x="61.376953"/>
       <use xlink:href="#Georgia-34" x="88.330078"/>
      </g>
     </g>
    </g>
    <g id="ytick_11">
     <g id="line2d_37">
      <g>
       <use xlink:href="#m9663d216b3" x="45.368281" y="360.697074" style="stroke: #000000; stroke-width: 0.8"/>
      </g>
     </g>
     <g id="text_33">
      <!-- 0.6 -->
      <g transform="translate(22.426875 364.85473)scale(0.11 -0.11)">
       <use xlink:href="#Georgia-30"/>
       <use xlink:href="#Georgia-2e" x="61.376953"/>
       <use xlink:href="#Georgia-36" x="88.330078"/>
      </g>
     </g>
    </g>
    <g id="ytick_12">
     <g id="line2d_38">
      <g>
       <use xlink:href="#m9663d216b3" x="45.368281" y="330.846316" style="stroke: #000000; stroke-width: 0.8"/>
      </g>
     </g>
     <g id="text_34">
      <!-- 0.8 -->
      <g transform="translate(22.093437 335.003972)scale(0.11 -0.11)">
       <defs>
        <path id="Georgia-38" d="M 3491 1175 
Q 3491 650 3037 272 
Q 2584 -106 1847 -106 
Q 1156 -106 740 241 
Q 325 588 325 1134 
Q 325 1538 570 1808 
Q 816 2078 1297 2266 
Q 900 2488 703 2753 
Q 506 3019 506 3353 
Q 506 3863 939 4206 
Q 1372 4550 1975 4550 
Q 2578 4550 2951 4225 
Q 3325 3900 3325 3409 
Q 3325 3094 3119 2811 
Q 2913 2528 2513 2347 
Q 3031 2125 3261 1856 
Q 3491 1588 3491 1175 
z
M 2734 3444 
Q 2734 3825 2507 4064 
Q 2281 4303 1928 4303 
Q 1575 4303 1350 4073 
Q 1125 3844 1125 3503 
Q 1125 3175 1381 2947 
Q 1638 2719 2294 2459 
Q 2528 2609 2631 2856 
Q 2734 3103 2734 3444 
z
M 2866 1028 
Q 2866 1225 2781 1373 
Q 2697 1522 2538 1644 
Q 2384 1763 2111 1892 
Q 1838 2022 1519 2156 
Q 1219 1994 1078 1742 
Q 938 1491 938 1169 
Q 938 709 1208 426 
Q 1478 144 1928 144 
Q 2359 144 2612 394 
Q 2866 644 2866 1028 
z
" transform="scale(0.015625)"/>
       </defs>
       <use xlink:href="#Georgia-30"/>
       <use xlink:href="#Georgia-2e" x="61.376953"/>
       <use xlink:href="#Georgia-38" x="88.330078"/>
      </g>
     </g>
    </g>
    <g id="ytick_13">
     <g id="line2d_39">
      <g>
       <use xlink:href="#m9663d216b3" x="45.368281" y="300.995558" style="stroke: #000000; stroke-width: 0.8"/>
      </g>
     </g>
     <g id="text_35">
      <!-- 1.0 -->
      <g transform="translate(23.925625 305.153215)scale(0.11 -0.11)">
       <use xlink:href="#Georgia-31"/>
       <use xlink:href="#Georgia-2e" x="42.96875"/>
       <use xlink:href="#Georgia-30" x="69.921875"/>
      </g>
     </g>
    </g>
    <g id="ytick_14">
     <g id="line2d_40">
      <g>
       <use xlink:href="#m9663d216b3" x="45.368281" y="271.144801" style="stroke: #000000; stroke-width: 0.8"/>
      </g>
     </g>
     <g id="text_36">
      <!-- 1.2 -->
      <g transform="translate(24.532344 275.302457)scale(0.11 -0.11)">
       <use xlink:href="#Georgia-31"/>
       <use xlink:href="#Georgia-2e" x="42.96875"/>
       <use xlink:href="#Georgia-32" x="69.921875"/>
      </g>
     </g>
    </g>
    <g id="text_37">
     <!-- Time [s] -->
     <g transform="translate(15.515312 379.568574)rotate(-90)scale(0.11 -0.11)">
      <use xlink:href="#Georgia-54"/>
      <use xlink:href="#Georgia-69" x="61.865234"/>
      <use xlink:href="#Georgia-6d" x="91.162109"/>
      <use xlink:href="#Georgia-65" x="179.248047"/>
      <use xlink:href="#Georgia-20" x="227.587891"/>
      <use xlink:href="#Georgia-5b" x="251.708984"/>
      <use xlink:href="#Georgia-73" x="289.208984"/>
      <use xlink:href="#Georgia-5d" x="332.421875"/>
     </g>
    </g>
   </g>
   <g id="LineCollection_9">
    <path d="M 63.122827 449.073251 
L 63.122827 449.024588 
" clip-path="url(#p70d7456b57)" style="fill: none; stroke: #1f77b4; stroke-width: 1.5"/>
    <path d="M 65.918818 448.022977 
L 65.918818 447.830682 
" clip-path="url(#p70d7456b57)" style="fill: none; stroke: #1f77b4; stroke-width: 1.5"/>
    <path d="M 71.510801 445.740384 
L 71.510801 445.520742 
" clip-path="url(#p70d7456b57)" style="fill: none; stroke: #1f77b4; stroke-width: 1.5"/>
    <path d="M 82.694767 441.202658 
L 82.694767 439.841145 
" clip-path="url(#p70d7456b57)" style="fill: none; stroke: #1f77b4; stroke-width: 1.5"/>
    <path d="M 105.062698 431.105338 
L 105.062698 430.449948 
" clip-path="url(#p70d7456b57)" style="fill: none; stroke: #1f77b4; stroke-width: 1.5"/>
    <path d="M 149.79856 410.824417 
L 149.79856 409.903384 
" clip-path="url(#p70d7456b57)" style="fill: none; stroke: #1f77b4; stroke-width: 1.5"/>
    <path d="M 239.270286 371.39296 
L 239.270286 369.914504 
" clip-path="url(#p70d7456b57)" style="fill: none; stroke: #1f77b4; stroke-width: 1.5"/>
    <path d="M 418.213736 305.256797 
L 418.213736 269.370772 
" clip-path="url(#p70d7456b57)" style="fill: none; stroke: #1f77b4; stroke-width: 1.5"/>
   </g>
   <g id="LineCollection_10">
    <path d="M 63.122827 448.860782 
L 63.122827 448.711841 
" clip-path="url(#p70d7456b57)" style="fill: none; stroke: #ff7f0e; stroke-width: 1.5"/>
    <path d="M 65.918818 447.635572 
L 65.918818 447.494624 
" clip-path="url(#p70d7456b57)" style="fill: none; stroke: #ff7f0e; stroke-width: 1.5"/>
    <path d="M 71.510801 445.503326 
L 71.510801 445.166798 
" clip-path="url(#p70d7456b57)" style="fill: none; stroke: #ff7f0e; stroke-width: 1.5"/>
    <path d="M 82.694767 441.027366 
L 82.694767 440.65497 
" clip-path="url(#p70d7456b57)" style="fill: none; stroke: #ff7f0e; stroke-width: 1.5"/>
    <path d="M 105.062698 431.521535 
L 105.062698 430.277267 
" clip-path="url(#p70d7456b57)" style="fill: none; stroke: #ff7f0e; stroke-width: 1.5"/>
    <path d="M 149.79856 411.766119 
L 149.79856 408.074025 
" clip-path="url(#p70d7456b57)" style="fill: none; stroke: #ff7f0e; stroke-width: 1.5"/>
    <path d="M 239.270286 374.65204 
L 239.270286 363.905142 
" clip-path="url(#p70d7456b57)" style="fill: none; stroke: #ff7f0e; stroke-width: 1.5"/>
    <path d="M 418.213736 300.881598 
L 418.213736 278.704564 
" clip-path="url(#p70d7456b57)" style="fill: none; stroke: #ff7f0e; stroke-width: 1.5"/>
   </g>
   <g id="LineCollection_11">
    <path d="M 63.122827 448.821707 
L 63.122827 448.612023 
" clip-path="url(#p70d7456b57)" style="fill: none; stroke: #2ca02c; stroke-width: 1.5"/>
    <path d="M 65.918818 447.453435 
L 65.918818 447.345639 
" clip-path="url(#p70d7456b57)" style="fill: none; stroke: #2ca02c; stroke-width: 1.5"/>
    <path d="M 71.510801 445.095715 
L 71.510801 444.181672 
" clip-path="url(#p70d7456b57)" style="fill: none; stroke: #2ca02c; stroke-width: 1.5"/>
    <path d="M 82.694767 440.335561 
L 82.694767 439.833652 
" clip-path="url(#p70d7456b57)" style="fill: none; stroke: #2ca02c; stroke-width: 1.5"/>
    <path d="M 105.062698 432.79333 
L 105.062698 430.037633 
" clip-path="url(#p70d7456b57)" style="fill: none; stroke: #2ca02c; stroke-width: 1.5"/>
    <path d="M 149.79856 414.146746 
L 149.79856 412.780705 
" clip-path="url(#p70d7456b57)" style="fill: none; stroke: #2ca02c; stroke-width: 1.5"/>
    <path d="M 239.270286 377.395754 
L 239.270286 368.733693 
" clip-path="url(#p70d7456b57)" style="fill: none; stroke: #2ca02c; stroke-width: 1.5"/>
    <path d="M 418.213736 298.257664 
L 418.213736 283.449089 
" clip-path="url(#p70d7456b57)" style="fill: none; stroke: #2ca02c; stroke-width: 1.5"/>
   </g>
   <g id="LineCollection_12">
    <path d="M 63.122827 448.810242 
L 63.122827 448.698605 
" clip-path="url(#p70d7456b57)" style="fill: none; stroke: #d62728; stroke-width: 1.5"/>
    <path d="M 65.918818 447.727665 
L 65.918818 446.945756 
" clip-path="url(#p70d7456b57)" style="fill: none; stroke: #d62728; stroke-width: 1.5"/>
    <path d="M 71.510801 445.109197 
L 71.510801 444.827527 
" clip-path="url(#p70d7456b57)" style="fill: none; stroke: #d62728; stroke-width: 1.5"/>
    <path d="M 82.694767 440.472027 
L 82.694767 439.194796 
" clip-path="url(#p70d7456b57)" style="fill: none; stroke: #d62728; stroke-width: 1.5"/>
    <path d="M 105.062698 430.802361 
L 105.062698 427.718373 
" clip-path="url(#p70d7456b57)" style="fill: none; stroke: #d62728; stroke-width: 1.5"/>
    <path d="M 149.79856 412.622305 
L 149.79856 408.25036 
" clip-path="url(#p70d7456b57)" style="fill: none; stroke: #d62728; stroke-width: 1.5"/>
    <path d="M 239.270286 374.892879 
L 239.270286 360.255518 
" clip-path="url(#p70d7456b57)" style="fill: none; stroke: #d62728; stroke-width: 1.5"/>
    <path d="M 418.213736 303.890728 
L 418.213736 288.111199 
" clip-path="url(#p70d7456b57)" style="fill: none; stroke: #d62728; stroke-width: 1.5"/>
   </g>
   <g id="line2d_41">
    <path d="M 63.122827 449.048919 
L 65.918818 447.92683 
L 71.510801 445.630563 
L 82.694767 440.521902 
L 105.062698 430.777643 
L 149.79856 410.363901 
L 239.270286 370.653732 
L 418.213736 287.313784 
" clip-path="url(#p70d7456b57)" style="fill: none; stroke: #1f77b4; stroke-width: 1.5; stroke-linecap: square"/>
    <g clip-path="url(#p70d7456b57)">
     <use xlink:href="#m1e2d48aeb9" x="63.122827" y="449.048919" style="fill: #1f77b4; stroke: #1f77b4"/>
     <use xlink:href="#m1e2d48aeb9" x="65.918818" y="447.92683" style="fill: #1f77b4; stroke: #1f77b4"/>
     <use xlink:href="#m1e2d48aeb9" x="71.510801" y="445.630563" style="fill: #1f77b4; stroke: #1f77b4"/>
     <use xlink:href="#m1e2d48aeb9" x="82.694767" y="440.521902" style="fill: #1f77b4; stroke: #1f77b4"/>
     <use xlink:href="#m1e2d48aeb9" x="105.062698" y="430.777643" style="fill: #1f77b4; stroke: #1f77b4"/>
     <use xlink:href="#m1e2d48aeb9" x="149.79856" y="410.363901" style="fill: #1f77b4; stroke: #1f77b4"/>
     <use xlink:href="#m1e2d48aeb9" x="239.270286" y="370.653732" style="fill: #1f77b4; stroke: #1f77b4"/>
     <use xlink:href="#m1e2d48aeb9" x="418.213736" y="287.313784" style="fill: #1f77b4; stroke: #1f77b4"/>
    </g>
   </g>
   <g id="line2d_42">
    <path d="M 63.122827 448.786311 
L 65.918818 447.565098 
L 71.510801 445.335062 
L 82.694767 440.841168 
L 105.062698 430.899401 
L 149.79856 409.920072 
L 239.270286 369.278591 
L 418.213736 289.793081 
" clip-path="url(#p70d7456b57)" style="fill: none; stroke: #ff7f0e; stroke-width: 1.5; stroke-linecap: square"/>
    <g clip-path="url(#p70d7456b57)">
     <use xlink:href="#mf8090d0730" x="63.122827" y="448.786311" style="fill: #ff7f0e; stroke: #ff7f0e"/>
     <use xlink:href="#mf8090d0730" x="65.918818" y="447.565098" style="fill: #ff7f0e; stroke: #ff7f0e"/>
     <use xlink:href="#mf8090d0730" x="71.510801" y="445.335062" style="fill: #ff7f0e; stroke: #ff7f0e"/>
     <use xlink:href="#mf8090d0730" x="82.694767" y="440.841168" style="fill: #ff7f0e; stroke: #ff7f0e"/>
     <use xlink:href="#mf8090d0730" x="105.062698" y="430.899401" style="fill: #ff7f0e; stroke: #ff7f0e"/>
     <use xlink:href="#mf8090d0730" x="149.79856" y="409.920072" style="fill: #ff7f0e; stroke: #ff7f0e"/>
     <use xlink:href="#mf8090d0730" x="239.270286" y="369.278591" style="fill: #ff7f0e; stroke: #ff7f0e"/>
     <use xlink:href="#mf8090d0730" x="418.213736" y="289.793081" style="fill: #ff7f0e; stroke: #ff7f0e"/>
    </g>
   </g>
   <g id="line2d_43">
    <path d="M 63.122827 448.716865 
L 65.918818 447.399537 
L 71.510801 444.638693 
L 82.694767 440.084606 
L 105.062698 431.415482 
L 149.79856 413.463725 
L 239.270286 373.064723 
L 418.213736 290.853377 
" clip-path="url(#p70d7456b57)" style="fill: none; stroke: #2ca02c; stroke-width: 1.5; stroke-linecap: square"/>
    <g clip-path="url(#p70d7456b57)">
     <use xlink:href="#ma980b40e7d" x="63.122827" y="448.716865" style="fill: #2ca02c; stroke: #2ca02c"/>
     <use xlink:href="#ma980b40e7d" x="65.918818" y="447.399537" style="fill: #2ca02c; stroke: #2ca02c"/>
     <use xlink:href="#ma980b40e7d" x="71.510801" y="444.638693" style="fill: #2ca02c; stroke: #2ca02c"/>
     <use xlink:href="#ma980b40e7d" x="82.694767" y="440.084606" style="fill: #2ca02c; stroke: #2ca02c"/>
     <use xlink:href="#ma980b40e7d" x="105.062698" y="431.415482" style="fill: #2ca02c; stroke: #2ca02c"/>
     <use xlink:href="#ma980b40e7d" x="149.79856" y="413.463725" style="fill: #2ca02c; stroke: #2ca02c"/>
     <use xlink:href="#ma980b40e7d" x="239.270286" y="373.064723" style="fill: #2ca02c; stroke: #2ca02c"/>
     <use xlink:href="#ma980b40e7d" x="418.213736" y="290.853377" style="fill: #2ca02c; stroke: #2ca02c"/>
    </g>
   </g>
   <g id="line2d_44">
    <path d="M 63.122827 448.754424 
L 65.918818 447.33671 
L 71.510801 444.968362 
L 82.694767 439.833411 
L 105.062698 429.260367 
L 149.79856 410.436333 
L 239.270286 367.574199 
L 418.213736 296.000964 
" clip-path="url(#p70d7456b57)" style="fill: none; stroke: #d62728; stroke-width: 1.5; stroke-linecap: square"/>
    <g clip-path="url(#p70d7456b57)">
     <use xlink:href="#m1b781a7f90" x="63.122827" y="448.754424" style="fill: #d62728; stroke: #d62728"/>
     <use xlink:href="#m1b781a7f90" x="65.918818" y="447.33671" style="fill: #d62728; stroke: #d62728"/>
     <use xlink:href="#m1b781a7f90" x="71.510801" y="444.968362" style="fill: #d62728; stroke: #d62728"/>
     <use xlink:href="#m1b781a7f90" x="82.694767" y="439.833411" style="fill: #d62728; stroke: #d62728"/>
     <use xlink:href="#m1b781a7f90" x="105.062698" y="429.260367" style="fill: #d62728; stroke: #d62728"/>
     <use xlink:href="#m1b781a7f90" x="149.79856" y="410.436333" style="fill: #d62728; stroke: #d62728"/>
     <use xlink:href="#m1b781a7f90" x="239.270286" y="367.574199" style="fill: #d62728; stroke: #d62728"/>
     <use xlink:href="#m1b781a7f90" x="418.213736" y="296.000964" style="fill: #d62728; stroke: #d62728"/>
    </g>
   </g>
   <g id="patch_9">
    <path d="M 45.368281 458.058375 
L 45.368281 260.385648 
" style="fill: none; stroke: #000000; stroke-width: 0.8; stroke-linejoin: miter; stroke-linecap: square"/>
   </g>
   <g id="patch_10">
    <path d="M 435.968281 458.058375 
L 435.968281 260.385648 
" style="fill: none; stroke: #000000; stroke-width: 0.8; stroke-linejoin: miter; stroke-linecap: square"/>
   </g>
   <g id="patch_11">
    <path d="M 45.368281 458.058375 
L 435.968281 458.058375 
" style="fill: none; stroke: #000000; stroke-width: 0.8; stroke-linejoin: miter; stroke-linecap: square"/>
   </g>
   <g id="patch_12">
    <path d="M 45.368281 260.385648 
L 435.968281 260.385648 
" style="fill: none; stroke: #000000; stroke-width: 0.8; stroke-linejoin: miter; stroke-linecap: square"/>
   </g>
   <g id="text_38">
    <!-- Testing -->
    <g transform="translate(219.070813 254.385648)scale(0.132 -0.132)">
     <use xlink:href="#Georgia-54"/>
     <use xlink:href="#Georgia-65" x="61.865234"/>
     <use xlink:href="#Georgia-73" x="110.205078"/>
     <use xlink:href="#Georgia-74" x="153.417969"/>
     <use xlink:href="#Georgia-69" x="187.939453"/>
     <use xlink:href="#Georgia-6e" x="217.236328"/>
     <use xlink:href="#Georgia-67" x="276.318359"/>
    </g>
   </g>
   <g id="legend_2">
    <g id="patch_13">
     <path d="M 53.068281 350.190335 
L 123.114219 350.190335 
Q 125.314219 350.190335 125.314219 347.990335 
L 125.314219 268.085648 
Q 125.314219 265.885648 123.114219 265.885648 
L 53.068281 265.885648 
Q 50.868281 265.885648 50.868281 268.085648 
L 50.868281 347.990335 
Q 50.868281 350.190335 53.068281 350.190335 
z
" style="fill: #ffffff; opacity: 0.8; stroke: #cccccc; stroke-linejoin: miter"/>
    </g>
    <g id="text_39">
     <!-- Learning rate -->
     <g transform="translate(55.268281 278.60096)scale(0.11 -0.11)">
      <use xlink:href="#Georgia-4c"/>
      <use xlink:href="#Georgia-65" x="60.351562"/>
      <use xlink:href="#Georgia-61" x="108.691406"/>
      <use xlink:href="#Georgia-72" x="159.082031"/>
      <use xlink:href="#Georgia-6e" x="200.048828"/>
      <use xlink:href="#Georgia-69" x="259.130859"/>
      <use xlink:href="#Georgia-6e" x="288.427734"/>
      <use xlink:href="#Georgia-67" x="347.509766"/>
      <use xlink:href="#Georgia-20" x="398.4375"/>
      <use xlink:href="#Georgia-72" x="422.558594"/>
      <use xlink:href="#Georgia-61" x="463.525391"/>
      <use xlink:href="#Georgia-74" x="513.916016"/>
      <use xlink:href="#Georgia-65" x="548.4375"/>
     </g>
    </g>
    <g id="LineCollection_13">
     <path d="M 69.718672 296.451898 
L 69.718672 285.451898 
" style="fill: none; stroke: #1f77b4; stroke-width: 1.5"/>
    </g>
    <g id="line2d_45">
     <path d="M 58.718672 290.951898 
L 80.718672 290.951898 
" style="fill: none; stroke: #1f77b4; stroke-width: 1.5; stroke-linecap: square"/>
    </g>
    <g id="line2d_46">
     <g>
      <use xlink:href="#m1e2d48aeb9" x="69.718672" y="290.951898" style="fill: #1f77b4; stroke: #1f77b4"/>
     </g>
    </g>
    <g id="text_40">
     <!-- 1.0 -->
     <g transform="translate(89.518672 294.801898)scale(0.11 -0.11)">
      <use xlink:href="#Georgia-31"/>
      <use xlink:href="#Georgia-2e" x="42.96875"/>
      <use xlink:href="#Georgia-30" x="69.921875"/>
     </g>
    </g>
    <g id="LineCollection_14">
     <path d="M 69.718672 312.652835 
L 69.718672 301.652835 
" style="fill: none; stroke: #ff7f0e; stroke-width: 1.5"/>
    </g>
    <g id="line2d_47">
     <path d="M 58.718672 307.152835 
L 80.718672 307.152835 
" style="fill: none; stroke: #ff7f0e; stroke-width: 1.5; stroke-linecap: square"/>
    </g>
    <g id="line2d_48">
     <g>
      <use xlink:href="#mf8090d0730" x="69.718672" y="307.152835" style="fill: #ff7f0e; stroke: #ff7f0e"/>
     </g>
    </g>
    <g id="text_41">
     <!-- 0.1 -->
     <g transform="translate(89.518672 311.002835)scale(0.11 -0.11)">
      <use xlink:href="#Georgia-30"/>
      <use xlink:href="#Georgia-2e" x="61.376953"/>
      <use xlink:href="#Georgia-31" x="88.330078"/>
     </g>
    </g>
    <g id="LineCollection_15">
     <path d="M 69.718672 328.853773 
L 69.718672 317.853773 
" style="fill: none; stroke: #2ca02c; stroke-width: 1.5"/>
    </g>
    <g id="line2d_49">
     <path d="M 58.718672 323.353773 
L 80.718672 323.353773 
" style="fill: none; stroke: #2ca02c; stroke-width: 1.5; stroke-linecap: square"/>
    </g>
    <g id="line2d_50">
     <g>
      <use xlink:href="#ma980b40e7d" x="69.718672" y="323.353773" style="fill: #2ca02c; stroke: #2ca02c"/>
     </g>
    </g>
    <g id="text_42">
     <!-- 0.01 -->
     <g transform="translate(89.518672 327.203773)scale(0.11 -0.11)">
      <use xlink:href="#Georgia-30"/>
      <use xlink:href="#Georgia-2e" x="61.376953"/>
      <use xlink:href="#Georgia-30" x="88.330078"/>
      <use xlink:href="#Georgia-31" x="149.707031"/>
     </g>
    </g>
    <g id="LineCollection_16">
     <path d="M 69.718672 345.05471 
L 69.718672 334.05471 
" style="fill: none; stroke: #d62728; stroke-width: 1.5"/>
    </g>
    <g id="line2d_51">
     <path d="M 58.718672 339.55471 
L 80.718672 339.55471 
" style="fill: none; stroke: #d62728; stroke-width: 1.5; stroke-linecap: square"/>
    </g>
    <g id="line2d_52">
     <g>
      <use xlink:href="#m1b781a7f90" x="69.718672" y="339.55471" style="fill: #d62728; stroke: #d62728"/>
     </g>
    </g>
    <g id="text_43">
     <!-- 0.001 -->
     <g transform="translate(89.518672 343.40471)scale(0.11 -0.11)">
      <use xlink:href="#Georgia-30"/>
      <use xlink:href="#Georgia-2e" x="61.376953"/>
      <use xlink:href="#Georgia-30" x="88.330078"/>
      <use xlink:href="#Georgia-30" x="149.707031"/>
      <use xlink:href="#Georgia-31" x="211.083984"/>
     </g>
    </g>
   </g>
  </g>
 </g>
 <defs>
  <clipPath id="pcdaaca78d6">
   <rect x="45.368281" y="23.178375" width="390.6" height="197.672727"/>
  </clipPath>
  <clipPath id="p70d7456b57">
   <rect x="45.368281" y="260.385648" width="390.6" height="197.672727"/>
  </clipPath>
 </defs>
</svg>
